<svg xmlns="http://www.w3.org/2000/svg" viewBox="0 0 400 300" width="406" height="306"
     class="illustration styles_illustrationTablet__1DWOa">
  <g id="_486_drone_flatline" data-name="#486_drone_flatline">
    <polygon points="207.58 231.5 200.18 274.02 308.55 274.02 308.55 226.72 207.58 231.5" fill="#231f20"></polygon>
    <path
      d="M308.55,274.52H200.18a.49.49,0,0,1-.38-.18.47.47,0,0,1-.11-.41l7.4-42.51a.5.5,0,0,1,.47-.42l101-4.78a.47.47,0,0,1,.37.13.55.55,0,0,1,.15.36V274A.5.5,0,0,1,308.55,274.52Zm-107.77-1H308.05V227.24L208,232Z"
      fill="#231f20"></path>
    <path d="M201.63,147.09l-29.11,55.34s42.7,6.2,43,4.87,12.35-57.72,12.35-57.72Z" fill="#fff"></path>
    <path
      d="M214.1,208c-2.36,0-7.75-.5-20.26-2.11-10.59-1.37-21.28-2.92-21.39-2.94a.48.48,0,0,1-.37-.26.47.47,0,0,1,0-.46l29.11-55.35a.48.48,0,0,1,.49-.26l26.21,2.49a.5.5,0,0,1,.44.6c-.12.57-12.1,56.4-12.35,57.71C215.92,207.69,215.86,208,214.1,208ZM173.29,202c15.83,2.28,39.13,5.36,41.75,4.92.84-4,10.91-51,12.19-56.94l-25.31-2.4Z"
      fill="#231f20"></path>
    <path
      d="M203,246.48l107,10.15c2.47-13.62,3.3-59.63,4.39-65.67l19.75-5.77c-.8-1.88,15-41.22-2.87-55-11.14-11-40.41-22.63-67.61-26,0,0-7.06-1.66-20.41.82-32.61,6-46.67,46.76-46.67,46.76l22,12.82S211.32,212.36,203,246.48Z"
      fill="#32529d"></path>
    <path
      d="M319.77,138.81c-6.19,2.57-11.81,6.4-18.33,8.51-14,4.53-30.37,5.84-43.87-1.07-15.93-8.15-25.18-25.52-21.64-43.35,2.23-11.19,8.69-19.66,19.72-23.42,7.64-2.61,16-2.59,23.94-1.39,21.21,3.19,41.31,15.19,52.65,33.39,1.79,2.86,3.39,6,3.7,9.33.85,9.1-7.1,14.61-14.54,17.36C320.85,138.37,320.31,138.59,319.77,138.81Z"
      fill="#32529d"></path>
    <path
      d="M258.86,126c-.19,0-4.82,2.3-5,2.3-1.11,7.27-3,16.58,4,20.65,14.24,8.24,25.23-10.74,32.17-18.94C278.4,128.37,270.57,126.35,258.86,126Z"
      fill="#231f20"></path>
    <path
      d="M264.88,151.45a14.34,14.34,0,0,1-7.25-2.08c-6.94-4-5.57-12.86-4.46-20l.19-1.2a.49.49,0,0,1,.39-.41c.24-.09,1.47-.67,2.37-1.1,2.54-1.22,2.58-1.23,2.75-1.21a149.07,149.07,0,0,1,21.3,2.45c3.12.52,6.34,1.06,9.95,1.56a.52.52,0,0,1,.4.32.51.51,0,0,1-.09.5c-1,1.21-2.16,2.69-3.36,4.25C281.68,141.58,274.08,151.45,264.88,151.45Zm-10.59-22.8-.14.91c-1.11,7.16-2.37,15.27,4,18.95,11.73,6.79,21.22-5.54,28.15-14.55,1-1.29,1.93-2.51,2.82-3.59-3.27-.47-6.23-1-9.1-1.45a146,146,0,0,0-21.08-2.43c-.3.11-1.49.68-2.37,1.1C255.26,128.21,254.63,128.51,254.29,128.65Z"
      fill="#231f20"></path>
    <path
      d="M314,53.47a6.89,6.89,0,0,0-.56-2.49,7.12,7.12,0,0,0-5-4.07c.59-1.68-.56-3.57-2.12-4.43a11.52,11.52,0,0,0-5.18-1,6.74,6.74,0,0,0-4-6.11,8.71,8.71,0,0,0-6.09-.46c-2,.68-.68,1.18-2.79.41-3.36-1.23-5.83-2.73-9.49-.82-1.2.62-2.37,1.69-2.39,3.05-2.59-2.16-7.73-5-11.19-4.07-1,.26-7.74,5.33-5.78,6.69a5.34,5.34,0,0,0-7.3,7.6c-1.77-1.26-4.45-.54-5.76,1.19a7,7,0,0,0-.81,6.22,19.49,19.49,0,0,0,3.14,5.67c-3.12,2.15-5.65,4.86-4.82,8.8.14.64,3.47,6.41,3.83,5.76-5,9,3.79,14.28,10.87,16.94,9.85,3.7,20.91,6.12,31.47,5a27.17,27.17,0,0,0,13.73-5.12c2-1.45,4.67-2.36,6.46-4.13,1.1-1.1,2-6,2.33-6.17a8.43,8.43,0,0,0,2-11.58c2.5-1.35,4.43-4.8,3.82-7.68-.19-.91-4.35-6.89-5.38-5.21A7.06,7.06,0,0,0,314,53.47Z"
      fill="#fff"></path>
    <path
      d="M284.69,98.12c-8.08,0-16.9-1.78-26.32-5.32C253.78,91.08,248,88,246.22,83.33a9.38,9.38,0,0,1,.77-7.71c-1.31-1.23-3.56-5.58-3.63-5.88-.92-4.34,2.06-7.2,4.61-9a18.81,18.81,0,0,1-2.92-5.4,7.51,7.51,0,0,1,.89-6.67,5.13,5.13,0,0,1,5-1.92,5.81,5.81,0,0,1,7.61-7.57c.43-2.26,5.55-5.94,6.48-6.18,3.43-.88,8.18,1.54,11,3.64a5,5,0,0,1,2.5-2.58c3.36-1.75,5.77-.8,8.57.29.43.17.87.35,1.33.51a7.41,7.41,0,0,0,1.07.36,2.83,2.83,0,0,1,1.38-.77,9.22,9.22,0,0,1,6.47.47A7.39,7.39,0,0,1,301.63,41,11.08,11.08,0,0,1,306.56,42a4.66,4.66,0,0,1,2.48,4.5,7.63,7.63,0,0,1,4.89,4.24,7.48,7.48,0,0,1,.6,2.67,7.57,7.57,0,0,1-.59,3.27c1.85.6,4.76,5,4.94,5.84.64,3-1.28,6.4-3.6,7.94a8.68,8.68,0,0,1,1.12,6.13,8.56,8.56,0,0,1-3.5,5.64c-.09.22-.26.83-.41,1.38-.61,2.18-1.18,4.06-1.93,4.79a17.17,17.17,0,0,1-4,2.67A24.85,24.85,0,0,0,304,92.62a27.62,27.62,0,0,1-14,5.22A52.63,52.63,0,0,1,284.69,98.12ZM248.12,75.63c-1.46,2.63-1.79,5.1-1,7.35,1.6,4.35,7.17,7.23,11.57,8.88,11.4,4.29,21.91,6,31.24,5a26.68,26.68,0,0,0,13.49-5,26.09,26.09,0,0,1,2.65-1.58,16.91,16.91,0,0,0,3.75-2.5c.62-.61,1.27-3,1.67-4.35s.49-1.72.74-1.88a7.94,7.94,0,0,0,1.9-10.86.5.5,0,0,1-.09-.41.49.49,0,0,1,.25-.33c2.2-1.19,4.16-4.35,3.57-7.14-.16-.71-3.13-4.9-4.34-5.1-.08,0-.09,0-.12,0h0a.5.5,0,0,1-.69.16.48.48,0,0,1-.16-.68h0a6.61,6.61,0,0,0,.94-3.69,6.39,6.39,0,0,0-.52-2.31,6.58,6.58,0,0,0-4.68-3.78.53.53,0,0,1-.34-.25.49.49,0,0,1,0-.41c.51-1.46-.56-3.09-1.89-3.83a11.15,11.15,0,0,0-5-.95.46.46,0,0,1-.35-.16.49.49,0,0,1-.13-.36,6.24,6.24,0,0,0-3.71-5.64,8.15,8.15,0,0,0-5.72-.43,2.67,2.67,0,0,0-1.08.55c-.49.42-.72.33-2-.15-.46-.17-.91-.34-1.35-.52-2.67-1-4.79-1.87-7.74-.33-.49.25-2.09,1.2-2.12,2.61a.5.5,0,0,1-.29.45.51.51,0,0,1-.53-.07c-2.38-2-7.41-4.82-10.75-4-.74.19-5.45,3.74-5.74,5.41-.05.24,0,.32.12.39h0a.5.5,0,0,1,.12.69.51.51,0,0,1-.7.13h0a4.83,4.83,0,0,0-6.61,6.89.5.5,0,0,1,0,.65.52.52,0,0,1-.65.06c-1.63-1.16-4-.36-5.08,1.08A6.51,6.51,0,0,0,246,55a18.91,18.91,0,0,0,3.07,5.52.49.49,0,0,1,.09.37.53.53,0,0,1-.21.33c-3.85,2.65-5.27,5.21-4.62,8.29a28.71,28.71,0,0,0,3.3,5.36.48.48,0,0,1,.28.06.5.5,0,0,1,.2.68Z"
      fill="#231f20"></path>
    <path
      d="M261,108.81l-7.19,19.48S258.2,142,272,140.78s17.62-11.09,17.62-11.09l.07-.3c2.71-12.79,4.82-26,8.19-38.55-4.92-4.14-6.44-12.92-3.78-18.6.33-.69.8-1.43,1.56-1.57a4.57,4.57,0,0,1-1.86-3.38c-.17-1.91,2.52-5.31-.34-4.51-1.15.32-2,1.21-3.27,1.27-.29,0-3.42-.67-3-1.24A5.32,5.32,0,0,1,277.88,61a14.53,14.53,0,0,1-6.28,3.29A7.12,7.12,0,0,1,265,62.36a10.61,10.61,0,0,1-4.45,3.32c-1.87.73-2.49.39-3.26,2.3-1.17,2.91-2.2,5.9-3.19,8.88-2,5.94-4.18,12.42-4.14,18.76C250,106.21,261,108.81,261,108.81Z"
      fill="#fff"></path>
    <path
      d="M270.33,141.36c-12.71,0-16.92-12.79-17-12.92a.5.5,0,0,1,0-.32l7-19c-2.26-.71-10.84-4-10.9-13.52,0-6.26,2.12-12.75,4-18.48l.14-.43c1-2.84,2-5.89,3.21-8.92a3,3,0,0,1,2.43-2.2c.31-.1.68-.21,1.11-.38a10,10,0,0,0,4.24-3.15.51.51,0,0,1,.37-.2.54.54,0,0,1,.39.17,6.63,6.63,0,0,0,6.12,1.71,13.76,13.76,0,0,0,6.05-3.17.47.47,0,0,1,.47-.09.51.51,0,0,1,.33.34,4.83,4.83,0,0,0,8.49,1.69h0a.51.51,0,0,1,.7-.09.53.53,0,0,1,.2.42,8.83,8.83,0,0,0,2.47.72,4.13,4.13,0,0,0,1.73-.63,6.79,6.79,0,0,1,1.42-.63,1.68,1.68,0,0,1,1.69.19c.52.55.18,1.48-.2,2.56a6.1,6.1,0,0,0-.52,2.21,4,4,0,0,0,1.64,3,.5.5,0,0,1,.21.51.52.52,0,0,1-.4.39c-.44.08-.83.51-1.2,1.3-2.67,5.7-1,14.11,3.65,18a.51.51,0,0,1,.16.52c-2.26,8.43-4,17.28-5.64,25.84-.81,4.17-1.65,8.48-2.54,12.68l-.07.3c-.06.18-4.07,10.25-18.06,11.49C271.48,141.33,270.9,141.36,270.33,141.36ZM254.38,128.3c.54,1.57,5,13.11,17.62,12,13.35-1.18,17.16-10.67,17.2-10.77l0-.23c.89-4.19,1.73-8.5,2.54-12.66,1.64-8.48,3.35-17.24,5.58-25.61-4.75-4.23-6.47-13-3.67-19a4,4,0,0,1,1.09-1.48,5.19,5.19,0,0,1-1.44-3.21,6.73,6.73,0,0,1,.58-2.63,4.78,4.78,0,0,0,.4-1.56,2.19,2.19,0,0,0-.68.11,5.69,5.69,0,0,0-1.22.54,4.88,4.88,0,0,1-2.17.75,8.94,8.94,0,0,1-3.06-.91,5.83,5.83,0,0,1-9.56-1.85,14.09,14.09,0,0,1-5.93,2.94,7.75,7.75,0,0,1-6.64-1.62,11.12,11.12,0,0,1-4.3,3c-.47.18-.86.3-1.19.4a2.11,2.11,0,0,0-1.79,1.63c-1.22,3-2.25,6-3.19,8.85l-.14.44c-2,5.92-4,12.06-4,18.15.06,10.07,10.24,12.61,10.68,12.72a.5.5,0,0,1,.32.25.47.47,0,0,1,0,.4Zm33.26-65.19Z"
      fill="#231f20"></path>
    <path
      d="M289.39,99a10.76,10.76,0,0,0,8.13,1.39c4-.92,6.82-4.08,8.14-7.88a9.7,9.7,0,0,0,.62-4.32,5.1,5.1,0,0,0-2.1-3.7c-1.47-1-3.37-.9-5.13-.79-2.63.17-3.18,1.39-5.19,2.67.2-.11.5-.53.71-.64"
      fill="#fff"></path>
    <path
      d="M295.14,101.19a11.21,11.21,0,0,1-6-1.74.5.5,0,1,1,.54-.84,10.25,10.25,0,0,0,7.75,1.33c3.56-.82,6.4-3.58,7.78-7.57a9.25,9.25,0,0,0,.6-4.09,4.65,4.65,0,0,0-1.88-3.35c-1.29-.85-3-.82-4.83-.7a5.33,5.33,0,0,0-3.44,1.48,15.29,15.29,0,0,1-1.43,1.05l-.12.08a.51.51,0,0,1-.67-.19.5.5,0,0,1,.17-.67l.06,0a2.08,2.08,0,0,0,.2-.21,2.06,2.06,0,0,1,.49-.41.4.4,0,0,1,.26-.06l.42-.33a6.25,6.25,0,0,1,4-1.7c1.6-.1,3.77-.24,5.45.87a5.65,5.65,0,0,1,2.32,4.06,10.09,10.09,0,0,1-.65,4.54c-1.49,4.32-4.59,7.31-8.49,8.21A11.08,11.08,0,0,1,295.14,101.19Z"
      fill="#231f20"></path>
    <path d="M257.26,119.05a14.58,14.58,0,0,0,13.45-1.94c6.74-4.8,7-9.63,7-9.63s-8.17,4.4-16.66,1.33Z"
          fill="#231f20"></path>
    <path
      d="M262.13,120.4a14.17,14.17,0,0,1-5.07-.89.5.5,0,0,1-.27-.63l3.78-10.24a.5.5,0,0,1,.64-.3c8.17,3,16.18-1.25,16.26-1.3a.5.5,0,0,1,.5,0,.51.51,0,0,1,.23.45c0,.2-.35,5.12-7.2,10A15.09,15.09,0,0,1,262.13,120.4Zm-4.23-1.65a14.27,14.27,0,0,0,12.52-2c4.74-3.37,6.18-6.77,6.61-8.34-2.35,1-8.82,3.36-15.69,1.08Z"
      fill="#231f20"></path>
    <path d="M272.74,78s-8.89,9.1-7.57,11.21S271.33,91,271.33,91" fill="#fff"></path>
    <path
      d="M270.61,91.5c-1.5,0-4.74-.22-5.87-2-1.41-2.27,5.49-9.62,7.64-11.82a.51.51,0,0,1,.71,0,.5.5,0,0,1,0,.71c-4.15,4.24-8.2,9.5-7.51,10.6,1,1.52,4.44,1.63,5.71,1.54a.49.49,0,0,1,.53.47.5.5,0,0,1-.46.53C271.32,91.48,271,91.5,270.61,91.5Z"
      fill="#231f20"></path>
    <ellipse cx="279.35" cy="78.15" rx="2.46" ry="1.75" transform="translate(132.22 328.15) rotate(-75.15)"
             fill="#231f20"></ellipse>
    <ellipse cx="260.36" cy="74.57" rx="2.46" ry="1.75" transform="translate(120.35 306.4) rotate(-74.85)"
             fill="#231f20"></ellipse>
    <path
      d="M265.91,105.31a9.36,9.36,0,0,1-1.18-.08,6.26,6.26,0,0,1-4.6-2.69c-2.35-4-.17-9.68-.07-9.92a.49.49,0,0,1,.56-.31c15.59,3.09,15.7,3.29,15.85,3.53a.5.5,0,0,1,0,.41h0a15.38,15.38,0,0,1-3.72,6.13A10,10,0,0,1,265.91,105.31Zm-5.06-11.93c-.43,1.31-1.63,5.63.13,8.62a5.26,5.26,0,0,0,3.89,2.24,8.81,8.81,0,0,0,7.22-2.57,14,14,0,0,0,3.3-5.26C273.52,95.93,266.1,94.42,260.85,93.38ZM276,96.1h0Zm0,0h0Z"
      fill="#231f20"></path>
    <path d="M272.44,102c-4.35,4.19-10.19,3.1-11.88.25,1.41-1.72,3.32-3.29,5.55-3.2A10.15,10.15,0,0,1,272.44,102Z"
          fill="#231f20"></path>
    <path
      d="M265.91,105.31a9.36,9.36,0,0,1-1.18-.08,6.29,6.29,0,0,1-4.6-2.69.5.5,0,0,1,.05-.57c1.91-2.34,3.9-3.49,5.95-3.39a10.83,10.83,0,0,1,6.65,3.09.48.48,0,0,1,.16.36.55.55,0,0,1-.15.36A10,10,0,0,1,265.91,105.31Zm-4.73-3a5.52,5.52,0,0,0,3.69,1.92A8.68,8.68,0,0,0,271.7,102a9.56,9.56,0,0,0-5.61-2.45C264.46,99.52,262.81,100.43,261.18,102.32Z"
      fill="#231f20"></path>
    <path
      d="M266.5,82.11a3.21,3.21,0,0,1-.68-.07h0l-13.47-2.67a3.5,3.5,0,0,1-2.75-4.12l1.14-5.76a3.51,3.51,0,0,1,4.12-2.76l13.47,2.67a3.51,3.51,0,0,1,2.76,4.12l-1.15,5.76A3.51,3.51,0,0,1,266.5,82.11ZM266,81a2.47,2.47,0,0,0,2.91-2l1.14-5.76a2.47,2.47,0,0,0-1.94-2.91l-13.47-2.67a2.48,2.48,0,0,0-2.91,2l-1.14,5.76a2.47,2.47,0,0,0,1.95,2.91L266,81Z"
      fill="#231f20"></path>
    <path
      d="M290.51,86.87a3.21,3.21,0,0,1-.68-.07h0l-13.47-2.67A3.52,3.52,0,0,1,273.6,80l1.15-5.76a3.5,3.5,0,0,1,4.12-2.76l13.47,2.67a3.48,3.48,0,0,1,2.23,1.49,3.45,3.45,0,0,1,.52,2.63L294,84A3.51,3.51,0,0,1,290.51,86.87ZM290,85.79a2.48,2.48,0,0,0,2.91-2l1.14-5.76a2.45,2.45,0,0,0-.37-1.86,2.48,2.48,0,0,0-1.57-1L278.67,72.5a2.47,2.47,0,0,0-2.91,2l-1.14,5.76a2.47,2.47,0,0,0,1.94,2.91L290,85.79Z"
      fill="#231f20"></path>
    <path
      d="M275.25,74.86a.51.51,0,0,1-.36-.15c-2.14-2.17-3.93-.93-4-.87a.52.52,0,0,1-.61-.83s2.57-1.85,5.35,1a.52.52,0,0,1,0,.73A.59.59,0,0,1,275.25,74.86Z"
      fill="#231f20"></path>
    <path
      d="M280.53,148.23a.51.51,0,0,1-.39-.18.52.52,0,0,1,.05-.73c15.21-13,44.78-15.58,45.08-15.61a.53.53,0,0,1,.56.47.52.52,0,0,1-.48.56c-.29,0-29.54,2.57-44.48,15.36A.5.5,0,0,1,280.53,148.23Z"
      fill="#231f20"></path>
    <path
      d="M247.23,138.09a.48.48,0,0,1-.38-.17c-15.36-17.06-9.25-37.4-9.18-37.6a.51.51,0,0,1,1,.3c-.06.2-6,20,9,36.61a.52.52,0,0,1,0,.73A.51.51,0,0,1,247.23,138.09Z"
      fill="#231f20"></path>
    <path
      d="M301.25,180.63a.5.5,0,0,1-.23,0,.53.53,0,0,1-.23-.69c0-.07,3.81-7.66,14.59-30a.51.51,0,1,1,.93.44c-10.79,22.37-14.56,30-14.59,30A.52.52,0,0,1,301.25,180.63Z"
      fill="#231f20"></path>
    <path
      d="M215.49,176.09l-.14,0a.51.51,0,0,1-.36-.63l12-45.27a.52.52,0,0,1,1,.27l-12,45.27A.51.51,0,0,1,215.49,176.09Z"
      fill="#231f20"></path>
    <path d="M228.48,192.62s5.45-17,4.9-18.31S227.26,171,226,172.7s-2.76,13.84-2.76,13.84Z" fill="#231f20"></path>
    <path
      d="M228.48,193.12a.52.52,0,0,1-.38-.17l-5.22-6.09a.51.51,0,0,1-.12-.38c.16-1.26,1.58-12.35,2.86-14.08.52-.7,1.57-1,3-.79,2.06.26,4.71,1.39,5.17,2.51.57,1.39-3.59,14.63-4.88,18.66a.49.49,0,0,1-.38.33Zm-4.7-6.74,4.5,5.24c2.46-7.75,4.86-16.17,4.63-17.14-.22-.53-2.31-1.62-4.37-1.87-1.06-.14-1.83,0-2.12.39C225.58,174.13,224.4,181.54,223.78,186.38Z"
      fill="#231f20"></path>
    <path
      d="M151,185.06l-.49-7.05s9.36-1.86,13-5.77l-.18-2.55,21.78-1.54a19.58,19.58,0,0,0,8.76,3c4.66.25,12.56-.55,17.1,1.45,1.57.7,21.68,18.13,26.53,22.35a3.63,3.63,0,0,1,1.22,2.3l1.17,10L172,190.57Z"
      fill="#fff"></path>
    <path
      d="M239.89,207.8l-.12,0-67.88-16.72-21-5.52a.5.5,0,0,1-.37-.44L150,178a.48.48,0,0,1,.4-.52c.09,0,9-1.83,12.57-5.46l-.17-2.34a.52.52,0,0,1,.12-.36.51.51,0,0,1,.35-.17l21.78-1.53a.48.48,0,0,1,.31.08,19.17,19.17,0,0,0,8.5,2.95c1.25.07,2.76.06,4.35.05,4.46,0,9.52-.06,12.93,1.44,1.57.7,19.17,15.92,26.66,22.44a4.1,4.1,0,0,1,1.38,2.62l1.18,10a.48.48,0,0,1-.17.43A.51.51,0,0,1,239.89,207.8Zm-88.4-23.13,20.65,5.42,67.17,16.55-1.09-9.29a3.08,3.08,0,0,0-1.05-2c-11.44-10-25.22-21.75-26.41-22.27-3.2-1.42-8.15-1.39-12.51-1.36-1.61,0-3.13,0-4.41-.05a19.93,19.93,0,0,1-8.86-3l-21.11,1.48.14,2.06a.5.5,0,0,1-.13.37c-3.28,3.54-10.91,5.4-12.83,5.83Z"
      fill="#231f20"></path>
    <path
      d="M239.89,207.3s-27.54-25.55-30.4-27.34-14.41.26-18-1a26.93,26.93,0,0,1-6.46-3.4l-21.11,2.11a2.93,2.93,0,0,1-.37,2.82c-1,1.44-6.48,2.85-12.55,4.55l31.78,25.63Z"
      fill="#231f20"></path>
    <path
      d="M182.8,211.19a.52.52,0,0,1-.32-.11l-31.77-25.63a.49.49,0,0,1-.18-.49.51.51,0,0,1,.36-.38l1.65-.46c5-1.41,9.8-2.74,10.63-3.9a2.42,2.42,0,0,0,.31-2.32.5.5,0,0,1,0-.46.48.48,0,0,1,.39-.25L185,175.08a.53.53,0,0,1,.35.1,26.88,26.88,0,0,0,6.33,3.33c1.55.54,4.92.41,8.18.29,4.23-.17,8.22-.31,9.9.73,2.86,1.8,29.35,26.35,30.47,27.4a.5.5,0,0,1-.31.86l-57.09,3.4Zm-30.71-25.91L183,210.18l55.73-3.31c-4.68-4.34-27-24.92-29.46-26.49-1.42-.88-5.62-.72-9.33-.58-3.51.13-6.82.25-8.55-.35a27.68,27.68,0,0,1-6.44-3.35l-20.33,2a3.45,3.45,0,0,1-.6,2.68c-1,1.38-4.88,2.53-11.17,4.28Z"
      fill="#231f20"></path>
    <path
      d="M161.13,177.76a.52.52,0,0,1-.42-.22l-8.15-12.16a.51.51,0,0,1,0-.48.49.49,0,0,1,.39-.29l26-3.48a.5.5,0,0,1,.37.1l17.17,13.18a.5.5,0,1,1-.6.79l-17-13-24.95,3.35,7.7,11.48a.5.5,0,0,1-.13.7A.6.6,0,0,1,161.13,177.76Z"
      fill="#231f20"></path>
    <path
      d="M203.37,174.79a.5.5,0,0,1-.33-.12L148.65,125.8a.5.5,0,0,1,0-.71.51.51,0,0,1,.71,0l54.39,48.87a.5.5,0,0,1,0,.71A.49.49,0,0,1,203.37,174.79Z"
      fill="#231f20"></path>
    <path
      d="M157.59,179.38a.51.51,0,0,1-.32-.12L118,146.37a.51.51,0,0,1-.06-.71.49.49,0,0,1,.7-.06l39.29,32.89a.51.51,0,0,1,.07.71A.5.5,0,0,1,157.59,179.38Z"
      fill="#231f20"></path>
    <line x1="163.51" y1="172.24" x2="163.94" y2="177.69" fill="#fff"></line>
    <path
      d="M163.93,178.19a.5.5,0,0,1-.49-.47l-.43-5.44a.5.5,0,0,1,.46-.53.48.48,0,0,1,.54.45l.42,5.45a.49.49,0,0,1-.46.53Z"
      fill="#231f20"></path>
    <line x1="185.11" y1="168.15" x2="185.05" y2="175.58" fill="#fff"></line>
    <path
      d="M185.05,176.08h0a.5.5,0,0,1-.5-.5l.06-7.43a.51.51,0,0,1,.5-.49h0a.49.49,0,0,1,.49.5l-.06,7.42A.5.5,0,0,1,185.05,176.08Z"
      fill="#231f20"></path>
    <path
      d="M161.94,187.41c.66-.51,1.81-.86,2.17-.11a1.47,1.47,0,0,1-.06,1,39.59,39.59,0,0,1-2.78,6.78,6.68,6.68,0,0,1,4.82-4.57,2.14,2.14,0,0,1,1.79.21,2.29,2.29,0,0,1,.49,2.29,11,11,0,0,1-3.21,5.85,8.34,8.34,0,0,1,6.53-3.8,6.38,6.38,0,0,1-2.25,6.65,10.06,10.06,0,0,1,3.61-2.72,3.53,3.53,0,0,1,4.11,1c1,1.56.08,2.84-.08,4.39a4.64,4.64,0,0,0,1.07,3.8,36.25,36.25,0,0,1-8,1.92c-5.79.58-9.12-3.47-11.22-8.44C156.64,196.21,156.9,191.28,161.94,187.41Z"
      fill="#fff"></path>
    <path
      d="M169.12,210.71c-4.58,0-8.15-3-10.61-8.8-2.68-6.35-1.66-11.22,3.13-14.9h0a2.76,2.76,0,0,1,2.09-.6,1.19,1.19,0,0,1,.83.68,1.9,1.9,0,0,1,0,1.39c-.27.88-.57,1.74-.9,2.6a7.08,7.08,0,0,1,2.35-1,2.58,2.58,0,0,1,2.21.3,2.69,2.69,0,0,1,.67,2.79,10.91,10.91,0,0,1-.77,2.43,8.74,8.74,0,0,1,3.57-1,.48.48,0,0,1,.51.37,6.72,6.72,0,0,1-.13,4,5.28,5.28,0,0,1,.84-.38,4,4,0,0,1,4.69,1.22,3.85,3.85,0,0,1,.27,3.46,7.71,7.71,0,0,0-.26,1.25,4.2,4.2,0,0,0,1,3.47.49.49,0,0,1,.06.44.48.48,0,0,1-.31.31,35.79,35.79,0,0,1-8.07,2A10.65,10.65,0,0,1,169.12,210.71Zm-6.87-22.91c-4.44,3.41-5.33,7.77-2.82,13.72s6,8.6,10.72,8.14a34.42,34.42,0,0,0,7.23-1.7,4.75,4.75,0,0,1-.79-3.58,9.63,9.63,0,0,1,.28-1.4,2.93,2.93,0,0,0-.13-2.67,3,3,0,0,0-3.52-.82,7.24,7.24,0,0,0-2.31,1.5,6.37,6.37,0,0,1-1.17,1.15.5.5,0,0,1-.66-.75c.34-.35.7-.71,1.08-1.06a6,6,0,0,0,1.14-4.71,7.86,7.86,0,0,0-4.31,1.9,11.72,11.72,0,0,1-1.49,1.73.5.5,0,0,1-.66,0,.5.5,0,0,1-.11-.65,8.53,8.53,0,0,1,1.51-1.77,10.51,10.51,0,0,0,1.64-3.9c.1-.51.19-1.42-.31-1.81a1.62,1.62,0,0,0-1.37-.11,6.14,6.14,0,0,0-3.55,2.4c-.29.64-.6,1.28-.93,1.91a.5.5,0,0,1-.93-.37,6.92,6.92,0,0,1,1-2.08,41.78,41.78,0,0,0,1.78-4.71,1.09,1.09,0,0,0,.07-.67.21.21,0,0,0-.16-.13,1.83,1.83,0,0,0-1.24.42Z"
      fill="#231f20"></path>
    <path
      d="M334.21,185.19s-21,73.11-53.9,44.85c-33.08-28.44-35.47-42-34.81-42.31,0,0-6-.77-9.93-1.63,0,0,1.37.25-1.17,2.68s-8.6-6.3-8.13-9.28,2.23-3.78,2.23-3.78a5.71,5.71,0,0,0-4.1,2.93c-1.26,2.57-3.68-1.65-2.71-3.51s6.28-8.52,10.56-8.06,16.58,6.39,17.27,6.6,39.56,29.43,39.56,29.43l12.17-23"
      fill="#fff"></path>
    <path
      d="M295.33,237c-5.08,0-10.22-2.21-15.34-6.61-29.26-25.15-35-39.11-35.08-42.27-1.4-.18-5.37-.73-8.49-1.36a5.11,5.11,0,0,1-1.68,2.35,2.26,2.26,0,0,1-2.84.15c-2.92-1.52-6.52-7.33-6.12-9.87a7.11,7.11,0,0,1,.84-2.46,4.59,4.59,0,0,0-1.77,1.91,1.64,1.64,0,0,1-1.34,1.09,2.08,2.08,0,0,1-1.74-1.17,4.26,4.26,0,0,1-.52-3.89c1-1.83,6.38-8.82,11.05-8.31,3.45.37,11.66,4.06,15.61,5.84.87.39,1.62.73,1.76.77.69.21,27.29,20.17,39.24,29.16l11.9-22.48a.5.5,0,0,1,.68-.2.5.5,0,0,1,.21.67l-12.18,23a.51.51,0,0,1-.33.26.51.51,0,0,1-.41-.09c-10.6-8-38.35-28.78-39.46-29.38-.11,0-.61-.25-1.82-.79-3.6-1.62-12-5.4-15.3-5.76-3.9-.42-9,5.83-10.06,7.79a3.33,3.33,0,0,0,.47,2.88c.32.5.64.69.84.71s.34-.21.5-.53a6.13,6.13,0,0,1,4.49-3.2.48.48,0,0,1,.54.36.51.51,0,0,1-.27.59c-.06,0-1.52.76-1.94,3.4-.31,2,2.87,7.4,5.59,8.83,1.1.57,1.55.15,1.69,0,1.26-1.21,1.38-1.71,1.39-1.83a.5.5,0,0,1,.22-1h.05c3.84.84,9.79,1.6,9.85,1.61a.5.5,0,0,1,.43.43.48.48,0,0,1-.08.35c-.24,1.89,4.59,15.74,34.73,41.65,6.58,5.66,13.16,7.56,19.55,5.65,10.75-3.21,19.29-16.67,24.56-27.39a157.62,157.62,0,0,0,9-22.86.5.5,0,1,1,1,.27,158.1,158.1,0,0,1-9,23c-7.79,15.87-16.26,25.27-25.17,27.93A18,18,0,0,1,295.33,237ZM245.7,188.18Zm0,0Z"
      fill="#231f20"></path>
    <rect x="131.58" y="85.11" width="17.87" height="18.41" rx="3.08" transform="translate(-12.52 22.07) rotate(-8.6)"
          fill="#32529d"></rect>
    <path
      d="M135.64,104.83a3.59,3.59,0,0,1-3.54-3l-1.83-12.11a3.59,3.59,0,0,1,3-4.08h0l11.58-1.75a3.59,3.59,0,0,1,4.08,3L150.77,99a3.59,3.59,0,0,1-3,4.08l-11.58,1.75A3.27,3.27,0,0,1,135.64,104.83Zm-2.21-18.24a2.59,2.59,0,0,0-2.17,2.94l1.83,12.11a2.59,2.59,0,0,0,1,1.69,2.52,2.52,0,0,0,1.92.47l11.57-1.75a2.59,2.59,0,0,0,2.17-2.94L148,87A2.59,2.59,0,0,0,145,84.84Z"
      fill="#231f20"></path>
    <circle cx="140.52" cy="94.32" r="4.98" fill="#fff"></circle>
    <path
      d="M140.52,99.81a5.5,5.5,0,0,1-5.42-4.67h0a5.48,5.48,0,1,1,6.24,4.6A4.62,4.62,0,0,1,140.52,99.81ZM136.09,95a4.49,4.49,0,1,0,7.09-4.28A4.48,4.48,0,0,0,136.09,95Z"
      fill="#231f20"></path>
    <path
      d="M144.16,93.76a3.68,3.68,0,1,1-7.28,1.1,2.22,2.22,0,0,1,0-.44,2.59,2.59,0,0,0,1.51.22,2.67,2.67,0,0,0,2.25-3,2.51,2.51,0,0,0-.33-.94A3.67,3.67,0,0,1,144.16,93.76Z"
      fill="#d1d3d4"></path>
    <path
      d="M78.22,53H86a1.88,1.88,0,0,1,1.88,1.88v8.8a0,0,0,0,1,0,0H76.33a0,0,0,0,1,0,0v-8.8A1.88,1.88,0,0,1,78.22,53Z"
      transform="translate(-7.8 12.93) rotate(-8.6)" fill="#231f20"></path>
    <path
      d="M77.2,65a.54.54,0,0,1-.3-.1.5.5,0,0,1-.2-.33l-1.31-8.7a2.38,2.38,0,0,1,2-2.72L85.12,52a2.38,2.38,0,0,1,2.71,2l1.32,8.71a.49.49,0,0,1-.1.37.46.46,0,0,1-.32.2L77.27,65Zm8.28-12h-.21l-7.73,1.17h0a1.38,1.38,0,0,0-.91.55,1.4,1.4,0,0,0-.26,1L77.62,64l10.46-1.58-1.24-8.21A1.39,1.39,0,0,0,85.48,53Zm-8,.69h0Z"
      fill="#231f20"></path>
    <path
      d="M79.22,46.41h3.25a1.37,1.37,0,0,1,1.37,1.37v5.34a0,0,0,0,1,0,0h-6a0,0,0,0,1,0,0V47.78A1.37,1.37,0,0,1,79.22,46.41Z"
      transform="translate(-6.53 12.65) rotate(-8.6)" fill="#231f20"></path>
    <path
      d="M78.38,54a.5.5,0,0,1-.49-.43l-.8-5.27a1.86,1.86,0,0,1,1.57-2.13h0l3.21-.49A1.87,1.87,0,0,1,84,47.28l.8,5.28a.5.5,0,0,1-.1.37.48.48,0,0,1-.32.2L78.46,54Zm.43-6.84a.83.83,0,0,0-.57.34.84.84,0,0,0-.16.65L78.8,53l4.93-.75L83,47.43a.88.88,0,0,0-1-.73Z"
      fill="#231f20"></path>
    <path
      d="M180.44,37.28H192a0,0,0,0,1,0,0v8.8A1.88,1.88,0,0,1,190.14,48h-7.82a1.88,1.88,0,0,1-1.88-1.88v-8.8a0,0,0,0,1,0,0Z"
      transform="translate(376.75 56.93) rotate(171.4)" fill="#231f20"></path>
    <path
      d="M181.3,49.28a.51.51,0,0,1-.29-.1.5.5,0,0,1-.2-.33l-1.32-8.7a2.39,2.39,0,0,1,2-2.72l7.74-1.17h0a2.38,2.38,0,0,1,2.71,2L193.26,47a.5.5,0,0,1-.1.37.48.48,0,0,1-.32.2l-11.46,1.73Zm8.08-12-7.74,1.17A1.4,1.4,0,0,0,180.48,40l1.24,8.21,10.47-1.59L191,38.41a1.39,1.39,0,0,0-1.57-1.16Z"
      fill="#231f20"></path>
    <path
      d="M181.92,30.67h6a0,0,0,0,1,0,0V36a1.37,1.37,0,0,1-1.37,1.37H183.3A1.37,1.37,0,0,1,181.92,36V30.67a0,0,0,0,1,0,0Z"
      transform="translate(372.85 40.03) rotate(171.4)" fill="#231f20"></path>
    <path
      d="M182.46,38.29a.47.47,0,0,1-.3-.1.48.48,0,0,1-.19-.32l-.8-5.28a1.87,1.87,0,0,1,1.57-2.13L186,30a1.87,1.87,0,0,1,2.13,1.56l.79,5.28a.49.49,0,0,1-.41.57l-5.93.9ZM186.23,31h-.13l-3.21.49a.86.86,0,0,0-.73,1l.72,4.78,4.93-.74-.72-4.78A.88.88,0,0,0,186.23,31Zm-.21-.48h0Z"
      fill="#231f20"></path>
    <rect x="132.15" y="79.8" width="13.07" height="1.98" transform="translate(-10.52 21.64) rotate(-8.6)"
          fill="#d1d3d4"></rect>
    <path
      d="M132.37,83.25a.54.54,0,0,1-.3-.1.5.5,0,0,1-.2-.33l-.29-1.95a.49.49,0,0,1,.42-.57l12.92-2a.5.5,0,0,1,.37.1.46.46,0,0,1,.2.32l.29,2a.5.5,0,0,1-.42.57l-12.92,1.95Zm.27-2,.15,1,11.93-1.81-.15-1Z"
      fill="#231f20"></path>
    <rect x="126.11" y="80.07" width="6.15" height="4.49" rx="0.95" transform="translate(-10.86 20.24) rotate(-8.6)"
          fill="#d1d3d4"></rect>
    <path
      d="M127.29,85.37a1.46,1.46,0,0,1-1.44-1.24l-.39-2.55a1.47,1.47,0,0,1,1.22-1.66l4.2-.63a1.45,1.45,0,0,1,1.08.26,1.42,1.42,0,0,1,.57,1l.39,2.55a1.45,1.45,0,0,1-1.22,1.65h0l-4.2.64Zm3.81-5.1H131l-4.2.64a.47.47,0,0,0-.3.18.46.46,0,0,0-.08.34l.39,2.55a.45.45,0,0,0,.51.38l4.2-.63a.45.45,0,0,0,.38-.52l-.39-2.55a.42.42,0,0,0-.18-.3A.41.41,0,0,0,131.1,80.27Zm.52,4h0Z"
      fill="#231f20"></path>
    <rect x="134.76" y="74.83" width="7.54" height="10.42" transform="translate(-10.41 21.61) rotate(-8.6)"
          fill="#fff"></rect>
    <path
      d="M135.58,86.26a.51.51,0,0,1-.5-.43l-1.55-10.3a.49.49,0,0,1,.09-.37.48.48,0,0,1,.32-.2l7.46-1.13a.5.5,0,0,1,.57.42l1.56,10.3a.51.51,0,0,1-.09.38.53.53,0,0,1-.33.19l-7.46,1.13Zm-1-10.38L136,85.19l6.47-1-1.41-9.31Z"
      fill="#231f20"></path>
    <path
      d="M112.05,68a56.59,56.59,0,0,0-1.7,18.15c.65,8.4,3,23.78,3.59,28a1.09,1.09,0,0,0,1.24.91l1.84-.27a1.09,1.09,0,0,0,.92-1.24c-.54-3.65-2.21-15.85-2.09-24.66.14-10.47,3.4-13,4.6-15.77s1-7.79,1-7.79Z"
      fill="#231f20"></path>
    <path
      d="M115,115.52a1.61,1.61,0,0,1-1.58-1.36c-.68-4.45-3-19.64-3.59-28a57.22,57.22,0,0,1,1.73-18.33.45.45,0,0,1,.34-.34l9.4-2.7a.5.5,0,0,1,.43.08.49.49,0,0,1,.21.38c0,.21.19,5.11-1,8a16,16,0,0,1-1.07,2c-1.43,2.36-3.38,5.59-3.49,13.62-.12,8.78,1.56,21,2.08,24.58a1.59,1.59,0,0,1-1.34,1.8l-1.83.28Zm-2.56-47.15a56.61,56.61,0,0,0-1.61,17.71c.64,8.33,2.9,23.49,3.58,27.93a.6.6,0,0,0,.68.5l1.83-.28a.58.58,0,0,0,.5-.67c-.52-3.56-2.22-15.88-2.09-24.73.11-8.3,2.15-11.67,3.63-14.13a15.94,15.94,0,0,0,1-1.84c.9-2.1,1-5.52,1-6.93Z"
      fill="#231f20"></path>
    <path d="M78.08,51.54S75,53.82,67.88,55s-27.4,1.41-28.95,1.22-3-.82-2.58-1.06,21.22-5.43,30.34-6.39,11,0,11,0Z"
          fill="#fff"></path>
    <path
      d="M41.42,56.73c-1.37,0-2.29,0-2.55,0,0,0-2.86-.38-3.07-1.34a.58.58,0,0,1,.29-.64c.62-.39,21.56-5.53,30.55-6.47s11,0,11.25.08a.5.5,0,0,1,.26.37l.42,2.78a.5.5,0,0,1-.19.48c-.13.1-3.29,2.37-10.42,3.51C62.08,56.39,47.42,56.73,41.42,56.73Zm-4-1.4a8.4,8.4,0,0,0,1.59.36c1.39.17,21.64-.08,28.8-1.23,5.78-.92,8.88-2.63,9.74-3.17l-.33-2.16c-.7-.19-3.32-.65-10.46.1C58.73,50.07,41.5,54.22,37.41,55.33Z"
      fill="#231f20"></path>
    <path
      d="M84,50.64s3.64,1.27,10.76.25,26.59-6.74,28-7.38,2.59-1.67,2.15-1.78S103,42.81,94.05,44.59s-10.47,3.27-10.47,3.27Z"
      fill="#fff"></path>
    <path
      d="M89.49,51.79a18.4,18.4,0,0,1-5.65-.68.47.47,0,0,1-.33-.39l-.43-2.79a.51.51,0,0,1,.14-.42c.17-.17,1.84-1.64,10.73-3.41s30.39-3.05,31.1-2.85a.58.58,0,0,1,.46.53C125.6,42.75,123,44,123,44c-1.29.59-20.9,6.39-28.14,7.43A38.65,38.65,0,0,1,89.49,51.79Zm-5-1.54a27.11,27.11,0,0,0,10.24.15c7.18-1,26.59-6.77,27.87-7.35a7.75,7.75,0,0,0,1.42-.82c-4.08.15-21.89,1.28-29.84,2.85-7,1.4-9.39,2.61-10,3Z"
      fill="#231f20"></path>
    <path
      d="M160.48,60.64a56.63,56.63,0,0,1,7,16.84c1.86,8.22,4.21,23.59,4.84,27.78a1.09,1.09,0,0,1-.92,1.24l-1.84.28a1.09,1.09,0,0,1-1.24-.91c-.57-3.64-2.57-15.79-5.29-24.17C159.8,71.74,156,70.32,154,68s-3.26-7.14-3.26-7.14Z"
      fill="#231f20"></path>
    <path
      d="M169.4,107.29a1.61,1.61,0,0,1-1.58-1.34c-.55-3.54-2.56-15.74-5.27-24.1-2.47-7.63-5.3-10.14-7.36-12a16,16,0,0,1-1.61-1.56c-2-2.39-3.31-7.13-3.36-7.33a.5.5,0,0,1,.47-.63l9.78-.21a.51.51,0,0,1,.43.23,57.37,57.37,0,0,1,7.07,17c1.85,8.18,4.17,23.36,4.84,27.82a1.6,1.6,0,0,1-1.34,1.81l-1.83.27A1,1,0,0,1,169.4,107.29Zm-18-45.95c.41,1.35,1.5,4.59,3,6.33a19.5,19.5,0,0,0,1.51,1.46c2.15,1.91,5.09,4.52,7.65,12.41,2.74,8.43,4.76,20.7,5.31,24.25a.62.62,0,0,0,.68.5l1.83-.28a.59.59,0,0,0,.5-.67c-.66-4.45-3-19.6-4.83-27.75a56.78,56.78,0,0,0-6.78-16.44Z"
      fill="#231f20"></path>
    <path
      d="M193.72,45.57c-3.21.45-11.32,1.59-14.14,2-3.55.54-15.34-.39-21.83-.78-9.26-.57-38.5,3.85-47.18,7.13C104.49,56.23,93.5,60.6,90,61.14c-2.83.42-10.91,1.73-14.11,2.25a1.36,1.36,0,0,0-1.12,1.55l.38,2.51a1.35,1.35,0,0,0,1.46,1.15c3.06-.27,10.9-1,15.26-1.66,5.51-.83,11.73,1.86,15.12,2.62s14.41-1.36,14.41-1.36l4.53,6.69a4.08,4.08,0,0,0,4,1.74L146,74.18a4.08,4.08,0,0,0,3.29-2.84l2.34-7.73s11.17-1.23,14.18-3,8.16-6.14,13.66-7c4.37-.66,12.07-2.28,15.08-2.92a1.37,1.37,0,0,0,1-1.54l-.38-2.51A1.35,1.35,0,0,0,193.72,45.57Z"
      fill="#fff"></path>
    <path
      d="M129.26,77.17a4.58,4.58,0,0,1-3.79-2l-4.35-6.42c-1.88.35-11.14,2-14.29,1.3-.85-.19-1.84-.49-3-.84-3.33-1-7.9-2.39-11.94-1.78-4.37.66-12.15,1.39-15.29,1.67a1.87,1.87,0,0,1-2-1.58L74.22,65a1.86,1.86,0,0,1,1.54-2.11c3.3-.54,11.28-1.83,14.11-2.26s11.18-3.6,17.21-5.91l3.31-1.27c8.79-3.32,38-7.74,47.39-7.16l3.55.23c6.44.42,15.26,1,18.18.56s10.81-1.55,14.14-2h0a1.87,1.87,0,0,1,2.1,1.57l.38,2.51a1.87,1.87,0,0,1-1.45,2.1c-3.09.66-10.74,2.27-15.1,2.92-4.05.62-8,3.29-10.88,5.23-1,.67-1.86,1.25-2.61,1.68-2.81,1.62-12.13,2.77-14,3l-2.25,7.42a4.59,4.59,0,0,1-3.69,3.19l-16.18,2.44A3.78,3.78,0,0,1,129.26,77.17Zm-7.91-9.47a.51.51,0,0,1,.42.22l4.53,6.69a3.6,3.6,0,0,0,3.49,1.53L146,73.69a3.58,3.58,0,0,0,2.88-2.49l2.35-7.73a.48.48,0,0,1,.42-.35c.11,0,11.1-1.25,14-2.9.72-.42,1.57-1,2.55-1.65,3-2,7-4.74,11.29-5.38s12-2.26,15-2.92a.86.86,0,0,0,.67-1l-.38-2.51a.86.86,0,0,0-1-.73h0c-3.32.47-11.36,1.6-14.14,2-3,.45-11.54-.11-18.38-.56l-3.55-.23c-9.3-.57-38.27,3.82-47,7.11l-3.3,1.26c-6.41,2.46-14.39,5.51-17.42,6-2.82.43-10.8,1.72-14.1,2.25a.87.87,0,0,0-.71,1l.38,2.51a.86.86,0,0,0,.93.73c3.13-.28,10.89-1,15.23-1.66s9,.78,12.38,1.81c1.13.34,2.1.64,2.92.82,3.24.73,14.1-1.34,14.21-1.36Zm72.37-22.13h0Z"
      fill="#231f20"></path>
    <path
      d="M188.08,34.9s3.64,1.27,10.76.25,26.59-6.74,28-7.38S229.44,26.11,229,26s-21.88,1.08-30.87,2.87-10.47,3.26-10.47,3.26Z"
      fill="#fff"></path>
    <path
      d="M193.57,36.05a19,19,0,0,1-5.65-.67.53.53,0,0,1-.34-.4l-.42-2.78a.52.52,0,0,1,.14-.43c.17-.16,1.84-1.64,10.73-3.4s30.38-3.06,31.1-2.86a.59.59,0,0,1,.46.53c.09,1-2.51,2.17-2.54,2.19-1.29.58-20.91,6.39-28.14,7.42A38.65,38.65,0,0,1,193.57,36.05Zm-5-1.54c1,.26,4.44,1,10.24.15,7.17-1,26.59-6.77,27.87-7.35a7.75,7.75,0,0,0,1.42-.82c-4.08.15-21.89,1.28-29.84,2.86-7,1.39-9.39,2.6-10,3Z"
      fill="#231f20"></path>
    <path d="M182.16,35.8s-3.11,2.29-10.2,3.42-27.4,1.42-29,1.23-3-.83-2.58-1.07S161.65,34,170.77,33s11,0,11,0Z"
          fill="#fff"></path>
    <path
      d="M145.5,41c-1.37,0-2.29,0-2.55-.05,0,0-2.86-.38-3.07-1.33a.58.58,0,0,1,.29-.65c.62-.39,21.56-5.52,30.55-6.46s11.05,0,11.25.07a.5.5,0,0,1,.26.37l.42,2.78a.51.51,0,0,1-.19.48c-.14.1-3.29,2.37-10.42,3.51C166.16,40.65,151.5,41,145.5,41Zm-4-1.4a8.4,8.4,0,0,0,1.59.36c1.39.17,21.64-.08,28.8-1.23a27,27,0,0,0,9.74-3.16l-.33-2.17c-.71-.19-3.32-.65-10.46.1C162.81,34.33,145.58,38.49,141.49,39.59Z"
      fill="#231f20"></path>
    <path
      d="M99.34,66.2a.56.56,0,0,1-.54-.41.56.56,0,0,1,.38-.68,320.19,320.19,0,0,1,36.2-7.79A264.52,264.52,0,0,1,170,54.4a.56.56,0,0,1,.56.56.55.55,0,0,1-.56.55h0a255.26,255.26,0,0,0-34.43,2.91,322.88,322.88,0,0,0-36.06,7.75A.4.4,0,0,1,99.34,66.2Z"
      fill="#d1d3d4"></path>
    <path d="M123.17,68.36a.56.56,0,0,1-.08-1.11l26.37-4a.56.56,0,1,1,.16,1.1l-26.36,4Z" fill="#d1d3d4"></path>
    <path
      d="M63.71,79.2a.52.52,0,0,1-.33-.11C56.85,74.34,60.94,67.58,61,67.51a.55.55,0,0,1,.76-.18.56.56,0,0,1,.18.77c-.15.24-3.59,6,2.11,10.1a.55.55,0,0,1-.33,1Z"
      fill="#d1d3d4"></path>
    <path
      d="M57.18,80.6a.55.55,0,0,1-.32-.1c-2-1.42-3.08-2.86-3.15-4.28A2.87,2.87,0,0,1,54.62,74a.55.55,0,1,1,.72.84,1.79,1.79,0,0,0-.52,1.35c.06,1,1,2.21,2.68,3.4a.56.56,0,0,1,.14.77A.55.55,0,0,1,57.18,80.6Z"
      fill="#d1d3d4"></path>
    <path
      d="M181,87.18a.55.55,0,0,1-.44-.21.56.56,0,0,1,.09-.78,10.64,10.64,0,0,0,3.68-7.28.57.57,0,0,1,.58-.54.56.56,0,0,1,.53.57,11.56,11.56,0,0,1-4.1,8.12A.54.54,0,0,1,181,87.18Z"
      fill="#d1d3d4"></path>
    <path
      d="M183,91.2a.56.56,0,0,1-.32-1c3.88-2.69,4.24-4.56,4.24-4.58a.58.58,0,0,1,.64-.46.55.55,0,0,1,.46.62c0,.23-.42,2.36-4.7,5.34A.63.63,0,0,1,183,91.2Z"
      fill="#d1d3d4"></path>
    <path
      d="M110.2,126a.52.52,0,0,1-.33-.11,27.72,27.72,0,0,1-6.05-6.56.55.55,0,0,1,.19-.76.55.55,0,0,1,.76.19,27.31,27.31,0,0,0,5.77,6.25.55.55,0,0,1-.34,1Z"
      fill="#d1d3d4"></path>
    <path
      d="M104.3,128.1a.51.51,0,0,1-.17,0c-3.75-1.2-5.26-5.48-5.32-5.66a.56.56,0,0,1,.35-.71.55.55,0,0,1,.7.34s1.4,3.95,4.61,5a.56.56,0,0,1-.17,1.09Z"
      fill="#d1d3d4"></path>
  </g>
</svg>
