<svg xmlns="http://www.w3.org/2000/svg" xmlns:xlink="http://www.w3.org/1999/xlink" viewBox="0 0 400 300" width="406" height="306" class="illustration styles_illustrationTablet__1DWOa"><defs><linearGradient id="linear-gradient" x1="205.98" y1="258.61" x2="235.56" y2="237.22" gradientUnits="userSpaceOnUse"><stop offset="0" stop-color="#4887ed"></stop><stop offset="1" stop-color="#0071bc"></stop></linearGradient><linearGradient id="linear-gradient-2" x1="332.96" y1="199.94" x2="349.75" y2="187.79" xlink:href="#linear-gradient"></linearGradient><linearGradient id="linear-gradient-3" x1="291.83" y1="173.01" x2="308.62" y2="160.87" xlink:href="#linear-gradient"></linearGradient></defs><title>PP</title><g id="Layer_2" data-name="Layer 2"><path d="M194.28,289.5,14.56,183.29c-5.72-3.21-10.63-8.49-5.05-11.94l180.37-104c2.71-1.68,6.82-2.78,9.57-1.18L388.11,175.7c5.72,3.32,6.75,12.6,1,15.93L218,289.34A23.9,23.9,0,0,1,194.28,289.5Z" fill="#4887ed"></path><polyline points="220.82 240.31 177.51 258.7 206.43 271.85 254 244.39 248.48 235.4" fill="url(#linear-gradient)"></polyline><polyline points="355 186.32 316.1 199.02 337.02 210.11 360.01 190.81" fill="url(#linear-gradient-2)"></polyline><path d="M158.37,204,112.42,176.8c-1.46-.82-2.72-2.17-1.29-3.05l46.11-26.58a2.59,2.59,0,0,1,2.45-.3l48.23,28c1.46.85,1.73,3.22.26,4.07l-43.76,25A6.11,6.11,0,0,1,158.37,204Z" fill="#3974c9"></path><path d="M158.37,204,112.42,176.8c-1.46-.82-2.72-2.17-1.29-3.05l46.11-26.58a2.59,2.59,0,0,1,2.45-.3l48.23,28c1.46.85,1.73,3.22.26,4.07l-43.76,25A6.11,6.11,0,0,1,158.37,204Z" fill="#3974c9" opacity="0.2"></path><path d="M109,204,63.09,176.8c-1.46-.82-2.72-2.17-1.29-3.05l46.11-26.58a2.59,2.59,0,0,1,2.45-.3l48.23,28c1.46.85,1.73,3.22.26,4.07l-43.76,25A6.11,6.11,0,0,1,109,204Z" fill="#3974c9"></path><path d="M169.27,142.89l-67-39.6c-2.13-1.2-4-3.16-1.88-4.45l67.24-38.75a3.77,3.77,0,0,1,3.57-.44l70.33,40.82c2.13,1.24,2.52,4.7.38,5.94L178.1,142.83A8.91,8.91,0,0,1,169.27,142.89Z" fill="#68e1fd"></path><path d="M169.27,142.89l-67-39.6c-2.13-1.2-4-3.16-1.88-4.45l67.24-38.75a3.77,3.77,0,0,1,3.57-.44l70.33,40.82c2.13,1.24,2.52,4.7.38,5.94L178.1,142.83A8.91,8.91,0,0,1,169.27,142.89Z" fill="#4c4c4c" opacity="0.2"></path><path d="M97.34,142.89l-67-39.6c-2.13-1.2-4-3.16-1.88-4.45L95.7,60.09a3.77,3.77,0,0,1,3.57-.44l70.33,40.82c2.13,1.24,2.52,4.7.38,5.94l-63.81,36.42A8.91,8.91,0,0,1,97.34,142.89Z" fill="#68e1fd"></path><polyline points="313.87 159.4 274.97 172.09 295.89 183.19 318.88 163.88" fill="url(#linear-gradient-3)"></polyline><path d="M318.88,163.77V122.24h-9v41.89C313,165,316.25,165.18,318.88,163.77Z" fill="#a83f1e"></path><path d="M315.28,122.36v42.53a9.1,9.1,0,0,0,3.6-1V122.36Z" fill="#7f2b14"></path><path d="M326.94,126.13c5.62-.27,12.82-2.29,10.71-8.56-1.25-3.7-5.08-7-7.53-9.9s-1.91-4.9-4.64-7.77c2.33.1,5.71-.34,6.28-2.65.5-2-10.36-14.41-15.07-19.44a3,3,0,0,0-4.08-.3c-5.6,4.46-19.9,16.32-17.9,19.74,1.2,2.06,3.64,2.78,5.82,3-5.14,5.16-11,11.6-11.6,18.47-.52,6,5.57,6.75,11.25,6.45-3.92,4.77-14.57,18.35-12.14,22.48,1.28,2.18,5.41,2.89,7.86,3.38a78,78,0,0,0,16.1,1.55,49.61,49.61,0,0,0,16-2.41,22.43,22.43,0,0,0,7.81-4.29c2.5-2.35,1.1-4.85-.52-7.21C332.48,134.49,329.71,130.31,326.94,126.13Z" fill="#52af45"></path><path d="M325.49,99.9s-6.84-.45-11.61-.32L338,119.43s.64-2.31-3.62-7A97.15,97.15,0,0,1,325.49,99.9Z" fill="#0d5b23"></path><path d="M326.94,126.13h-14l22.94,19.7a3.49,3.49,0,0,0,1-4.53C335.32,138.62,326.94,126.13,326.94,126.13Z" fill="#0d5b23"></path><path d="M360.82,190.7V162.89h-6.06v28.06A8.1,8.1,0,0,0,360.82,190.7Z" fill="#a83f1e"></path><path d="M358.41,163v28.48a6.1,6.1,0,0,0,2.41-.67V163Z" fill="#7f2b14"></path><path d="M366.22,165.49c3.77-.18,8.59-1.53,7.18-5.73-.83-2.48-3.4-4.67-5-6.63s-1.28-3.28-3.11-5.21c1.56.07,3.82-.23,4.21-1.77.34-1.35-6.94-9.65-10.09-13a2,2,0,0,0-2.73-.2c-3.75,3-13.33,10.93-12,13.22a4.77,4.77,0,0,0,3.9,2c-3.45,3.45-7.37,7.77-7.77,12.37-.34,4,3.73,4.52,7.54,4.32-2.63,3.19-9.76,12.29-8.13,15.05.86,1.46,3.63,1.94,5.26,2.26a52.27,52.27,0,0,0,10.79,1,33.22,33.22,0,0,0,10.73-1.62,15,15,0,0,0,5.23-2.88c1.67-1.57.74-3.25-.35-4.83C369.93,171.09,368.08,168.29,366.22,165.49Z" fill="#52af45"></path><path d="M365.25,147.92s-4.58-.3-7.78-.21L373.64,161s.43-1.54-2.43-4.71A65.07,65.07,0,0,1,365.25,147.92Z" fill="#0d5b23"></path><path d="M366.22,165.49h-9.41l15.36,13.2a2.34,2.34,0,0,0,.68-3C371.83,173.86,366.22,165.49,366.22,165.49Z" fill="#0d5b23"></path><path d="M229.94,93.74c-.58-.62-2.3-.47-4.59.15-.85-1.88-1.68-3.77-2.45-5.68-.24-.59-1.21-.33-1,.27.78,1.91,1.6,3.81,2.45,5.69-7.55,2.3-19.94,8.8-21,11.41-1.39,3.58,5.73,11.59,5.73,11.59l26.05-13.22S232.37,96.34,229.94,93.74Z" fill="#7f252b"></path><path d="M222.59,100.38a1.5,1.5,0,0,0,0,3A1.5,1.5,0,0,0,222.59,100.38Z" fill="#fff"></path><path d="M226.29,98.69a1.5,1.5,0,0,0,0,3A1.5,1.5,0,0,0,226.29,98.69Z" fill="#fff"></path><path d="M221,96.76l-.1.05c-.58.29-.07,1.15.5.86l.1-.05C222.07,97.33,221.57,96.47,221,96.76Z" fill="#fff"></path><path d="M222.39,96.5v0a.5.5,0,0,0,1,0v0A.5.5,0,0,0,222.39,96.5Z" fill="#fff"></path><path d="M225,95.69l-.05-.1c-.31-.57-1.17-.06-.86.5l.05.1C224.43,96.76,225.29,96.26,225,95.69Z" fill="#fff"></path><path d="M210.73,103.32a1.5,1.5,0,0,0,0,3A1.5,1.5,0,0,0,210.73,103.32Z" fill="#fff"></path><path d="M212.82,107.91a1.5,1.5,0,0,0,0,3A1.5,1.5,0,0,0,212.82,107.91Z" fill="#fff"></path><path d="M214.82,104.12a1.5,1.5,0,0,0,0,3A1.5,1.5,0,0,0,214.82,104.12Z" fill="#fff"></path><path d="M208.43,107.11a1.5,1.5,0,0,0,0,3A1.5,1.5,0,0,0,208.43,107.11Z" fill="#fff"></path><path d="M246,241.31l5-1.37-.78-6S244.79,234.8,246,241.31Z" fill="#42210b"></path><path d="M252.72,223.76s1.75,20.4,1.27,20.63-5.23.65-5.23.29-.28-9.28-.28-9.28-2.39,3.94-2.5,5.91c0,0-5.69-3.24-6.75-5.84S241.66,222,243,221.39" fill="#7f252b"></path><path d="M233.72,252l5.61-5.95-3.65-4.63S232.25,248.93,233.72,252Z" fill="#42210b"></path><path d="M242.05,228.41l2.62,24.47s-4.23,1.43-5,1.32a15.87,15.87,0,0,1-3-1.43l-.94-8.17s-2.43,2.43-2,7.39c0-.34-3.87-1.62-4.37-1.85a29,29,0,0,1-4.48-2.44c-1.49-1-7-5.59-4-7.41,2.52-1.54,10.72-.81,10.72-.81l.12-10.11" fill="#7f252b"></path><path d="M251.84,140.73a.58.58,0,0,1,.59-.71,18.82,18.82,0,0,0-2.75-6L226,131.22s-4.76,16.93-6.59,46.11c-1.42,22.62,9.68,56.26,9.68,56.26s11.49,2.91,17-2.76l-.22-4.87a58,58,0,0,0,8.54-.7C257.25,197.17,255.09,168.68,251.84,140.73Z" fill="#52af45"></path><path d="M246.74,229.52l-3-21c-.95-6.68-2.4-13.55-2.44-20.32s2.29-12.84,3.41-19.3a75.55,75.55,0,0,0,.81-18.93c-.12-1.47-2.23-1.48-2.12,0a73.46,73.46,0,0,1-1.29,21.13c-1.32,6.21-3.17,12.09-2.9,18.55s1.56,13,2.47,19.48l3,21C244.91,231.6,246.95,231,246.74,229.52Z" fill="#42210b"></path><path d="M221.82,122c-.73-.8-1.48-1.58-2.23-2.35l-.06-.09a66.13,66.13,0,0,0-6.49-6.86l-3-6.49v0a1,1,0,0,0-1.67-.3c-.79.68-.07,3.56.23,4.41s-.24-.68.11.32c.06.17.24.93.39,1a14.08,14.08,0,0,0-5.81-1.5,1.07,1.07,0,0,0-.91,1.59,3,3,0,0,0,.87.82l-.22,0c-1.4-.19-2.47.41-2.06,2a1.05,1.05,0,0,0,.19.38.89.89,0,0,0,.65.63l-.07.18a1.38,1.38,0,0,0-.54,1.14,1.56,1.56,0,0,0,1.7,1.41l.51.08c-.21,1.41,1.06,2.16,2.41,2.4,1.52.27,3,.4,4.52.66l2.83,3.55c.76,1,1.84,3.12,3.14,3.37s1.9-1.79.56-2c.28.05-.18-.27-.28-.41-.25-.33-.51-.64-.78-1a9.35,9.35,0,0,0,2.55,2.26,1.07,1.07,0,0,0,1.55-1.19,14,14,0,0,0-.89-2.35,1.15,1.15,0,0,0,.4-.61l.11.1a1.08,1.08,0,0,0,.7.24l.16.17C221.24,124.53,222.74,123,221.82,122Z" fill="#fe6162"></path><path d="M242.12,96.75s-13.66-1.24-16.88,6-1.63,17.46-1.63,17.46l-8.33-6.36s-4.1,5-4.6,8,7.78,12.24,16.09,14.3,23.34,2.66,25.7-2.36,2.53-20.13-.23-25.95S242.12,96.75,242.12,96.75Z" fill="#68e1fd"></path><path d="M230,84s-.69,10,2.36,12.34,8.12-1.51,8.12-1.51" fill="#fe6162"></path><path d="M232.51,79a9.73,9.73,0,0,0-3,4c-2.52,6.31,4.27,14.15,10.33,15.37l3.15-1s4.16-6.13,4.16-9.57a12.68,12.68,0,0,0-3.55-8.92C240.34,75.87,235.71,76.46,232.51,79Z" fill="#ffce25"></path><path d="M239.8,98.35s-11.36,32.72-2.8,38.14,25.26.48,22-7.63-16-31.5-16-31.5" fill="#ffce25"></path></g><g id="Layer_4" data-name="Layer 4"><path d="M115.17,91.14s-4.88,21-3.59,21.56,9.11-21.56,9.11-21.56Z" fill="#f2f2f2"></path><ellipse cx="111.36" cy="111.81" rx="1.5" ry="1.14" fill="#f2f2f2"></ellipse><path d="M133.45,91s4.88,21,3.59,21.56S127.93,91,127.93,91Z" fill="#f2f2f2"></path><ellipse cx="137.26" cy="111.69" rx="1.5" ry="1.14" fill="#f2f2f2"></ellipse><ellipse cx="165.26" cy="60.57" rx="6.7" ry="3.65" fill="#4e5462"></ellipse><polyline points="158.56 61.05 158.56 45.8 171.65 45.8 171.65 59.95" fill="#4e5462"></polyline><ellipse cx="165.1" cy="45.79" rx="6.7" ry="3.65" fill="#fe9a2a"></ellipse><path d="M164.79,44.35s6.8.89,9.92,1.71S187.41,56.31,187,57s-2.67,1.93-3.27,1.56-16.49-6.61-17-7.8S164.79,44.35,164.79,44.35Z" fill="#4e5462"></path><path d="M156.51,45.17s-13.74-9.8-13.59-10.77,1.26-1.86,2.9-1.19,17.08,7.13,17.53,7.8a29.85,29.85,0,0,1,1.44,3.34Z" fill="#4e5462"></path><ellipse cx="83.4" cy="61.15" rx="6.7" ry="3.65" fill="#4e5462"></ellipse><polyline points="76.7 61.63 76.7 46.37 89.79 46.37 89.79 60.53" fill="#4e5462"></polyline><ellipse cx="83.25" cy="46.37" rx="6.7" ry="3.65" fill="#fe9a2a"></ellipse><path d="M83.25,44.93s-6.8.89-9.92,1.71S60.63,56.89,61.07,57.56s2.67,1.93,3.27,1.56,16.49-6.61,17-7.8S83.25,44.93,83.25,44.93Z" fill="#4e5462"></path><path d="M91.53,45.75s13.74-9.8,13.59-10.77-1.26-1.86-2.9-1.19-17.08,7.13-17.53,7.8a29.85,29.85,0,0,0-1.44,3.34Z" fill="#4e5462"></path><path d="M89.12,100.65v2.88l26.35-11.42s10.58,4.83,18.66,0l26.55,11.42.37-3.32L134.39,84.43,99.31,63.52,83.18,55.7v3.37l27.55,20.55" fill="#4e5462"></path><polygon points="134.6 86.69 161.05 100.22 166.22 94.54 141.81 82.22 115.39 66.56 88.94 52.44 83.18 55.7 107.45 70.96 106.69 82.22 85.36 96.2 89.12 100.65 114.43 87.82 134.6 86.69" fill="#f2f2f2"></polygon><polygon points="144.21 75.21 166.22 58.47 166.22 55.65 151.36 61.7 146.49 66.88 141.81 69.86 144.21 75.21" fill="#4e5462"></polygon><polygon points="131.85 66.56 160.41 52.44 166.22 55.65 142.28 70.96 131.85 66.56" fill="#f2f2f2"></polygon><ellipse cx="124.74" cy="76.89" rx="20.12" ry="12.08" fill="#4e5462"></ellipse><ellipse cx="124.74" cy="76.42" rx="16.56" ry="9.86" fill="#e4e4e4"></ellipse><ellipse cx="124.87" cy="75.21" rx="13.37" ry="8.65" fill="#fe9a2a"></ellipse><path d="M81,47c.21,0,1.21.7,2.1.73s2.28-.55,2.17-1.07S83.59,43.13,83,43.18,81,47,81,47Z" fill="#f2f2f2"></path><ellipse cx="84.67" cy="107.36" rx="6.7" ry="3.65" fill="#4e5462"></ellipse><polyline points="77.97 107.84 77.97 92.58 91.06 92.58 91.06 106.73" fill="#4e5462"></polyline><ellipse cx="84.51" cy="92.58" rx="6.7" ry="3.65" fill="#fe9a2a"></ellipse><path d="M84.2,91.14s6.8.89,9.92,1.71,12.7,10.25,12.26,10.92-2.67,1.93-3.27,1.56-16.49-6.61-17-7.8S84.2,91.14,84.2,91.14Z" fill="#4e5462"></path><path d="M75.92,92s-13.74-9.8-13.59-10.77,1.26-1.86,2.9-1.19,17.08,7.13,17.53,7.8a29.85,29.85,0,0,1,1.44,3.34Z" fill="#4e5462"></path><ellipse cx="166.53" cy="110.24" rx="6.7" ry="3.65" fill="#4e5462"></ellipse><polyline points="159.83 110.72 159.83 95.46 172.92 95.46 172.92 109.61" fill="#4e5462"></polyline><ellipse cx="166.37" cy="95.46" rx="6.7" ry="3.65" fill="#fe9a2a"></ellipse><path d="M166.38,94s-6.8.89-9.92,1.71S143.75,106,144.2,106.65s2.67,1.93,3.27,1.56,16.49-6.61,17-7.8S166.38,94,166.38,94Z" fill="#4e5462"></path><path d="M174.65,94.84S188.4,85,188.25,84.07s-1.26-1.86-2.9-1.19-17.08,7.13-17.53,7.8A29.85,29.85,0,0,0,166.38,94Z" fill="#4e5462"></path><path d="M106.39,42.72a45.14,45.14,0,0,1,8.6-2.41,51.81,51.81,0,0,1,8.92-.85,42.17,42.17,0,0,1,8.93.85,34.79,34.79,0,0,1,8.46,2.87q-1.07-.32-2.13-.66l-1.06-.33L137,41.95c-.72-.17-1.43-.36-2.15-.52l-2.18-.36a55.2,55.2,0,0,0-8.79-.61,73.59,73.59,0,0,0-8.81.61c-1.46.19-2.92.42-4.37.71S107.83,42.37,106.39,42.72Z" fill="#87a7d6"></path><path d="M106.39,47a45.14,45.14,0,0,1,8.6-2.41,51.81,51.81,0,0,1,8.92-.85,42.17,42.17,0,0,1,8.93.85,34.79,34.79,0,0,1,8.46,2.87q-1.07-.32-2.13-.66l-1.06-.33L137,46.18c-.72-.17-1.43-.36-2.15-.52l-2.18-.36a55.2,55.2,0,0,0-8.79-.61,73.59,73.59,0,0,0-8.81.61c-1.46.19-2.92.42-4.37.71S107.83,46.6,106.39,47Z" fill="#87a7d6"></path><path d="M57.2,65.35A33.55,33.55,0,0,0,55.28,71a27.6,27.6,0,0,0-.76,5.88,21.44,21.44,0,0,0,.62,5.87,27.33,27.33,0,0,0,2.06,5.63A17.72,17.72,0,0,1,54.38,83,8.38,8.38,0,0,1,54,81.52c-.1-.51-.21-1-.3-1.52a23.11,23.11,0,0,1-.16-3.09,21.72,21.72,0,0,1,1-6.07A20.1,20.1,0,0,1,57.2,65.35Z" fill="#87a7d6"></path><path d="M60.84,65.35A33.55,33.55,0,0,0,58.92,71a27.6,27.6,0,0,0-.76,5.88,21.44,21.44,0,0,0,.62,5.87,27.33,27.33,0,0,0,2.06,5.63A17.72,17.72,0,0,1,58,83a8.38,8.38,0,0,1-.41-1.49c-.1-.51-.21-1-.3-1.52a23.11,23.11,0,0,1-.16-3.09,21.72,21.72,0,0,1,1-6.07A20.1,20.1,0,0,1,60.84,65.35Z" fill="#87a7d6"></path><path d="M192.94,58.61a20.11,20.11,0,0,1,2.67,5.49,21.72,21.72,0,0,1,1,6.07,23.12,23.12,0,0,1-.16,3.09c-.09.51-.2,1-.3,1.52a8.38,8.38,0,0,1-.41,1.49,17.72,17.72,0,0,1-2.82,5.42A27.34,27.34,0,0,0,195,76.06a21.45,21.45,0,0,0,.62-5.87,27.59,27.59,0,0,0-.76-5.88A33.55,33.55,0,0,0,192.94,58.61Z" fill="#87a7d6"></path><path d="M189.29,58.61A20.1,20.1,0,0,1,192,64.1a21.72,21.72,0,0,1,1,6.07,23.12,23.12,0,0,1-.16,3.09c-.09.51-.2,1-.3,1.52a8.39,8.39,0,0,1-.41,1.49,17.72,17.72,0,0,1-2.82,5.42,27.32,27.32,0,0,0,2.06-5.63,21.44,21.44,0,0,0,.62-5.87,27.59,27.59,0,0,0-.76-5.88A33.54,33.54,0,0,0,189.29,58.61Z" fill="#87a7d6"></path><path d="M141.31,121a45.14,45.14,0,0,1-8.6,2.41,51.81,51.81,0,0,1-8.92.85,42.17,42.17,0,0,1-8.93-.85,34.79,34.79,0,0,1-8.46-2.87q1.07.32,2.13.66l1.06.33,1.08.24c.72.17,1.43.36,2.15.52l2.18.36a55.2,55.2,0,0,0,8.79.61,73.59,73.59,0,0,0,8.81-.61c1.46-.19,2.92-.42,4.37-.71S139.86,121.4,141.31,121Z" fill="#87a7d6"></path><path d="M141.31,116.81a45.14,45.14,0,0,1-8.6,2.41,51.81,51.81,0,0,1-8.92.85,42.17,42.17,0,0,1-8.93-.85,34.79,34.79,0,0,1-8.46-2.87q1.07.32,2.13.66l1.06.33,1.08.24c.72.17,1.43.36,2.15.52l2.18.36a55.2,55.2,0,0,0,8.79.61,73.59,73.59,0,0,0,8.81-.61c1.46-.19,2.92-.42,4.37-.71S139.86,117.17,141.31,116.81Z" fill="#87a7d6"></path></g></svg>