<svg xmlns="http://www.w3.org/2000/svg" viewBox="0 0 1023 762" width="1023" height="762"><defs><linearGradient id="grd1" gradientUnits="userSpaceOnUse"  x1="25808.392" y1="7478.997" x2="25808.392" y2="6892.147"><stop offset="0" stop-color="#808080" stop-opacity="0.25" /><stop offset="0.54" stop-color="#808080" stop-opacity="0.12" /><stop offset="1" stop-color="#808080" stop-opacity="0.1" /></linearGradient><linearGradient id="grd2" gradientUnits="userSpaceOnUse"  x1="41147.404" y1="18825.055" x2="41147.404" y2="17044.262"><stop offset="0" stop-color="#808080" stop-opacity="0.25" /><stop offset="0.54" stop-color="#808080" stop-opacity="0.12" /><stop offset="1" stop-color="#808080" stop-opacity="0.1" /></linearGradient><linearGradient id="grd3" gradientUnits="userSpaceOnUse"  x1="630692.612" y1="29270.729" x2="689164.292" y2="29270.729"><stop offset="0" stop-color="#808080" stop-opacity="0.25" /><stop offset="0.54" stop-color="#808080" stop-opacity="0.12" /><stop offset="1" stop-color="#808080" stop-opacity="0.1" /></linearGradient><linearGradient id="grd4" gradientUnits="userSpaceOnUse"  x1="710714.697" y1="494150.702" x2="710714.697" y2="128098.689"><stop offset="0" stop-color="#808080" stop-opacity="0.25" /><stop offset="0.54" stop-color="#808080" stop-opacity="0.12" /><stop offset="1" stop-color="#808080" stop-opacity="0.1" /></linearGradient></defs><style>tspan { white-space:pre }.shp0 { opacity: 0.102;fill: #ffffff } .shp1 { opacity: 0.031;fill: #000000 } .shp2 { fill: #496bb8 } .shp3 { opacity: 0.2;fill: #f5f5f5 } .shp4 { opacity: 0.251;fill: #000000 } .shp5 { fill: url(#grd1) } .shp6 { fill: url(#grd2) } .shp7 { opacity: 0.102;fill: #496bb8 } .shp8 { fill: none;stroke: #fc6681;stroke-width: 2 } .shp9 { fill: #fc6681 } .shp10 { fill: none;stroke: #ffd037;stroke-width: 2 } .shp11 { fill: #ffd037 } .shp12 { fill: #a8a8a8 } .shp13 { opacity: 0.2;fill: #000000 } .shp14 { opacity: 0.102;fill: #000000 } .shp15 { fill: url(#grd3) } .shp16 { fill: #d6d8e1 } .shp17 { fill: #e6e8ed } .shp18 { fill: #5a5773 } .shp19 { fill: url(#grd4) } .shp20 { fill: #4a4347 } .shp21 { fill: #a1616a } .shp22 { fill: #605d82 } </style><path class="shp0" d="M174.8 110.92C169.32 116.64 167.21 124.7 164.85 132.27C145.85 193.27 99.03 242.34 45.71 277.4C23.13 292.25 -4.36 312.16 0.58 338.77C3.24 353.07 14.91 363.59 23.58 375.23C28.08 381.37 31.86 388 34.85 394.99C37.85 401.98 40.03 409.3 41.36 416.79C42.7 424.28 43.17 431.9 42.77 439.49C42.37 447.09 41.11 454.62 39 461.93C29.14 495.14 1.58 526.12 10.11 559.7C15.37 580.4 33.23 595.08 50.4 607.7C77.19 627.41 104.83 645.88 133.32 663.09C152.42 674.63 172.74 685.86 195 687.32C214.6 688.61 233.8 682.2 252.41 675.86C268.67 670.33 285.34 664.56 298.47 653.47C307.04 646.23 313.87 636.89 323.39 630.96C345.75 617.04 374.47 625.86 400.11 631.79C415.25 635.25 430.62 637.56 446.11 638.69C461.59 639.83 477.14 639.78 492.62 638.56C508.1 637.34 523.47 634.95 538.58 631.4C553.7 627.85 568.52 623.16 582.93 617.37C671.24 581.63 738.55 506.58 824.93 466.31C862.07 448.99 902.47 438.24 936.86 415.94C941.59 412.87 946.17 409.6 950.61 406.13C955.05 402.66 959.34 399.01 963.46 395.16C967.58 391.32 971.54 387.3 975.31 383.12C979.08 378.93 982.67 374.59 986.06 370.09C1012.06 335.54 1026.12 291.5 1022.06 248.4C1018 205.3 995.25 163.75 959.52 139.4C921.27 113.4 872.96 108.49 829.44 92.84C784.5 76.69 744.52 48.91 700.01 31.59C627.24 3.31 543.38 4.95 471.73 36.08C423.29 57.14 374.19 106.37 320.24 110.08C281.8 112.71 204.81 79.54 174.8 110.92Z" /><path class="shp1" d="M131.46 376.29C108.88 376.29 90.63 373.54 90.63 370.14C90.63 366.74 108.88 363.99 131.46 363.99C154.04 363.99 172.29 366.74 172.29 370.14C172.29 373.54 154.04 376.29 131.46 376.29Z" /><path class="shp2" d="M505.15 370.01L543.95 370.01C553.32 370.01 560.9 377.59 560.9 386.96L560.9 393.33C560.9 402.7 553.32 410.28 543.95 410.28L505.15 410.28C495.78 410.28 488.2 402.7 488.2 393.33L488.2 386.96C488.2 377.59 495.78 370.01 505.15 370.01Z" /><path class="shp2" d="M500.1 401.15L443.38 399.54C442.28 399.51 441.2 399.27 440.2 398.83C439.2 398.38 438.29 397.75 437.52 396.97C436.76 396.18 436.15 395.26 435.74 394.24C435.32 393.22 435.11 392.14 435.11 391.04L435.11 388.86C435.11 387.77 435.32 386.7 435.72 385.69C436.13 384.68 436.72 383.76 437.47 382.98C438.22 382.19 439.11 381.56 440.1 381.11C441.09 380.66 442.16 380.41 443.24 380.36L499.96 377.82C501.11 377.77 502.26 377.95 503.33 378.35C504.41 378.76 505.39 379.38 506.22 380.17C507.05 380.96 507.71 381.92 508.16 382.98C508.62 384.03 508.85 385.17 508.85 386.32L508.85 392.63C508.85 393.77 508.62 394.9 508.18 395.95C507.74 397 507.09 397.95 506.28 398.74C505.46 399.53 504.49 400.16 503.43 400.57C502.37 400.99 501.24 401.18 500.1 401.15L500.1 401.15Z" /><path class="shp2" d="M551.46 401.15L608.18 399.54C609.28 399.51 610.36 399.27 611.36 398.83C612.36 398.38 613.27 397.75 614.04 396.97C614.8 396.18 615.41 395.26 615.82 394.24C616.24 393.22 616.45 392.14 616.45 391.04L616.45 388.86C616.45 387.77 616.24 386.7 615.84 385.69C615.43 384.68 614.84 383.76 614.09 382.98C613.34 382.19 612.45 381.56 611.46 381.11C610.47 380.66 609.4 380.41 608.32 380.36L551.6 377.82C550.45 377.77 549.3 377.95 548.23 378.35C547.15 378.76 546.17 379.38 545.34 380.17C544.51 380.96 543.85 381.92 543.4 382.98C542.94 384.03 542.71 385.17 542.71 386.32L542.71 392.63C542.71 393.77 542.94 394.9 543.38 395.95C543.82 397 544.47 397.95 545.28 398.74C546.1 399.53 547.07 400.16 548.13 400.57C549.19 400.99 550.32 401.18 551.46 401.15L551.46 401.15Z" /><path class="shp3" d="M500.1 401.15L443.38 399.54C442.28 399.51 441.2 399.27 440.2 398.83C439.2 398.38 438.29 397.75 437.52 396.97C436.76 396.18 436.15 395.26 435.74 394.24C435.32 393.22 435.11 392.14 435.11 391.04L435.11 388.86C435.11 387.77 435.32 386.7 435.72 385.69C436.13 384.68 436.72 383.76 437.47 382.98C438.22 382.19 439.11 381.56 440.1 381.11C441.09 380.66 442.16 380.41 443.24 380.36L499.96 377.82C501.11 377.77 502.26 377.95 503.33 378.35C504.41 378.76 505.39 379.38 506.22 380.17C507.05 380.96 507.71 381.92 508.16 382.98C508.62 384.03 508.85 385.17 508.85 386.32L508.85 392.63C508.85 393.77 508.62 394.9 508.18 395.95C507.74 397 507.09 397.95 506.28 398.74C505.46 399.53 504.49 400.16 503.43 400.57C502.37 400.99 501.24 401.18 500.1 401.15L500.1 401.15Z" /><path class="shp3" d="M551.46 401.15L608.18 399.54C609.28 399.51 610.36 399.27 611.36 398.83C612.36 398.38 613.27 397.75 614.04 396.97C614.8 396.18 615.41 395.26 615.82 394.24C616.24 393.22 616.45 392.14 616.45 391.04L616.45 388.86C616.45 387.77 616.24 386.7 615.84 385.69C615.43 384.68 614.84 383.76 614.09 382.98C613.34 382.19 612.45 381.56 611.46 381.11C610.47 380.66 609.4 380.41 608.32 380.36L551.6 377.82C550.45 377.77 549.3 377.95 548.23 378.35C547.15 378.76 546.17 379.38 545.34 380.17C544.51 380.96 543.85 381.92 543.4 382.98C542.94 384.03 542.71 385.17 542.71 386.32L542.71 392.63C542.71 393.77 542.94 394.9 543.38 395.95C543.82 397 544.47 397.95 545.28 398.74C546.1 399.53 547.07 400.16 548.13 400.57C549.19 400.99 550.32 401.18 551.46 401.15L551.46 401.15Z" /><path class="shp2" d="M426.98 376.62L430.45 376.62C435.54 376.62 439.66 380.74 439.66 385.83L439.66 391.78C439.66 396.87 435.54 400.99 430.45 400.99L426.98 400.99C421.89 400.99 417.77 396.87 417.77 391.78L417.77 385.83C417.77 380.74 421.89 376.62 426.98 376.62Z" /><path class="shp2" d="M621.53 376.62L625 376.62C630.09 376.62 634.21 380.74 634.21 385.83L634.21 391.78C634.21 396.87 630.09 400.99 625 400.99L621.53 400.99C616.44 400.99 612.32 396.87 612.32 391.78L612.32 385.83C612.32 380.74 616.44 376.62 621.53 376.62Z" /><path class="shp2" d="M425.09 371.25L432.75 371.25C434.29 371.25 435.53 372.49 435.53 374.03L435.53 375.08C435.53 376.62 434.29 377.86 432.75 377.86L425.09 377.86C423.55 377.86 422.31 376.62 422.31 375.08L422.31 374.03C422.31 372.49 423.55 371.25 425.09 371.25Z" /><path class="shp2" d="M427.72 360.1L429.29 360.1C431.6 360.1 433.46 361.96 433.46 364.27L433.46 370.8C433.46 373.11 431.6 374.97 429.29 374.97L427.72 374.97C425.41 374.97 423.55 373.11 423.55 370.8L423.55 364.27C423.55 361.96 425.41 360.1 427.72 360.1Z" /><path class="shp2" d="M525.99 390.14C516.17 390.14 508.23 382.2 508.23 372.38C508.23 362.56 516.17 354.62 525.99 354.62C535.81 354.62 543.75 362.56 543.75 372.38C543.75 382.2 535.81 390.14 525.99 390.14Z" /><path class="shp2" d="M525.99 384.36C519.37 384.36 514.01 379 514.01 372.38C514.01 365.76 519.37 360.4 525.99 360.4C532.61 360.4 537.97 365.76 537.97 372.38C537.97 379 532.61 384.36 525.99 384.36Z" /><path class="shp3" d="M525.99 384.36C519.37 384.36 514.01 379 514.01 372.38C514.01 365.76 519.37 360.4 525.99 360.4C532.61 360.4 537.97 365.76 537.97 372.38C537.97 379 532.61 384.36 525.99 384.36Z" /><path class="shp2" d="M525.99 380.23C521.65 380.23 518.14 376.72 518.14 372.38C518.14 368.04 521.65 364.53 525.99 364.53C530.33 364.53 533.84 368.04 533.84 372.38C533.84 376.72 530.33 380.23 525.99 380.23Z" /><path class="shp4" d="M525.99 380.23C521.65 380.23 518.14 376.72 518.14 372.38C518.14 368.04 521.65 364.53 525.99 364.53C530.33 364.53 533.84 368.04 533.84 372.38C533.84 376.72 530.33 380.23 525.99 380.23Z" /><path class="shp2" d="M402.9 371.25C387.6 371.25 375.23 369.59 375.23 367.53C375.23 365.47 387.6 363.81 402.9 363.81C418.2 363.81 430.57 365.47 430.57 367.53C430.57 369.59 418.2 371.25 402.9 371.25Z" /><path class="shp2" d="M454.12 371.25C438.82 371.25 426.45 369.59 426.45 367.53C426.45 365.47 438.82 363.81 454.12 363.81C469.42 363.81 481.79 365.47 481.79 367.53C481.79 369.59 469.42 371.25 454.12 371.25Z" /><path class="shp2" d="M620.06 371.25L627.72 371.25C629.26 371.25 630.5 372.49 630.5 374.03L630.5 375.08C630.5 376.62 629.26 377.86 627.72 377.86L620.06 377.86C618.52 377.86 617.28 376.62 617.28 375.08L617.28 374.03C617.28 372.49 618.52 371.25 620.06 371.25Z" /><path class="shp2" d="M622.69 360.1L624.26 360.1C626.57 360.1 628.43 361.96 628.43 364.27L628.43 370.8C628.43 373.11 626.57 374.97 624.26 374.97L622.69 374.97C620.38 374.97 618.52 373.11 618.52 370.8L618.52 364.27C618.52 361.96 620.38 360.1 622.69 360.1Z" /><path class="shp2" d="M597.86 371.25C582.56 371.25 570.19 369.59 570.19 367.53C570.19 365.47 582.56 363.81 597.86 363.81C613.16 363.81 625.53 365.47 625.53 367.53C625.53 369.59 613.16 371.25 597.86 371.25Z" /><path class="shp2" d="M649.08 371.25C633.78 371.25 621.41 369.59 621.41 367.53C621.41 365.47 633.78 363.81 649.08 363.81C664.38 363.81 676.75 365.47 676.75 367.53C676.75 369.59 664.38 371.25 649.08 371.25Z" /><path class="shp3" d="M402.9 371.25C387.6 371.25 375.23 369.59 375.23 367.53C375.23 365.47 387.6 363.81 402.9 363.81C418.2 363.81 430.57 365.47 430.57 367.53C430.57 369.59 418.2 371.25 402.9 371.25Z" /><path class="shp3" d="M454.12 371.25C438.82 371.25 426.45 369.59 426.45 367.53C426.45 365.47 438.82 363.81 454.12 363.81C469.42 363.81 481.79 365.47 481.79 367.53C481.79 369.59 469.42 371.25 454.12 371.25Z" /><path class="shp3" d="M597.86 371.25C582.56 371.25 570.19 369.59 570.19 367.53C570.19 365.47 582.56 363.81 597.86 363.81C613.16 363.81 625.53 365.47 625.53 367.53C625.53 369.59 613.16 371.25 597.86 371.25Z" /><path class="shp3" d="M649.08 371.25C633.78 371.25 621.41 369.59 621.41 367.53C621.41 365.47 633.78 363.81 649.08 363.81C664.38 363.81 676.75 365.47 676.75 367.53C676.75 369.59 664.38 371.25 649.08 371.25Z" /><g style="opacity: 0.702"><path class="shp2" d="M302.83 449.95L328.68 449.95C334.92 449.95 339.97 455 339.97 461.24L339.97 465.49C339.97 471.73 334.92 476.78 328.68 476.78L302.83 476.78C296.59 476.78 291.54 471.73 291.54 465.49L291.54 461.24C291.54 455 296.59 449.95 302.83 449.95Z" /><path class="shp2" d="M299.47 470.7L261.68 469.64C260.95 469.62 260.23 469.46 259.56 469.16C258.89 468.87 258.29 468.45 257.78 467.93C257.27 467.4 256.86 466.79 256.59 466.11C256.31 465.43 256.17 464.71 256.17 463.98L256.17 462.54C256.17 461.82 256.31 461.1 256.58 460.43C256.85 459.76 257.24 459.15 257.74 458.63C258.24 458.1 258.83 457.68 259.49 457.38C260.15 457.08 260.86 456.91 261.58 456.88L299.38 455.17C300.14 455.14 300.91 455.26 301.62 455.53C302.34 455.8 303 456.21 303.55 456.74C304.1 457.27 304.54 457.9 304.84 458.6C305.14 459.31 305.3 460.06 305.3 460.83L305.3 465.04C305.3 465.8 305.15 466.55 304.85 467.24C304.56 467.94 304.12 468.57 303.58 469.1C303.04 469.63 302.39 470.04 301.69 470.32C300.98 470.59 300.23 470.72 299.47 470.7L299.47 470.7Z" /><path class="shp2" d="M333.68 470.7L371.47 469.64C372.2 469.62 372.92 469.46 373.59 469.16C374.26 468.87 374.86 468.45 375.37 467.93C375.88 467.4 376.29 466.79 376.56 466.11C376.84 465.43 376.98 464.71 376.98 463.98L376.98 462.54C376.98 461.82 376.84 461.1 376.57 460.43C376.3 459.76 375.91 459.15 375.41 458.63C374.91 458.1 374.32 457.68 373.66 457.38C373 457.08 372.29 456.91 371.57 456.88L333.78 455.19C333.02 455.16 332.25 455.28 331.54 455.55C330.82 455.82 330.16 456.23 329.61 456.76C329.06 457.29 328.62 457.92 328.32 458.62C328.02 459.33 327.86 460.08 327.86 460.85L327.86 465.06C327.86 465.81 328.02 466.56 328.31 467.26C328.61 467.95 329.04 468.58 329.58 469.1C330.13 469.63 330.77 470.04 331.47 470.31C332.17 470.59 332.93 470.72 333.68 470.7L333.68 470.7Z" /><path class="shp3" d="M299.47 470.7L261.68 469.64C260.95 469.62 260.23 469.46 259.56 469.16C258.89 468.87 258.29 468.45 257.78 467.93C257.27 467.4 256.86 466.79 256.59 466.11C256.31 465.43 256.17 464.71 256.17 463.98L256.17 462.54C256.17 461.82 256.31 461.1 256.58 460.43C256.85 459.76 257.24 459.15 257.74 458.63C258.24 458.1 258.83 457.68 259.49 457.38C260.15 457.08 260.86 456.91 261.58 456.88L299.38 455.17C300.14 455.14 300.91 455.26 301.62 455.53C302.34 455.8 303 456.21 303.55 456.74C304.1 457.27 304.54 457.9 304.84 458.6C305.14 459.31 305.3 460.06 305.3 460.83L305.3 465.04C305.3 465.8 305.15 466.55 304.85 467.24C304.56 467.94 304.12 468.57 303.58 469.1C303.04 469.63 302.39 470.04 301.69 470.32C300.98 470.59 300.23 470.72 299.47 470.7L299.47 470.7Z" /><path class="shp3" d="M333.68 470.7L371.47 469.64C372.2 469.62 372.92 469.46 373.59 469.16C374.26 468.87 374.86 468.45 375.37 467.93C375.88 467.4 376.29 466.79 376.56 466.11C376.84 465.43 376.98 464.71 376.98 463.98L376.98 462.54C376.98 461.82 376.84 461.1 376.57 460.43C376.3 459.76 375.91 459.15 375.41 458.63C374.91 458.1 374.32 457.68 373.66 457.38C373 457.08 372.29 456.91 371.57 456.88L333.78 455.19C333.02 455.16 332.25 455.28 331.54 455.55C330.82 455.82 330.16 456.23 329.61 456.76C329.06 457.29 328.62 457.92 328.32 458.62C328.02 459.33 327.86 460.08 327.86 460.85L327.86 465.06C327.86 465.81 328.02 466.56 328.31 467.26C328.61 467.95 329.04 468.58 329.58 469.1C330.13 469.63 330.77 470.04 331.47 470.31C332.17 470.59 332.93 470.72 333.68 470.7L333.68 470.7Z" /><path class="shp2" d="M250.76 454.36L253.06 454.36C256.46 454.36 259.2 457.1 259.2 460.5L259.2 464.46C259.2 467.86 256.46 470.6 253.06 470.6L250.76 470.6C247.36 470.6 244.62 467.86 244.62 464.46L244.62 460.5C244.62 457.1 247.36 454.36 250.76 454.36Z" /><path class="shp2" d="M380.37 454.36L382.67 454.36C386.07 454.36 388.81 457.1 388.81 460.5L388.81 464.46C388.81 467.86 386.07 470.6 382.67 470.6L380.37 470.6C376.97 470.6 374.23 467.86 374.23 464.46L374.23 460.5C374.23 457.1 376.97 454.36 380.37 454.36Z" /><path class="shp2" d="M249.49 450.78L254.6 450.78C255.62 450.78 256.45 451.61 256.45 452.63L256.45 453.33C256.45 454.35 255.62 455.18 254.6 455.18L249.49 455.18C248.47 455.18 247.64 454.35 247.64 453.33L247.64 452.63C247.64 451.61 248.47 450.78 249.49 450.78Z" /><path class="shp2" d="M251.25 443.35L252.29 443.35C253.83 443.35 255.07 444.59 255.07 446.13L255.07 450.48C255.07 452.02 253.83 453.26 252.29 453.26L251.25 453.26C249.71 453.26 248.47 452.02 248.47 450.48L248.47 446.13C248.47 444.59 249.71 443.35 251.25 443.35Z" /><path class="shp2" d="M234.71 450.78C224.51 450.78 216.27 449.67 216.27 448.3C216.27 446.93 224.51 445.82 234.71 445.82C244.91 445.82 253.15 446.93 253.15 448.3C253.15 449.67 244.91 450.78 234.71 450.78Z" /><path class="shp2" d="M268.83 450.78C258.63 450.78 250.39 449.67 250.39 448.3C250.39 446.93 258.63 445.82 268.83 445.82C279.03 445.82 287.27 446.93 287.27 448.3C287.27 449.67 279.03 450.78 268.83 450.78Z" /><path class="shp2" d="M379.38 450.78L384.49 450.78C385.51 450.78 386.34 451.61 386.34 452.63L386.34 453.33C386.34 454.35 385.51 455.18 384.49 455.18L379.38 455.18C378.36 455.18 377.53 454.35 377.53 453.33L377.53 452.63C377.53 451.61 378.36 450.78 379.38 450.78Z" /><path class="shp2" d="M381.14 443.35L382.18 443.35C383.72 443.35 384.96 444.59 384.96 446.13L384.96 450.48C384.96 452.02 383.72 453.26 382.18 453.26L381.14 453.26C379.6 453.26 378.36 452.02 378.36 450.48L378.36 446.13C378.36 444.59 379.6 443.35 381.14 443.35Z" /><path class="shp2" d="M364.6 450.78C354.4 450.78 346.16 449.67 346.16 448.3C346.16 446.93 354.4 445.82 364.6 445.82C374.8 445.82 383.04 446.93 383.04 448.3C383.04 449.67 374.8 450.78 364.6 450.78Z" /><path class="shp2" d="M398.72 450.78C388.52 450.78 380.28 449.67 380.28 448.3C380.28 446.93 388.52 445.82 398.72 445.82C408.92 445.82 417.16 446.93 417.16 448.3C417.16 449.67 408.92 450.78 398.72 450.78Z" /><path class="shp3" d="M234.71 450.78C224.51 450.78 216.27 449.67 216.27 448.3C216.27 446.93 224.51 445.82 234.71 445.82C244.91 445.82 253.15 446.93 253.15 448.3C253.15 449.67 244.91 450.78 234.71 450.78Z" /><path class="shp3" d="M268.83 450.78C258.63 450.78 250.39 449.67 250.39 448.3C250.39 446.93 258.63 445.82 268.83 445.82C279.03 445.82 287.27 446.93 287.27 448.3C287.27 449.67 279.03 450.78 268.83 450.78Z" /><path class="shp3" d="M364.6 450.78C354.4 450.78 346.16 449.67 346.16 448.3C346.16 446.93 354.4 445.82 364.6 445.82C374.8 445.82 383.04 446.93 383.04 448.3C383.04 449.67 374.8 450.78 364.6 450.78Z" /><path class="shp3" d="M398.72 450.78C388.52 450.78 380.28 449.67 380.28 448.3C380.28 446.93 388.52 445.82 398.72 445.82C408.92 445.82 417.16 446.93 417.16 448.3C417.16 449.67 408.92 450.78 398.72 450.78Z" /><path class="shp2" d="M315.71 460.34C309.17 460.34 303.88 455.05 303.88 448.51C303.88 441.97 309.17 436.68 315.71 436.68C322.25 436.68 327.54 441.97 327.54 448.51C327.54 455.05 322.25 460.34 315.71 460.34Z" /><path class="shp2" d="M315.71 456.49C311.3 456.49 307.73 452.92 307.73 448.51C307.73 444.1 311.3 440.53 315.71 440.53C320.12 440.53 323.69 444.1 323.69 448.51C323.69 452.92 320.12 456.49 315.71 456.49Z" /><path class="shp3" d="M315.71 456.49C311.3 456.49 307.73 452.92 307.73 448.51C307.73 444.1 311.3 440.53 315.71 440.53C320.12 440.53 323.69 444.1 323.69 448.51C323.69 452.92 320.12 456.49 315.71 456.49Z" /><path class="shp2" d="M315.71 453.74C312.82 453.74 310.48 451.4 310.48 448.51C310.48 445.62 312.82 443.28 315.71 443.28C318.6 443.28 320.94 445.62 320.94 448.51C320.94 451.4 318.6 453.74 315.71 453.74Z" /><path class="shp4" d="M315.71 453.74C312.82 453.74 310.48 451.4 310.48 448.51C310.48 445.62 312.82 443.28 315.71 443.28C318.6 443.28 320.94 445.62 320.94 448.51C320.94 451.4 318.6 453.74 315.71 453.74Z" /></g><g style="opacity: 0.502"><path class="shp2" d="M125.55 320.72L143.25 320.72C147.52 320.72 150.98 324.18 150.98 328.45L150.98 331.36C150.98 335.63 147.52 339.09 143.25 339.09L125.55 339.09C121.28 339.09 117.82 335.63 117.82 331.36L117.82 328.45C117.82 324.18 121.28 320.72 125.55 320.72Z" /><path class="shp2" d="M123.25 334.92L97.38 334.2C96.88 334.19 96.39 334.08 95.93 333.87C95.47 333.67 95.06 333.38 94.71 333.03C94.36 332.67 94.08 332.24 93.89 331.78C93.71 331.32 93.61 330.82 93.61 330.32L93.61 329.32C93.61 328.82 93.7 328.33 93.89 327.87C94.07 327.41 94.34 326.99 94.69 326.63C95.03 326.28 95.44 325.99 95.89 325.78C96.34 325.58 96.82 325.46 97.32 325.44L123.19 324.28C123.71 324.26 124.24 324.34 124.73 324.53C125.22 324.71 125.67 324.99 126.04 325.35C126.42 325.72 126.72 326.15 126.93 326.63C127.13 327.12 127.24 327.64 127.24 328.16L127.24 331.04C127.24 331.56 127.14 332.07 126.93 332.55C126.73 333.03 126.44 333.46 126.06 333.82C125.69 334.18 125.25 334.47 124.77 334.66C124.29 334.85 123.77 334.93 123.25 334.92L123.25 334.92Z" /><path class="shp2" d="M146.67 334.92L172.54 334.2C173.04 334.19 173.53 334.08 173.99 333.87C174.45 333.67 174.86 333.38 175.21 333.03C175.56 332.67 175.84 332.24 176.03 331.78C176.21 331.32 176.31 330.82 176.31 330.32L176.31 329.32C176.31 328.82 176.22 328.33 176.03 327.87C175.85 327.41 175.58 326.99 175.23 326.63C174.89 326.28 174.48 325.99 174.03 325.78C173.58 325.58 173.1 325.46 172.6 325.44L146.73 324.28C146.21 324.26 145.68 324.34 145.19 324.53C144.7 324.71 144.25 324.99 143.88 325.35C143.5 325.72 143.2 326.15 142.99 326.63C142.79 327.12 142.68 327.64 142.68 328.16L142.68 331.04C142.68 331.56 142.78 332.07 142.99 332.55C143.19 333.03 143.48 333.46 143.86 333.82C144.23 334.18 144.67 334.47 145.15 334.66C145.63 334.85 146.15 334.93 146.67 334.92L146.67 334.92Z" /><path class="shp3" d="M123.25 334.92L97.38 334.2C96.88 334.19 96.39 334.08 95.93 333.87C95.47 333.67 95.06 333.38 94.71 333.03C94.36 332.67 94.08 332.24 93.89 331.78C93.71 331.32 93.61 330.82 93.61 330.32L93.61 329.32C93.61 328.82 93.7 328.33 93.89 327.87C94.07 327.41 94.34 326.99 94.69 326.63C95.03 326.28 95.44 325.99 95.89 325.78C96.34 325.58 96.82 325.46 97.32 325.44L123.19 324.28C123.71 324.26 124.24 324.34 124.73 324.53C125.22 324.71 125.67 324.99 126.04 325.35C126.42 325.72 126.72 326.15 126.93 326.63C127.13 327.12 127.24 327.64 127.24 328.16L127.24 331.04C127.24 331.56 127.14 332.07 126.93 332.55C126.73 333.03 126.44 333.46 126.06 333.82C125.69 334.18 125.25 334.47 124.77 334.66C124.29 334.85 123.77 334.93 123.25 334.92L123.25 334.92Z" /><path class="shp3" d="M146.67 334.92L172.54 334.2C173.04 334.19 173.53 334.08 173.99 333.87C174.45 333.67 174.86 333.38 175.21 333.03C175.56 332.67 175.84 332.24 176.03 331.78C176.21 331.32 176.31 330.82 176.31 330.32L176.31 329.32C176.31 328.82 176.22 328.33 176.03 327.87C175.85 327.41 175.58 326.99 175.23 326.63C174.89 326.28 174.48 325.99 174.03 325.78C173.58 325.58 173.1 325.46 172.6 325.44L146.73 324.28C146.21 324.26 145.68 324.34 145.19 324.53C144.7 324.71 144.25 324.99 143.88 325.35C143.5 325.72 143.2 326.15 142.99 326.63C142.79 327.12 142.68 327.64 142.68 328.16L142.68 331.04C142.68 331.56 142.78 332.07 142.99 332.55C143.19 333.03 143.48 333.46 143.86 333.82C144.23 334.18 144.67 334.47 145.15 334.66C145.63 334.85 146.15 334.93 146.67 334.92L146.67 334.92Z" /><path class="shp2" d="M89.89 323.73L91.48 323.73C93.8 323.73 95.68 325.61 95.68 327.93L95.68 330.65C95.68 332.97 93.8 334.85 91.48 334.85L89.89 334.85C87.57 334.85 85.69 332.97 85.69 330.65L85.69 327.93C85.69 325.61 87.57 323.73 89.89 323.73Z" /><path class="shp2" d="M178.63 323.73L180.22 323.73C182.54 323.73 184.42 325.61 184.42 327.93L184.42 330.65C184.42 332.97 182.54 334.85 180.22 334.85L178.63 334.85C176.31 334.85 174.43 332.97 174.43 330.65L174.43 327.93C174.43 325.61 176.31 323.73 178.63 323.73Z" /><path class="shp2" d="M89.03 321.28L92.52 321.28C93.22 321.28 93.79 321.85 93.79 322.55L93.79 323.02C93.79 323.72 93.22 324.29 92.52 324.29L89.03 324.29C88.33 324.29 87.76 323.72 87.76 323.02L87.76 322.55C87.76 321.85 88.33 321.28 89.03 321.28Z" /><path class="shp2" d="M90.23 316.2L90.95 316.2C92 316.2 92.85 317.05 92.85 318.1L92.85 321.08C92.85 322.13 92 322.98 90.95 322.98L90.23 322.98C89.18 322.98 88.33 322.13 88.33 321.08L88.33 318.1C88.33 317.05 89.18 316.2 90.23 316.2Z" /><path class="shp2" d="M78.91 321.29C71.93 321.29 66.29 320.53 66.29 319.59C66.29 318.65 71.93 317.89 78.91 317.89C85.89 317.89 91.53 318.65 91.53 319.59C91.53 320.53 85.89 321.29 78.91 321.29Z" /><path class="shp2" d="M102.27 321.29C95.29 321.29 89.65 320.53 89.65 319.59C89.65 318.65 95.29 317.89 102.27 317.89C109.25 317.89 114.89 318.65 114.89 319.59C114.89 320.53 109.25 321.29 102.27 321.29Z" /><path class="shp2" d="M177.96 321.28L181.45 321.28C182.15 321.28 182.72 321.85 182.72 322.55L182.72 323.02C182.72 323.72 182.15 324.29 181.45 324.29L177.96 324.29C177.26 324.29 176.69 323.72 176.69 323.02L176.69 322.55C176.69 321.85 177.26 321.28 177.96 321.28Z" /><path class="shp2" d="M179.16 316.2L179.88 316.2C180.93 316.2 181.78 317.05 181.78 318.1L181.78 321.08C181.78 322.13 180.93 322.98 179.88 322.98L179.16 322.98C178.11 322.98 177.26 322.13 177.26 321.08L177.26 318.1C177.26 317.05 178.11 316.2 179.16 316.2Z" /><path class="shp2" d="M167.84 321.29C160.86 321.29 155.22 320.53 155.22 319.59C155.22 318.65 160.86 317.89 167.84 317.89C174.82 317.89 180.46 318.65 180.46 319.59C180.46 320.53 174.82 321.29 167.84 321.29Z" /><path class="shp2" d="M191.2 321.29C184.22 321.29 178.58 320.53 178.58 319.59C178.58 318.65 184.22 317.89 191.2 317.89C198.18 317.89 203.82 318.65 203.82 319.59C203.82 320.53 198.18 321.29 191.2 321.29Z" /><path class="shp3" d="M78.91 321.29C71.93 321.29 66.29 320.53 66.29 319.59C66.29 318.65 71.93 317.89 78.91 317.89C85.89 317.89 91.53 318.65 91.53 319.59C91.53 320.53 85.89 321.29 78.91 321.29Z" /><path class="shp3" d="M102.27 321.29C95.29 321.29 89.65 320.53 89.65 319.59C89.65 318.65 95.29 317.89 102.27 317.89C109.25 317.89 114.89 318.65 114.89 319.59C114.89 320.53 109.25 321.29 102.27 321.29Z" /><path class="shp3" d="M167.84 321.29C160.86 321.29 155.22 320.53 155.22 319.59C155.22 318.65 160.86 317.89 167.84 317.89C174.82 317.89 180.46 318.65 180.46 319.59C180.46 320.53 174.82 321.29 167.84 321.29Z" /><path class="shp3" d="M191.2 321.29C184.22 321.29 178.58 320.53 178.58 319.59C178.58 318.65 184.22 317.89 191.2 317.89C198.18 317.89 203.82 318.65 203.82 319.59C203.82 320.53 198.18 321.29 191.2 321.29Z" /><path class="shp2" d="M135.06 328.27C130.58 328.27 126.96 324.65 126.96 320.17C126.96 315.69 130.58 312.07 135.06 312.07C139.54 312.07 143.16 315.69 143.16 320.17C143.16 324.65 139.54 328.27 135.06 328.27Z" /><path class="shp2" d="M135.06 325.63C132.04 325.63 129.6 323.19 129.6 320.17C129.6 317.15 132.04 314.71 135.06 314.71C138.08 314.71 140.52 317.15 140.52 320.17C140.52 323.19 138.08 325.63 135.06 325.63Z" /><path class="shp3" d="M135.06 325.63C132.04 325.63 129.6 323.19 129.6 320.17C129.6 317.15 132.04 314.71 135.06 314.71C138.08 314.71 140.52 317.15 140.52 320.17C140.52 323.19 138.08 325.63 135.06 325.63Z" /><path class="shp2" d="M135.06 323.75C133.08 323.75 131.48 322.15 131.48 320.17C131.48 318.19 133.08 316.59 135.06 316.59C137.04 316.59 138.64 318.19 138.64 320.17C138.64 322.15 137.04 323.75 135.06 323.75Z" /><path class="shp4" d="M135.06 323.75C133.08 323.75 131.48 322.15 131.48 320.17C131.48 318.19 133.08 316.59 135.06 316.59C137.04 316.59 138.64 318.19 138.64 320.17C138.64 322.15 137.04 323.75 135.06 323.75Z" /></g><g style="opacity: 0.502"><path class="shp2" d="M439.4 250L449.41 250C451.83 250 453.79 251.96 453.79 254.38L453.79 256.02C453.79 258.44 451.83 260.4 449.41 260.4L439.4 260.4C436.98 260.4 435.02 258.44 435.02 256.02L435.02 254.38C435.02 251.96 436.98 250 439.4 250Z" /><path class="shp2" d="M438.09 258.03L423.45 257.62C423.17 257.61 422.89 257.55 422.63 257.43C422.37 257.32 422.14 257.15 421.94 256.95C421.74 256.75 421.59 256.51 421.48 256.25C421.37 255.98 421.32 255.7 421.32 255.42L421.32 254.86C421.32 254.58 421.38 254.3 421.48 254.04C421.59 253.78 421.74 253.55 421.93 253.35C422.13 253.14 422.36 252.98 422.61 252.86C422.87 252.75 423.14 252.68 423.42 252.67L438.06 252.01C438.36 252 438.65 252.05 438.93 252.15C439.2 252.25 439.46 252.41 439.67 252.62C439.88 252.82 440.05 253.07 440.17 253.34C440.29 253.61 440.35 253.9 440.35 254.2L440.35 255.83C440.35 256.12 440.29 256.42 440.18 256.69C440.06 256.96 439.9 257.2 439.68 257.41C439.47 257.61 439.22 257.77 438.95 257.88C438.68 257.99 438.38 258.04 438.09 258.03L438.09 258.03Z" /><path class="shp2" d="M451.38 258.03L466.02 257.62C466.3 257.61 466.58 257.55 466.84 257.43C467.1 257.32 467.33 257.15 467.53 256.95C467.73 256.75 467.88 256.51 467.99 256.25C468.1 255.98 468.15 255.7 468.15 255.42L468.15 254.86C468.15 254.58 468.09 254.3 467.99 254.04C467.88 253.78 467.73 253.55 467.54 253.35C467.34 253.14 467.11 252.98 466.86 252.86C466.6 252.75 466.33 252.68 466.05 252.67L451.38 252.02C451.08 252.01 450.79 252.06 450.51 252.16C450.24 252.26 449.98 252.42 449.77 252.63C449.56 252.83 449.39 253.08 449.27 253.35C449.15 253.62 449.09 253.91 449.09 254.21L449.09 255.84C449.09 256.14 449.15 256.43 449.27 256.7C449.39 256.97 449.56 257.22 449.77 257.42C449.98 257.63 450.24 257.79 450.51 257.89C450.79 257.99 451.08 258.04 451.38 258.03L451.38 258.03Z" /><path class="shp3" d="M438.09 258.03L423.45 257.62C423.17 257.61 422.89 257.55 422.63 257.43C422.37 257.32 422.14 257.15 421.94 256.95C421.74 256.75 421.59 256.51 421.48 256.25C421.37 255.98 421.32 255.7 421.32 255.42L421.32 254.86C421.32 254.58 421.38 254.3 421.48 254.04C421.59 253.78 421.74 253.55 421.93 253.35C422.13 253.14 422.36 252.98 422.61 252.86C422.87 252.75 423.14 252.68 423.42 252.67L438.06 252.01C438.36 252 438.65 252.05 438.93 252.15C439.2 252.25 439.46 252.41 439.67 252.62C439.88 252.82 440.05 253.07 440.17 253.34C440.29 253.61 440.35 253.9 440.35 254.2L440.35 255.83C440.35 256.12 440.29 256.42 440.18 256.69C440.06 256.96 439.9 257.2 439.68 257.41C439.47 257.61 439.22 257.77 438.95 257.88C438.68 257.99 438.38 258.04 438.09 258.03L438.09 258.03Z" /><path class="shp3" d="M451.38 258.03L466.02 257.62C466.3 257.61 466.58 257.55 466.84 257.43C467.1 257.32 467.33 257.15 467.53 256.95C467.73 256.75 467.88 256.51 467.99 256.25C468.1 255.98 468.15 255.7 468.15 255.42L468.15 254.86C468.15 254.58 468.09 254.3 467.99 254.04C467.88 253.78 467.73 253.55 467.54 253.35C467.34 253.14 467.11 252.98 466.86 252.86C466.6 252.75 466.33 252.68 466.05 252.67L451.38 252.02C451.08 252.01 450.79 252.06 450.51 252.16C450.24 252.26 449.98 252.42 449.77 252.63C449.56 252.83 449.39 253.08 449.27 253.35C449.15 253.62 449.09 253.91 449.09 254.21L449.09 255.84C449.09 256.14 449.15 256.43 449.27 256.7C449.39 256.97 449.56 257.22 449.77 257.42C449.98 257.63 450.24 257.79 450.51 257.89C450.79 257.99 451.08 258.04 451.38 258.03L451.38 258.03Z" /><path class="shp2" d="M419.22 251.7L420.11 251.7C421.43 251.7 422.49 252.76 422.49 254.08L422.49 255.61C422.49 256.93 421.43 257.99 420.11 257.99L419.22 257.99C417.9 257.99 416.84 256.93 416.84 255.61L416.84 254.08C416.84 252.76 417.9 251.7 419.22 251.7Z" /><path class="shp2" d="M469.45 251.7L470.34 251.7C471.66 251.7 472.72 252.76 472.72 254.08L472.72 255.61C472.72 256.93 471.66 257.99 470.34 257.99L469.45 257.99C468.13 257.99 467.07 256.93 467.07 255.61L467.07 254.08C467.07 252.76 468.13 251.7 469.45 251.7Z" /><path class="shp2" d="M418.73 250.32L420.7 250.32C421.1 250.32 421.42 250.64 421.42 251.04L421.42 251.31C421.42 251.71 421.1 252.03 420.7 252.03L418.73 252.03C418.33 252.03 418.01 251.71 418.01 251.31L418.01 251.04C418.01 250.64 418.33 250.32 418.73 250.32Z" /><path class="shp2" d="M419.41 247.44L419.81 247.44C420.41 247.44 420.89 247.92 420.89 248.52L420.89 250.2C420.89 250.8 420.41 251.28 419.81 251.28L419.41 251.28C418.81 251.28 418.33 250.8 418.33 250.2L418.33 248.52C418.33 247.92 418.81 247.44 419.41 247.44Z" /><path class="shp2" d="M413 250.32C409.05 250.32 405.85 249.89 405.85 249.36C405.85 248.83 409.05 248.4 413 248.4C416.95 248.4 420.15 248.83 420.15 249.36C420.15 249.89 416.95 250.32 413 250.32Z" /><path class="shp2" d="M426.22 250.32C422.27 250.32 419.07 249.89 419.07 249.36C419.07 248.83 422.27 248.4 426.22 248.4C430.17 248.4 433.37 248.83 433.37 249.36C433.37 249.89 430.17 250.32 426.22 250.32Z" /><path class="shp2" d="M469.07 250.32L471.04 250.32C471.44 250.32 471.76 250.64 471.76 251.04L471.76 251.31C471.76 251.71 471.44 252.03 471.04 252.03L469.07 252.03C468.67 252.03 468.35 251.71 468.35 251.31L468.35 251.04C468.35 250.64 468.67 250.32 469.07 250.32Z" /><path class="shp2" d="M469.75 247.44L470.15 247.44C470.75 247.44 471.23 247.92 471.23 248.52L471.23 250.2C471.23 250.8 470.75 251.28 470.15 251.28L469.75 251.28C469.15 251.28 468.67 250.8 468.67 250.2L468.67 248.52C468.67 247.92 469.15 247.44 469.75 247.44Z" /><path class="shp2" d="M463.33 250.32C459.38 250.32 456.18 249.89 456.18 249.36C456.18 248.83 459.38 248.4 463.33 248.4C467.28 248.4 470.48 248.83 470.48 249.36C470.48 249.89 467.28 250.32 463.33 250.32Z" /><path class="shp2" d="M476.56 250.32C472.61 250.32 469.41 249.89 469.41 249.36C469.41 248.83 472.61 248.4 476.56 248.4C480.51 248.4 483.71 248.83 483.71 249.36C483.71 249.89 480.51 250.32 476.56 250.32Z" /><path class="shp3" d="M413 250.32C409.05 250.32 405.85 249.89 405.85 249.36C405.85 248.83 409.05 248.4 413 248.4C416.95 248.4 420.15 248.83 420.15 249.36C420.15 249.89 416.95 250.32 413 250.32Z" /><path class="shp3" d="M426.22 250.32C422.27 250.32 419.07 249.89 419.07 249.36C419.07 248.83 422.27 248.4 426.22 248.4C430.17 248.4 433.37 248.83 433.37 249.36C433.37 249.89 430.17 250.32 426.22 250.32Z" /><path class="shp3" d="M463.33 250.32C459.38 250.32 456.18 249.89 456.18 249.36C456.18 248.83 459.38 248.4 463.33 248.4C467.28 248.4 470.48 248.83 470.48 249.36C470.48 249.89 467.28 250.32 463.33 250.32Z" /><path class="shp3" d="M476.56 250.32C472.61 250.32 469.41 249.89 469.41 249.36C469.41 248.83 472.61 248.4 476.56 248.4C480.51 248.4 483.71 248.83 483.71 249.36C483.71 249.89 480.51 250.32 476.56 250.32Z" /><path class="shp2" d="M444.78 254.69C442.24 254.69 440.19 252.64 440.19 250.1C440.19 247.56 442.24 245.51 444.78 245.51C447.32 245.51 449.37 247.56 449.37 250.1C449.37 252.64 447.32 254.69 444.78 254.69Z" /><path class="shp2" d="M444.78 253.19C443.07 253.19 441.69 251.81 441.69 250.1C441.69 248.39 443.07 247.01 444.78 247.01C446.49 247.01 447.87 248.39 447.87 250.1C447.87 251.81 446.49 253.19 444.78 253.19Z" /><path class="shp3" d="M444.78 253.19C443.07 253.19 441.69 251.81 441.69 250.1C441.69 248.39 443.07 247.01 444.78 247.01C446.49 247.01 447.87 248.39 447.87 250.1C447.87 251.81 446.49 253.19 444.78 253.19Z" /><path class="shp2" d="M444.78 252.13C443.66 252.13 442.75 251.22 442.75 250.1C442.75 248.98 443.66 248.07 444.78 248.07C445.9 248.07 446.81 248.98 446.81 250.1C446.81 251.22 445.9 252.13 444.78 252.13Z" /><path class="shp4" d="M444.78 252.13C443.66 252.13 442.75 251.22 442.75 250.1C442.75 248.98 443.66 248.07 444.78 248.07C445.9 248.07 446.81 248.98 446.81 250.1C446.81 251.22 445.9 252.13 444.78 252.13Z" /></g><g style="opacity: 0.302"><path class="shp5" d="M336.05 221.79C335.68 221.79 335.32 221.79 334.95 221.8C334.59 221.81 334.22 221.82 333.86 221.85C333.49 221.87 333.12 221.9 332.76 221.93C332.4 221.97 332.03 222.01 331.67 222.06L331.67 222.06C331.67 221.78 331.56 221.51 331.36 221.32C331.17 221.12 330.9 221.01 330.62 221.01C330.34 221.01 330.07 221.12 329.88 221.32C329.68 221.51 329.57 221.78 329.57 222.06L329.57 222.06C329.21 222.01 328.84 221.97 328.48 221.93C328.12 221.9 327.75 221.87 327.38 221.85C327.02 221.82 326.65 221.81 326.29 221.8C325.92 221.79 325.56 221.79 325.19 221.79C321.95 221.79 319.31 222.15 319.31 222.6C319.31 223.05 321.94 223.41 325.19 223.41C325.56 223.41 325.92 223.41 326.29 223.4C326.65 223.39 327.02 223.38 327.38 223.35C327.75 223.33 328.12 223.3 328.48 223.27C328.84 223.23 329.21 223.19 329.57 223.14L329.57 223.14C329.57 223.17 329.57 223.2 329.57 223.24C329.58 223.27 329.58 223.3 329.59 223.33C329.59 223.36 329.6 223.4 329.61 223.43C329.62 223.46 329.63 223.49 329.64 223.52C329.54 223.58 329.47 223.67 329.41 223.76C329.35 223.86 329.32 223.97 329.31 224.09C329.3 224.2 329.32 224.31 329.37 224.42C329.41 224.52 329.48 224.62 329.57 224.69C329.44 224.74 329.32 224.8 329.2 224.87C329.09 224.94 328.98 225.02 328.88 225.12C328.78 225.21 328.69 225.31 328.62 225.42C328.54 225.54 328.47 225.66 328.42 225.78C328.35 225.72 328.27 225.67 328.19 225.63C328.12 225.58 328.03 225.54 327.95 225.51C327.86 225.48 327.78 225.45 327.69 225.44C327.6 225.42 327.51 225.41 327.42 225.4L316.5 224.9C316.31 224.63 316.08 224.38 315.83 224.17C315.57 223.95 315.3 223.76 315 223.61C314.71 223.46 314.39 223.34 314.07 223.26C313.74 223.18 313.41 223.14 313.08 223.14L306.2 223.14C305.86 223.14 305.53 223.18 305.2 223.26C304.88 223.34 304.56 223.46 304.26 223.62C303.96 223.77 303.69 223.96 303.43 224.18C303.18 224.4 302.95 224.66 302.76 224.93L292.38 225.41C292.3 225.41 292.21 225.42 292.13 225.44C292.05 225.46 291.97 225.48 291.89 225.51C291.81 225.53 291.73 225.57 291.65 225.61C291.58 225.65 291.51 225.69 291.44 225.74C291.39 225.63 291.33 225.52 291.26 225.43C291.19 225.33 291.12 225.23 291.03 225.15C290.95 225.06 290.85 224.99 290.75 224.92C290.66 224.85 290.55 224.79 290.44 224.74C290.49 224.71 290.53 224.67 290.57 224.62C290.61 224.58 290.65 224.53 290.68 224.48C290.7 224.43 290.72 224.37 290.74 224.32C290.75 224.26 290.76 224.2 290.76 224.14C290.76 224.07 290.75 223.99 290.73 223.92C290.7 223.85 290.67 223.78 290.63 223.72C290.59 223.66 290.53 223.61 290.47 223.56C290.42 223.52 290.35 223.48 290.28 223.46C290.28 223.43 290.29 223.41 290.29 223.38C290.29 223.36 290.29 223.33 290.29 223.31C290.29 223.28 290.29 223.25 290.29 223.23C290.29 223.2 290.28 223.18 290.28 223.15L290.28 223.15C290.64 223.2 291.01 223.24 291.37 223.28C291.73 223.31 292.1 223.34 292.47 223.36C292.83 223.39 293.2 223.4 293.56 223.41C293.93 223.42 294.29 223.42 294.66 223.42C297.9 223.42 300.54 223.06 300.54 222.61C300.54 222.16 297.91 221.8 294.66 221.8C294.29 221.8 293.93 221.8 293.56 221.81C293.2 221.82 292.83 221.83 292.47 221.86C292.1 221.88 291.73 221.91 291.37 221.94C291.01 221.98 290.64 222.02 290.28 222.07L290.28 222.07C290.28 221.93 290.26 221.79 290.2 221.66C290.15 221.53 290.07 221.41 289.98 221.31C289.88 221.21 289.76 221.13 289.64 221.08C289.51 221.02 289.37 220.99 289.23 220.99L289.23 220.99C289.09 220.99 288.95 221.02 288.82 221.08C288.7 221.13 288.58 221.21 288.48 221.31C288.39 221.41 288.31 221.53 288.26 221.66C288.2 221.79 288.18 221.93 288.18 222.07L288.18 222.07C287.82 222.02 287.45 221.98 287.09 221.94C286.73 221.91 286.36 221.88 285.99 221.86C285.63 221.83 285.26 221.82 284.9 221.81C284.53 221.8 284.17 221.8 283.8 221.8C280.56 221.8 277.92 222.16 277.92 222.61C277.92 223.06 280.55 223.42 283.8 223.42C284.17 223.42 284.53 223.42 284.9 223.41C285.26 223.4 285.63 223.39 285.99 223.36C286.36 223.34 286.73 223.31 287.09 223.28C287.45 223.24 287.82 223.2 288.18 223.15L288.18 223.15C288.18 223.18 288.18 223.21 288.18 223.25C288.19 223.28 288.19 223.31 288.2 223.34C288.2 223.37 288.21 223.41 288.22 223.44C288.23 223.47 288.24 223.5 288.25 223.53C288.16 223.6 288.08 223.69 288.02 223.79C287.97 223.89 287.94 224.01 287.94 224.13C287.94 224.24 287.97 224.36 288.02 224.46C288.08 224.56 288.16 224.65 288.25 224.72C288.07 224.79 287.89 224.9 287.74 225.02C287.59 225.15 287.45 225.29 287.34 225.46C287.23 225.62 287.14 225.8 287.09 225.99C287.03 226.18 287 226.38 287 226.58L287 227.91C287 228.17 287.05 228.42 287.15 228.66C287.24 228.9 287.39 229.12 287.56 229.3C287.74 229.49 287.96 229.64 288.19 229.74C288.43 229.84 288.68 229.9 288.94 229.91L289.71 229.91C289.86 229.91 290.01 229.89 290.16 229.85C290.31 229.82 290.45 229.76 290.58 229.69C290.72 229.62 290.84 229.54 290.96 229.44C291.07 229.34 291.17 229.22 291.26 229.1C291.34 229.18 291.42 229.25 291.51 229.31C291.61 229.37 291.7 229.42 291.8 229.46C291.9 229.5 292.01 229.54 292.12 229.56C292.22 229.58 292.33 229.6 292.44 229.6L302.62 229.89C302.7 230.02 302.79 230.15 302.88 230.27C302.97 230.39 303.07 230.51 303.18 230.62C303.29 230.73 303.4 230.83 303.51 230.93C303.63 231.03 303.75 231.12 303.88 231.21C302.88 232.21 299.11 236.74 299.72 244.69C299.72 244.69 300.33 245.86 301.91 244.69C301.91 244.69 300.91 235.83 306.55 232.18C306.59 232.32 306.66 232.46 306.74 232.58C306.83 232.7 306.93 232.8 307.05 232.89C307.17 232.98 307.3 233.05 307.44 233.1C307.58 233.15 307.72 233.18 307.87 233.18L308.59 233.18C308.24 233.33 307.91 233.53 307.61 233.77C307.31 234.01 307.06 234.3 306.84 234.62C306.63 234.94 306.47 235.29 306.36 235.66C306.25 236.02 306.2 236.41 306.2 236.79C306.2 237.79 306.6 238.75 307.3 239.46C308.01 240.16 308.97 240.56 309.97 240.56C310.97 240.56 311.93 240.16 312.64 239.46C313.34 238.75 313.74 237.79 313.74 236.79C313.74 236.41 313.69 236.02 313.58 235.66C313.47 235.29 313.31 234.94 313.1 234.62C312.88 234.3 312.63 234.01 312.33 233.77C312.03 233.53 311.7 233.33 311.35 233.18L312.07 233.18C312.22 233.18 312.36 233.15 312.5 233.1C312.64 233.05 312.77 232.98 312.89 232.89C313.01 232.8 313.11 232.7 313.2 232.58C313.28 232.46 313.35 232.32 313.39 232.18C319.04 235.83 318.03 244.69 318.03 244.69C319.61 245.86 320.22 244.69 320.22 244.69C320.92 235.59 315.84 230.99 315.84 230.99L315.75 230.99C315.85 230.91 315.94 230.84 316.03 230.75C316.12 230.67 316.21 230.58 316.3 230.49C316.38 230.4 316.46 230.31 316.54 230.21C316.61 230.11 316.68 230.01 316.75 229.91L327.46 229.6C327.57 229.6 327.69 229.58 327.8 229.56C327.91 229.53 328.02 229.5 328.13 229.45C328.23 229.4 328.33 229.35 328.43 229.28C328.52 229.22 328.61 229.14 328.69 229.06C328.78 229.19 328.88 229.31 329 229.41C329.11 229.52 329.24 229.61 329.38 229.68C329.52 229.76 329.66 229.81 329.82 229.85C329.97 229.89 330.12 229.91 330.28 229.91L331.05 229.91C331.31 229.9 331.56 229.84 331.8 229.74C332.03 229.64 332.25 229.49 332.43 229.3C332.6 229.12 332.75 228.9 332.84 228.66C332.94 228.42 332.99 228.17 332.99 227.91L332.99 226.54C332.99 226.35 332.96 226.16 332.91 225.98C332.86 225.8 332.78 225.62 332.68 225.46C332.58 225.3 332.46 225.16 332.31 225.03C332.17 224.91 332.01 224.8 331.84 224.72C331.96 224.65 332.06 224.55 332.13 224.43C332.19 224.3 332.22 224.16 332.21 224.03C332.19 223.89 332.14 223.76 332.05 223.65C331.97 223.54 331.85 223.45 331.72 223.41C331.72 223.38 331.73 223.36 331.73 223.33C331.73 223.31 331.73 223.28 331.73 223.26C331.73 223.23 331.73 223.2 331.73 223.18C331.73 223.15 331.72 223.13 331.72 223.1L331.72 223.1C332.08 223.15 332.45 223.19 332.81 223.23C333.17 223.26 333.54 223.29 333.91 223.31C334.27 223.34 334.64 223.35 335 223.36C335.37 223.37 335.73 223.37 336.1 223.37C339.34 223.37 341.98 223.01 341.98 222.56C341.98 222.11 339.29 221.79 336.05 221.79Z" /><path class="shp2" d="M304.07 223.71L314.57 223.71C315.8 223.71 316.8 224.71 316.8 225.94L316.8 229.77C316.8 231 315.8 232 314.57 232L304.07 232C302.84 232 301.84 231 301.84 229.77L301.84 225.94C301.84 224.71 302.84 223.71 304.07 223.71Z" /><path class="shp2" d="M304.29 230.12L292.62 229.79C292.39 229.78 292.17 229.73 291.97 229.64C291.76 229.55 291.57 229.42 291.41 229.26C291.26 229.1 291.13 228.91 291.05 228.7C290.96 228.49 290.92 228.27 290.92 228.04L290.92 227.59C290.92 227.37 290.96 227.15 291.05 226.94C291.13 226.73 291.25 226.54 291.4 226.38C291.56 226.22 291.74 226.09 291.94 226C292.15 225.9 292.37 225.85 292.59 225.84L304.26 225.32C304.5 225.31 304.73 225.35 304.95 225.43C305.18 225.51 305.38 225.64 305.55 225.8C305.72 225.97 305.86 226.16 305.95 226.38C306.04 226.6 306.09 226.83 306.09 227.07L306.09 228.37C306.09 228.6 306.04 228.84 305.95 229.05C305.86 229.27 305.73 229.46 305.56 229.63C305.39 229.79 305.19 229.92 304.98 230C304.76 230.09 304.52 230.13 304.29 230.12L304.29 230.12Z" /><path class="shp2" d="M314.86 230.12L326.53 229.79C326.76 229.78 326.98 229.73 327.18 229.64C327.39 229.55 327.58 229.42 327.74 229.26C327.89 229.1 328.02 228.91 328.1 228.7C328.19 228.49 328.23 228.27 328.23 228.04L328.23 227.59C328.23 227.37 328.19 227.15 328.1 226.94C328.02 226.73 327.9 226.54 327.75 226.38C327.59 226.22 327.41 226.09 327.21 226C327 225.9 326.78 225.85 326.56 225.84L314.89 225.32C314.65 225.31 314.42 225.35 314.2 225.43C313.97 225.51 313.77 225.64 313.6 225.8C313.43 225.97 313.29 226.16 313.2 226.38C313.11 226.6 313.06 226.83 313.06 227.07L313.06 228.37C313.06 228.6 313.11 228.84 313.2 229.05C313.29 229.27 313.42 229.46 313.59 229.63C313.76 229.79 313.96 229.92 314.17 230C314.39 230.09 314.63 230.13 314.86 230.12L314.86 230.12Z" /><path class="shp3" d="M304.29 230.12L292.62 229.79C292.39 229.78 292.17 229.73 291.97 229.64C291.76 229.55 291.57 229.42 291.41 229.26C291.26 229.1 291.13 228.91 291.05 228.7C290.96 228.49 290.92 228.27 290.92 228.04L290.92 227.59C290.92 227.37 290.96 227.15 291.05 226.94C291.13 226.73 291.25 226.54 291.4 226.38C291.56 226.22 291.74 226.09 291.94 226C292.15 225.9 292.37 225.85 292.59 225.84L304.26 225.32C304.5 225.31 304.73 225.35 304.95 225.43C305.18 225.51 305.38 225.64 305.55 225.8C305.72 225.97 305.86 226.16 305.95 226.38C306.04 226.6 306.09 226.83 306.09 227.07L306.09 228.37C306.09 228.6 306.04 228.84 305.95 229.05C305.86 229.27 305.73 229.46 305.56 229.63C305.39 229.79 305.19 229.92 304.98 230C304.76 230.09 304.52 230.13 304.29 230.12L304.29 230.12Z" /><path class="shp3" d="M314.86 230.12L326.53 229.79C326.76 229.78 326.98 229.73 327.18 229.64C327.39 229.55 327.58 229.42 327.74 229.26C327.89 229.1 328.02 228.91 328.1 228.7C328.19 228.49 328.23 228.27 328.23 228.04L328.23 227.59C328.23 227.37 328.19 227.15 328.1 226.94C328.02 226.73 327.9 226.54 327.75 226.38C327.59 226.22 327.41 226.09 327.21 226C327 225.9 326.78 225.85 326.56 225.84L314.89 225.32C314.65 225.31 314.42 225.35 314.2 225.43C313.97 225.51 313.77 225.64 313.6 225.8C313.43 225.97 313.29 226.16 313.2 226.38C313.11 226.6 313.06 226.83 313.06 227.07L313.06 228.37C313.06 228.6 313.11 228.84 313.2 229.05C313.29 229.27 313.42 229.46 313.59 229.63C313.76 229.79 313.96 229.92 314.17 230C314.39 230.09 314.63 230.13 314.86 230.12L314.86 230.12Z" /><path class="shp2" d="M288.56 225.07L290.65 225.07C291.32 225.07 291.86 225.61 291.86 226.28L291.86 228.88C291.86 229.55 291.32 230.09 290.65 230.09L288.56 230.09C287.89 230.09 287.35 229.55 287.35 228.88L287.35 226.28C287.35 225.61 287.89 225.07 288.56 225.07Z" /><path class="shp2" d="M328.6 225.07L330.69 225.07C331.36 225.07 331.9 225.61 331.9 226.28L331.9 228.88C331.9 229.55 331.36 230.09 330.69 230.09L328.6 230.09C327.93 230.09 327.39 229.55 327.39 228.88L327.39 226.28C327.39 225.61 327.93 225.07 328.6 225.07Z" /><path class="shp2" d="M288.65 223.97L290.63 223.97C290.83 223.97 291 224.14 291 224.34L291 224.96C291 225.16 290.83 225.33 290.63 225.33L288.65 225.33C288.45 225.33 288.28 225.16 288.28 224.96L288.28 224.34C288.28 224.14 288.45 223.97 288.65 223.97Z" /><path class="shp2" d="M289.09 221.67L290.03 221.67C290.33 221.67 290.58 221.92 290.58 222.22L290.58 224.18C290.58 224.48 290.33 224.73 290.03 224.73L289.09 224.73C288.79 224.73 288.54 224.48 288.54 224.18L288.54 222.22C288.54 221.92 288.79 221.67 289.09 221.67Z" /><path class="shp2" d="M284.29 223.97C281.14 223.97 278.59 223.63 278.59 223.2C278.59 222.77 281.14 222.43 284.29 222.43C287.44 222.43 289.99 222.77 289.99 223.2C289.99 223.63 287.44 223.97 284.29 223.97Z" /><path class="shp2" d="M294.83 223.97C291.68 223.97 289.13 223.63 289.13 223.2C289.13 222.77 291.68 222.43 294.83 222.43C297.98 222.43 300.53 222.77 300.53 223.2C300.53 223.63 297.98 223.97 294.83 223.97Z" /><path class="shp2" d="M328.78 223.97L330.76 223.97C330.96 223.97 331.13 224.14 331.13 224.34L331.13 224.96C331.13 225.16 330.96 225.33 330.76 225.33L328.78 225.33C328.58 225.33 328.41 225.16 328.41 224.96L328.41 224.34C328.41 224.14 328.58 223.97 328.78 223.97Z" /><path class="shp2" d="M329.21 221.67L330.15 221.67C330.45 221.67 330.7 221.92 330.7 222.22L330.7 224.18C330.7 224.48 330.45 224.73 330.15 224.73L329.21 224.73C328.91 224.73 328.66 224.48 328.66 224.18L328.66 222.22C328.66 221.92 328.91 221.67 329.21 221.67Z" /><path class="shp2" d="M324.41 223.97C321.26 223.97 318.71 223.63 318.71 223.2C318.71 222.77 321.26 222.43 324.41 222.43C327.56 222.43 330.11 222.77 330.11 223.2C330.11 223.63 327.56 223.97 324.41 223.97Z" /><path class="shp2" d="M334.96 223.97C331.81 223.97 329.26 223.63 329.26 223.2C329.26 222.77 331.81 222.43 334.96 222.43C338.11 222.43 340.66 222.77 340.66 223.2C340.66 223.63 338.11 223.97 334.96 223.97Z" /><path class="shp3" d="M284.29 223.97C281.14 223.97 278.59 223.63 278.59 223.2C278.59 222.77 281.14 222.43 284.29 222.43C287.44 222.43 289.99 222.77 289.99 223.2C289.99 223.63 287.44 223.97 284.29 223.97Z" /><path class="shp3" d="M294.83 223.97C291.68 223.97 289.13 223.63 289.13 223.2C289.13 222.77 291.68 222.43 294.83 222.43C297.98 222.43 300.53 222.77 300.53 223.2C300.53 223.63 297.98 223.97 294.83 223.97Z" /><path class="shp3" d="M324.41 223.97C321.26 223.97 318.71 223.63 318.71 223.2C318.71 222.77 321.26 222.43 324.41 222.43C327.56 222.43 330.11 222.77 330.11 223.2C330.11 223.63 327.56 223.97 324.41 223.97Z" /><path class="shp3" d="M334.96 223.97C331.81 223.97 329.26 223.63 329.26 223.2C329.26 222.77 331.81 222.43 334.96 222.43C338.11 222.43 340.66 222.77 340.66 223.2C340.66 223.63 338.11 223.97 334.96 223.97Z" /><path class="shp3" d="M306.95 230.43L312.29 230.43C312.69 230.43 313.02 230.76 313.02 231.16L313.02 232.42C313.02 232.82 312.69 233.15 312.29 233.15L306.95 233.15C306.55 233.15 306.22 232.82 306.22 232.42L306.22 231.16C306.22 230.76 306.55 230.43 306.95 230.43Z" /><path class="shp2" d="M309.62 227.21C307.6 227.21 305.96 225.57 305.96 223.55C305.96 221.53 307.6 219.89 309.62 219.89C311.64 219.89 313.28 221.53 313.28 223.55C313.28 225.57 311.64 227.21 309.62 227.21Z" /><path class="shp2" d="M309.62 226.02C308.25 226.02 307.15 224.92 307.15 223.55C307.15 222.18 308.25 221.08 309.62 221.08C310.99 221.08 312.09 222.18 312.09 223.55C312.09 224.92 310.99 226.02 309.62 226.02Z" /><path class="shp3" d="M309.62 226.02C308.25 226.02 307.15 224.92 307.15 223.55C307.15 222.18 308.25 221.08 309.62 221.08C310.99 221.08 312.09 222.18 312.09 223.55C312.09 224.92 310.99 226.02 309.62 226.02Z" /><path class="shp2" d="M309.62 225.17C308.72 225.17 308 224.45 308 223.55C308 222.65 308.72 221.93 309.62 221.93C310.52 221.93 311.24 222.65 311.24 223.55C311.24 224.45 310.52 225.17 309.62 225.17Z" /><path class="shp4" d="M309.62 225.17C308.72 225.17 308 224.45 308 223.55C308 222.65 308.72 221.93 309.62 221.93C310.52 221.93 311.24 222.65 311.24 223.55C311.24 224.45 310.52 225.17 309.62 225.17Z" /></g><g style="opacity: 0.302"><path class="shp6" d="M329.93 340.72C329.29 340.71 328.65 340.72 328.02 340.73C327.38 340.75 326.74 340.78 326.11 340.82C325.47 340.86 324.83 340.91 324.2 340.97C323.57 341.03 322.93 341.11 322.3 341.19L322.3 341.19C322.3 340.7 322.11 340.24 321.76 339.9C321.42 339.55 320.96 339.36 320.47 339.36C319.98 339.36 319.52 339.55 319.18 339.9C318.83 340.24 318.64 340.7 318.64 341.19L318.64 341.19C318.01 341.11 317.37 341.03 316.74 340.97C316.11 340.91 315.47 340.86 314.83 340.82C314.2 340.78 313.56 340.75 312.92 340.73C312.29 340.72 311.65 340.71 311.01 340.72C305.36 340.72 300.78 341.35 300.78 342.13C300.78 342.91 305.38 343.54 311 343.54C311.64 343.55 312.28 343.54 312.91 343.53C313.55 343.51 314.19 343.48 314.82 343.44C315.46 343.4 316.1 343.35 316.73 343.29C317.36 343.23 318 343.15 318.63 343.07L318.63 343.07C318.63 343.13 318.63 343.18 318.64 343.24C318.64 343.29 318.65 343.35 318.66 343.41C318.67 343.46 318.68 343.52 318.7 343.57C318.71 343.62 318.73 343.68 318.75 343.73C318.59 343.84 318.46 343.98 318.36 344.15C318.26 344.32 318.21 344.51 318.2 344.7C318.18 344.89 318.22 345.09 318.29 345.27C318.37 345.44 318.48 345.6 318.63 345.73C318.41 345.81 318.19 345.91 317.99 346.04C317.79 346.16 317.6 346.31 317.43 346.47C317.26 346.63 317.1 346.81 316.97 347.01C316.84 347.2 316.72 347.41 316.63 347.63C316.51 347.53 316.37 347.44 316.23 347.36C316.1 347.29 315.95 347.22 315.8 347.16C315.65 347.11 315.5 347.06 315.34 347.03C315.19 347 315.03 346.98 314.87 346.97L295.87 346.09C295.53 345.62 295.13 345.18 294.69 344.8C294.25 344.42 293.76 344.09 293.24 343.83C292.72 343.56 292.17 343.36 291.6 343.22C291.04 343.09 290.45 343.02 289.87 343.02L277.87 343.02C277.28 343.02 276.7 343.09 276.13 343.23C275.56 343.37 275.01 343.58 274.49 343.85C273.97 344.12 273.49 344.45 273.04 344.83C272.6 345.22 272.21 345.65 271.87 346.13L253.8 346.96C253.65 346.97 253.51 346.98 253.36 347.01C253.22 347.04 253.08 347.08 252.94 347.13C252.8 347.17 252.67 347.23 252.53 347.3C252.4 347.37 252.28 347.44 252.16 347.53C252.07 347.34 251.97 347.15 251.85 346.98C251.73 346.81 251.59 346.64 251.44 346.5C251.29 346.35 251.13 346.21 250.95 346.09C250.78 345.98 250.59 345.87 250.4 345.79C250.49 345.73 250.56 345.66 250.63 345.59C250.7 345.51 250.76 345.42 250.81 345.33C250.85 345.24 250.89 345.15 250.91 345.05C250.94 344.95 250.95 344.84 250.95 344.74C250.95 344.61 250.93 344.48 250.89 344.36C250.85 344.23 250.8 344.12 250.72 344.01C250.65 343.9 250.56 343.81 250.45 343.73C250.35 343.65 250.23 343.59 250.11 343.55C250.12 343.51 250.13 343.46 250.14 343.42C250.15 343.37 250.16 343.33 250.17 343.28C250.18 343.24 250.18 343.19 250.18 343.15C250.19 343.1 250.19 343.06 250.19 343.01L250.19 343.01C250.82 343.09 251.46 343.17 252.09 343.23C252.72 343.29 253.36 343.34 254 343.38C254.63 343.42 255.27 343.45 255.91 343.47C256.54 343.48 257.18 343.49 257.82 343.48C263.47 343.48 268.05 342.85 268.05 342.07C268.05 341.29 263.47 340.66 257.82 340.66C257.18 340.65 256.54 340.66 255.91 340.67C255.27 340.69 254.63 340.72 254 340.76C253.36 340.8 252.72 340.85 252.09 340.91C251.46 340.97 250.82 341.05 250.19 341.13L250.19 341.13C250.19 340.89 250.15 340.64 250.06 340.42C249.97 340.19 249.83 339.99 249.66 339.81C249.49 339.64 249.29 339.5 249.07 339.4C248.84 339.31 248.6 339.25 248.36 339.25L248.36 339.25C248.12 339.25 247.88 339.31 247.65 339.4C247.43 339.5 247.23 339.64 247.06 339.81C246.89 339.99 246.75 340.19 246.66 340.42C246.57 340.64 246.53 340.89 246.53 341.13L246.53 341.13C245.9 341.05 245.26 340.97 244.63 340.91C244 340.85 243.36 340.8 242.72 340.76C242.09 340.72 241.45 340.69 240.81 340.67C240.18 340.66 239.54 340.65 238.9 340.66C233.25 340.66 228.67 341.29 228.67 342.07C228.67 342.85 233.28 343.54 238.93 343.54C239.57 343.55 240.21 343.54 240.84 343.53C241.48 343.51 242.12 343.48 242.75 343.44C243.39 343.4 244.03 343.35 244.66 343.29C245.29 343.23 245.93 343.15 246.56 343.07L246.56 343.07C246.56 343.13 246.56 343.18 246.57 343.24C246.57 343.29 246.58 343.35 246.59 343.41C246.6 343.46 246.61 343.52 246.63 343.57C246.64 343.62 246.66 343.68 246.68 343.73C246.51 343.84 246.37 343.99 246.27 344.17C246.17 344.35 246.12 344.54 246.11 344.75C246.1 344.95 246.15 345.15 246.23 345.33C246.32 345.52 246.45 345.68 246.61 345.8C246.29 345.93 245.99 346.1 245.72 346.32C245.45 346.54 245.21 346.8 245.02 347.08C244.83 347.37 244.68 347.69 244.58 348.02C244.48 348.35 244.43 348.69 244.43 349.04L244.43 351.36C244.42 351.81 244.51 352.26 244.67 352.67C244.84 353.09 245.09 353.47 245.4 353.8C245.71 354.12 246.09 354.38 246.5 354.55C246.92 354.73 247.36 354.82 247.81 354.83L249.15 354.83C249.41 354.83 249.68 354.8 249.93 354.73C250.19 354.67 250.44 354.58 250.67 354.46C250.91 354.34 251.13 354.19 251.33 354.01C251.53 353.84 251.71 353.65 251.86 353.43C251.99 353.56 252.14 353.67 252.29 353.78C252.45 353.88 252.61 353.97 252.78 354.04C252.95 354.12 253.13 354.17 253.31 354.21C253.49 354.26 253.67 354.28 253.86 354.29L271.58 354.8C271.72 355.03 271.87 355.25 272.04 355.46C272.2 355.67 272.37 355.87 272.56 356.07C272.74 356.26 272.94 356.44 273.14 356.62C273.35 356.79 273.56 356.95 273.78 357.1C272.08 358.87 265.47 366.73 266.53 380.57C266.53 380.57 267.6 382.57 270.35 380.57C270.35 380.57 268.59 365.15 278.43 358.79C278.51 359.03 278.63 359.26 278.78 359.47C278.93 359.67 279.11 359.86 279.31 360.01C279.52 360.16 279.75 360.28 279.99 360.36C280.23 360.44 280.48 360.48 280.74 360.48L282 360.48C281.38 360.74 280.81 361.08 280.29 361.51C279.78 361.93 279.33 362.43 278.96 362.99C278.59 363.54 278.31 364.15 278.12 364.79C277.93 365.43 277.84 366.09 277.84 366.76C277.77 368.55 278.43 370.28 279.67 371.57C280.91 372.86 282.62 373.59 284.4 373.59C286.19 373.59 287.9 372.86 289.14 371.57C290.38 370.28 291.04 368.55 290.97 366.76C290.97 366.09 290.88 365.43 290.69 364.79C290.5 364.15 290.22 363.54 289.85 362.99C289.48 362.43 289.03 361.93 288.52 361.51C288 361.08 287.43 360.74 286.81 360.48L288.07 360.48C288.33 360.48 288.58 360.44 288.82 360.36C289.06 360.28 289.29 360.16 289.5 360.01C289.7 359.86 289.88 359.67 290.03 359.47C290.18 359.26 290.3 359.03 290.38 358.79C300.22 365.14 298.46 380.57 298.46 380.57C301.21 382.57 302.28 380.57 302.28 380.57C303.5 364.72 294.65 356.71 294.65 356.71L294.49 356.71C294.65 356.58 294.81 356.44 294.96 356.29C295.11 356.14 295.26 355.99 295.4 355.83C295.54 355.68 295.67 355.51 295.8 355.34C295.92 355.17 296.04 355 296.15 354.82L314.8 354.28C315 354.27 315.2 354.25 315.39 354.2C315.59 354.16 315.78 354.1 315.96 354.02C316.15 353.93 316.32 353.84 316.49 353.72C316.65 353.61 316.8 353.47 316.94 353.33C317.09 353.56 317.27 353.77 317.47 353.95C317.67 354.13 317.9 354.29 318.14 354.42C318.38 354.55 318.63 354.65 318.9 354.72C319.16 354.78 319.44 354.82 319.71 354.82L321.05 354.82C321.5 354.81 321.94 354.72 322.36 354.54C322.77 354.37 323.15 354.11 323.46 353.79C323.77 353.46 324.02 353.08 324.19 352.66C324.35 352.25 324.44 351.8 324.43 351.35L324.43 349.03C324.43 348.7 324.39 348.37 324.3 348.05C324.21 347.73 324.07 347.43 323.89 347.15C323.72 346.87 323.5 346.62 323.26 346.4C323.01 346.18 322.73 346 322.43 345.86C322.64 345.74 322.81 345.56 322.92 345.35C323.03 345.13 323.07 344.89 323.05 344.65C323.03 344.41 322.94 344.18 322.79 343.99C322.64 343.8 322.44 343.66 322.21 343.58C322.22 343.54 322.23 343.49 322.24 343.45C322.25 343.4 322.26 343.36 322.27 343.31C322.28 343.27 322.28 343.22 322.28 343.18C322.29 343.13 322.29 343.09 322.29 343.04L322.29 343.04C322.92 343.12 323.56 343.2 324.19 343.26C324.82 343.32 325.46 343.37 326.1 343.41C326.73 343.45 327.37 343.48 328.01 343.5C328.64 343.51 329.28 343.52 329.92 343.51C335.57 343.51 340.15 342.88 340.15 342.1C340.15 341.32 335.58 340.72 329.93 340.72Z" /><path class="shp2" d="M276.44 344.07L290.35 344.07C293.71 344.07 296.42 346.78 296.42 350.14L296.42 352.43C296.42 355.79 293.71 358.5 290.35 358.5L276.44 358.5C273.08 358.5 270.37 355.79 270.37 352.43L270.37 350.14C270.37 346.78 273.08 344.07 276.44 344.07Z" /><path class="shp2" d="M274.64 355.22L254.31 354.65C253.92 354.65 253.53 354.57 253.16 354.42C252.8 354.27 252.47 354.05 252.19 353.77C251.91 353.49 251.69 353.16 251.54 352.8C251.39 352.43 251.31 352.04 251.31 351.65L251.31 350.87C251.31 350.48 251.38 350.1 251.53 349.74C251.67 349.38 251.89 349.06 252.16 348.78C252.43 348.5 252.75 348.28 253.1 348.12C253.45 347.97 253.83 347.88 254.22 347.87L274.55 346.96C274.96 346.93 275.37 346.99 275.76 347.13C276.14 347.27 276.5 347.49 276.8 347.77C277.09 348.05 277.33 348.39 277.49 348.77C277.66 349.14 277.74 349.55 277.74 349.96L277.74 352.22C277.74 352.62 277.66 353.02 277.5 353.39C277.35 353.76 277.12 354.1 276.83 354.38C276.54 354.66 276.19 354.88 275.82 355.02C275.44 355.17 275.04 355.23 274.64 355.22L274.64 355.22Z" /><path class="shp2" d="M293.04 355.22L313.37 354.65C313.76 354.65 314.15 354.57 314.52 354.42C314.88 354.27 315.21 354.05 315.49 353.77C315.77 353.49 315.99 353.16 316.14 352.8C316.29 352.43 316.37 352.04 316.37 351.65L316.37 350.87C316.37 350.48 316.3 350.1 316.15 349.74C316.01 349.38 315.79 349.06 315.52 348.78C315.25 348.5 314.93 348.28 314.58 348.12C314.23 347.97 313.85 347.88 313.46 347.87L293.13 346.96C292.72 346.93 292.31 346.99 291.92 347.13C291.54 347.27 291.18 347.49 290.88 347.77C290.59 348.05 290.35 348.39 290.19 348.77C290.02 349.14 289.94 349.55 289.94 349.96L289.94 352.22C289.94 352.62 290.02 353.02 290.18 353.39C290.33 353.76 290.56 354.1 290.85 354.38C291.14 354.66 291.49 354.88 291.86 355.02C292.24 355.17 292.64 355.23 293.04 355.22L293.04 355.22Z" /><path class="shp3" d="M274.64 355.22L254.31 354.65C253.92 354.65 253.53 354.57 253.16 354.42C252.8 354.27 252.47 354.05 252.19 353.77C251.91 353.49 251.69 353.16 251.54 352.8C251.39 352.43 251.31 352.04 251.31 351.65L251.31 350.87C251.31 350.48 251.38 350.1 251.53 349.74C251.67 349.38 251.89 349.06 252.16 348.78C252.43 348.5 252.75 348.28 253.1 348.12C253.45 347.97 253.83 347.88 254.22 347.87L274.55 346.96C274.96 346.93 275.37 346.99 275.76 347.13C276.14 347.27 276.5 347.49 276.8 347.77C277.09 348.05 277.33 348.39 277.49 348.77C277.66 349.14 277.74 349.55 277.74 349.96L277.74 352.22C277.74 352.62 277.66 353.02 277.5 353.39C277.35 353.76 277.12 354.1 276.83 354.38C276.54 354.66 276.19 354.88 275.82 355.02C275.44 355.17 275.04 355.23 274.64 355.22L274.64 355.22Z" /><path class="shp3" d="M293.04 355.22L313.37 354.65C313.76 354.65 314.15 354.57 314.52 354.42C314.88 354.27 315.21 354.05 315.49 353.77C315.77 353.49 315.99 353.16 316.14 352.8C316.29 352.43 316.37 352.04 316.37 351.65L316.37 350.87C316.37 350.48 316.3 350.1 316.15 349.74C316.01 349.38 315.79 349.06 315.52 348.78C315.25 348.5 314.93 348.28 314.58 348.12C314.23 347.97 313.85 347.88 313.46 347.87L293.13 346.96C292.72 346.93 292.31 346.99 291.92 347.13C291.54 347.27 291.18 347.49 290.88 347.77C290.59 348.05 290.35 348.39 290.19 348.77C290.02 349.14 289.94 349.55 289.94 349.96L289.94 352.22C289.94 352.62 290.02 353.02 290.18 353.39C290.33 353.76 290.56 354.1 290.85 354.38C291.14 354.66 291.49 354.88 291.86 355.02C292.24 355.17 292.64 355.23 293.04 355.22L293.04 355.22Z" /><path class="shp2" d="M248.43 346.43L249.68 346.43C251.5 346.43 252.98 347.91 252.98 349.73L252.98 351.86C252.98 353.68 251.5 355.16 249.68 355.16L248.43 355.16C246.61 355.16 245.13 353.68 245.13 351.86L245.13 349.73C245.13 347.91 246.61 346.43 248.43 346.43Z" /><path class="shp2" d="M318.16 346.43L319.41 346.43C321.23 346.43 322.71 347.91 322.71 349.73L322.71 351.86C322.71 353.68 321.23 355.16 319.41 355.16L318.16 355.16C316.34 355.16 314.86 353.68 314.86 351.86L314.86 349.73C314.86 347.91 316.34 346.43 318.16 346.43Z" /><path class="shp2" d="M247.76 344.51L250.5 344.51C251.05 344.51 251.5 344.96 251.5 345.51L251.5 345.88C251.5 346.43 251.05 346.88 250.5 346.88L247.76 346.88C247.21 346.88 246.76 346.43 246.76 345.88L246.76 345.51C246.76 344.96 247.21 344.51 247.76 344.51Z" /><path class="shp2" d="M248.7 340.51L249.25 340.51C250.08 340.51 250.75 341.18 250.75 342.01L250.75 344.34C250.75 345.17 250.08 345.84 249.25 345.84L248.7 345.84C247.87 345.84 247.2 345.17 247.2 344.34L247.2 342.01C247.2 341.18 247.87 340.51 248.7 340.51Z" /><path class="shp2" d="M239.8 344.51C234.31 344.51 229.88 343.92 229.88 343.18C229.88 342.44 234.31 341.85 239.8 341.85C245.29 341.85 249.72 342.44 249.72 343.18C249.72 343.92 245.29 344.51 239.8 344.51Z" /><path class="shp2" d="M258.16 344.51C252.67 344.51 248.24 343.92 248.24 343.18C248.24 342.44 252.67 341.85 258.16 341.85C263.65 341.85 268.08 342.44 268.08 343.18C268.08 343.92 263.65 344.51 258.16 344.51Z" /><path class="shp2" d="M317.63 344.51L320.37 344.51C320.92 344.51 321.37 344.96 321.37 345.51L321.37 345.88C321.37 346.43 320.92 346.88 320.37 346.88L317.63 346.88C317.08 346.88 316.63 346.43 316.63 345.88L316.63 345.51C316.63 344.96 317.08 344.51 317.63 344.51Z" /><path class="shp2" d="M318.58 340.51L319.13 340.51C319.96 340.51 320.63 341.18 320.63 342.01L320.63 344.34C320.63 345.17 319.96 345.84 319.13 345.84L318.58 345.84C317.75 345.84 317.08 345.17 317.08 344.34L317.08 342.01C317.08 341.18 317.75 340.51 318.58 340.51Z" /><path class="shp2" d="M309.67 344.51C304.18 344.51 299.75 343.92 299.75 343.18C299.75 342.44 304.18 341.85 309.67 341.85C315.16 341.85 319.59 342.44 319.59 343.18C319.59 343.92 315.16 344.51 309.67 344.51Z" /><path class="shp2" d="M328.03 344.51C322.54 344.51 318.11 343.92 318.11 343.18C318.11 342.44 322.54 341.85 328.03 341.85C333.52 341.85 337.95 342.44 337.95 343.18C337.95 343.92 333.52 344.51 328.03 344.51Z" /><path class="shp3" d="M239.8 344.51C234.31 344.51 229.88 343.92 229.88 343.18C229.88 342.44 234.31 341.85 239.8 341.85C245.29 341.85 249.72 342.44 249.72 343.18C249.72 343.92 245.29 344.51 239.8 344.51Z" /><path class="shp3" d="M258.16 344.51C252.67 344.51 248.24 343.92 248.24 343.18C248.24 342.44 252.67 341.85 258.16 341.85C263.65 341.85 268.08 342.44 268.08 343.18C268.08 343.92 263.65 344.51 258.16 344.51Z" /><path class="shp3" d="M309.67 344.51C304.18 344.51 299.75 343.92 299.75 343.18C299.75 342.44 304.18 341.85 309.67 341.85C315.16 341.85 319.59 342.44 319.59 343.18C319.59 343.92 315.16 344.51 309.67 344.51Z" /><path class="shp2" d="M283.92 349.79C280.4 349.79 277.55 346.94 277.55 343.42C277.55 339.9 280.4 337.05 283.92 337.05C287.44 337.05 290.29 339.9 290.29 343.42C290.29 346.94 287.44 349.79 283.92 349.79Z" /><path class="shp2" d="M283.92 347.71C281.55 347.71 279.63 345.79 279.63 343.42C279.63 341.05 281.55 339.13 283.92 339.13C286.29 339.13 288.21 341.05 288.21 343.42C288.21 345.79 286.29 347.71 283.92 347.71Z" /><path class="shp3" d="M283.92 347.71C281.55 347.71 279.63 345.79 279.63 343.42C279.63 341.05 281.55 339.13 283.92 339.13C286.29 339.13 288.21 341.05 288.21 343.42C288.21 345.79 286.29 347.71 283.92 347.71Z" /><path class="shp2" d="M283.92 346.23C282.37 346.23 281.11 344.97 281.11 343.42C281.11 341.87 282.37 340.61 283.92 340.61C285.47 340.61 286.73 341.87 286.73 343.42C286.73 344.97 285.47 346.23 283.92 346.23Z" /><path class="shp4" d="M283.92 346.23C282.37 346.23 281.11 344.97 281.11 343.42C281.11 341.87 282.37 340.61 283.92 340.61C285.47 340.61 286.73 341.87 286.73 343.42C286.73 344.97 285.47 346.23 283.92 346.23Z" /><path class="shp3" d="M328.03 344.51C322.54 344.51 318.11 343.92 318.11 343.18C318.11 342.44 322.54 341.85 328.03 341.85C333.52 341.85 337.95 342.44 337.95 343.18C337.95 343.92 333.52 344.51 328.03 344.51Z" /></g><path class="shp1" d="M521.74 468.89C476 468.89 439.03 463.32 439.03 456.43C439.03 449.54 476 443.97 521.74 443.97C567.48 443.97 604.45 449.54 604.45 456.43C604.45 463.32 567.48 468.89 521.74 468.89Z" /><path class="shp7" d="M767.74 761.09C633.22 761.09 524.48 744.7 524.48 724.43C524.48 704.16 633.22 687.77 767.74 687.77C902.26 687.77 1011 704.16 1011 724.43C1011 744.7 902.26 761.09 767.74 761.09Z" /><path class="shp1" d="M443.95 290.77C431.17 290.77 420.84 289.21 420.84 287.29C420.84 285.37 431.17 283.81 443.95 283.81C456.73 283.81 467.06 285.37 467.06 287.29C467.06 289.21 456.73 290.77 443.95 290.77Z" /><path class="shp1" d="M319.73 533.31C286.75 533.31 260.1 529.29 260.1 524.32C260.1 519.35 286.75 515.33 319.73 515.33C352.71 515.33 379.36 519.35 379.36 524.32C379.36 529.29 352.71 533.31 319.73 533.31Z" /><path class="shp1" d="M283.58 396.46C264.58 396.46 249.23 394.14 249.23 391.28C249.23 388.42 264.58 386.1 283.58 386.1C302.58 386.1 317.93 388.42 317.93 391.28C317.93 394.14 302.58 396.46 283.58 396.46Z" /><path class="shp1" d="M310.12 250.1C299.21 250.1 290.39 248.77 290.39 247.13C290.39 245.49 299.21 244.16 310.12 244.16C321.03 244.16 329.85 245.49 329.85 247.13C329.85 248.77 321.03 250.1 310.12 250.1Z" /><path class="shp8" d="M73.7 509.36C73.7 509.36 100.91 562.76 78.7 591.99C56.49 621.22 80.7 700.81 80.7 700.81" /><path class="shp9" d="M81.77 492.73C81.77 503.03 74.21 511.37 74.21 511.37C74.21 511.37 66.65 503.02 66.65 492.73C66.65 482.44 74.21 474.09 74.21 474.09C74.21 474.09 81.77 482.43 81.77 492.73Z" /><path class="shp10" d="M87.81 509.36C87.81 509.36 60.6 562.76 82.81 591.99C105.02 621.22 80.81 700.81 80.81 700.81" /><path class="shp11" d="M79.75 492.73C79.75 503.03 87.31 511.37 87.31 511.37C87.31 511.37 94.87 503.02 94.87 492.73C94.87 482.44 87.31 474.09 87.31 474.09C87.31 474.09 79.75 482.43 79.75 492.73Z" /><path class="shp8" d="M98.9 509.36C98.9 509.36 126.11 562.76 103.9 591.99C81.69 621.22 105.9 700.81 105.9 700.81" /><path class="shp9" d="M106.96 492.73C106.96 503.03 99.4 511.37 99.4 511.37C99.4 511.37 91.84 503.02 91.84 492.73C91.84 482.44 99.38 474.09 99.38 474.09C99.38 474.09 106.96 482.43 106.96 492.73Z" /><path class="shp9" d="M102.72 535.54C95.58 542.96 84.35 543.73 84.35 543.73C84.35 543.73 84.69 532.48 91.83 525.06C98.97 517.64 110.2 516.87 110.2 516.87C110.2 516.87 109.86 528.1 102.72 535.54Z" /><path class="shp9" d="M103.38 572.36C96.24 579.78 85.01 580.55 85.01 580.55C85.01 580.55 85.35 569.3 92.49 561.88C99.63 554.46 110.86 553.69 110.86 553.69C110.86 553.69 110.57 564.94 103.38 572.36Z" /><path class="shp9" d="M64.72 592.63C71.47 600.4 71.23 611.63 71.23 611.63C71.23 611.63 60.05 610.28 53.3 602.51C46.55 594.74 46.79 583.51 46.79 583.51C46.79 583.51 57.97 584.86 64.72 592.63Z" /><path class="shp9" d="M70.98 514.06C79.56 519.75 82.34 530.66 82.34 530.66C82.34 530.66 71.21 532.35 62.63 526.66C54.05 520.97 51.27 510.06 51.27 510.06C51.27 510.06 62.38 508.37 70.98 514.06Z" /><path class="shp10" d="M113 509.36C113 509.36 85.79 562.76 108 591.99C130.21 621.22 106 700.81 106 700.81" /><path class="shp11" d="M104.94 492.73C104.94 503.03 112.5 511.37 112.5 511.37C112.5 511.37 120.06 503.02 120.06 492.73C120.06 482.44 112.5 474.09 112.5 474.09C112.5 474.09 104.94 482.43 104.94 492.73Z" /><path class="shp11" d="M107.12 536.31C99.89 543.64 99.42 554.89 99.42 554.89C99.42 554.89 110.66 554.25 117.89 546.89C125.12 539.53 125.59 528.31 125.59 528.31C125.59 528.31 114.38 528.98 107.12 536.31Z" /><path class="shp11" d="M121.29 587.32C114.06 594.65 113.59 605.9 113.59 605.9C113.59 605.9 124.83 605.26 132.06 597.9C139.29 590.54 139.76 579.32 139.76 579.32C139.76 579.32 128.51 579.99 121.29 587.32Z" /><path class="shp10" d="M100.44 576.11C100.44 576.11 116.82 550.3 139.8 549.74" /><path class="shp8" d="M87.69 560.54C87.69 560.54 71.31 534.73 48.33 534.17" /><path class="shp10" d="M85.56 597.37C85.56 597.37 101.94 571.56 124.92 571" /><path class="shp11" d="M139.05 553.8C136.7 553.8 134.8 551.9 134.8 549.55C134.8 547.2 136.7 545.3 139.05 545.3C141.4 545.3 143.3 547.2 143.3 549.55C143.3 551.9 141.4 553.8 139.05 553.8Z" /><path class="shp9" d="M48.72 538.56C46.37 538.56 44.47 536.66 44.47 534.31C44.47 531.96 46.37 530.06 48.72 530.06C51.07 530.06 52.97 531.96 52.97 534.31C52.97 536.66 51.07 538.56 48.72 538.56Z" /><path class="shp8" d="M97.6 605.87C97.6 605.87 81.23 580.05 58.24 579.54" /><path class="shp9" d="M58.64 583.91C56.29 583.91 54.39 582.01 54.39 579.66C54.39 577.31 56.29 575.41 58.64 575.41C60.99 575.41 62.89 577.31 62.89 579.66C62.89 582.01 60.99 583.91 58.64 583.91Z" /><path class="shp11" d="M125.24 575.41C122.89 575.41 120.99 573.51 120.99 571.16C120.99 568.81 122.89 566.91 125.24 566.91C127.59 566.91 129.49 568.81 129.49 571.16C129.49 573.51 127.59 575.41 125.24 575.41Z" /><path class="shp12" d="M188.13 669.8C188.13 669.8 148.66 661.91 138.13 651.38C127.6 640.85 80.25 622.44 74.99 635.59C69.73 648.74 3.99 693.47 48.68 701.37C93.37 709.27 153.92 711.89 167.08 706.63C180.24 701.37 188.13 669.8 188.13 669.8Z" /><path class="shp13" d="M48.68 696.48C93.41 704.37 153.92 707 167.08 701.74C177.08 697.74 184.08 678.48 186.81 669.52L188.13 669.79C188.13 669.79 180.24 701.36 167.13 706.62C154.02 711.88 93.46 709.25 48.73 701.36C35.82 699.08 32.13 693.73 33.52 686.96C34.58 691.39 39.07 694.79 48.68 696.48Z" /><path class="shp9" d="M920.68 544.13C920.68 544.13 931.1 557.76 915.87 578.33C900.64 598.9 888.08 616.27 893.16 629.1C893.16 629.1 916.16 590.89 934.84 590.35C953.52 589.81 941.26 567.11 920.68 544.13Z" /><path class="shp14" d="M920.68 544.13C920.91 544.46 921.12 544.79 921.32 545.14C921.53 545.48 921.72 545.83 921.9 546.19C922.07 546.55 922.24 546.91 922.39 547.28C922.54 547.65 922.68 548.02 922.81 548.4C941.06 569.84 950.81 589.85 933.24 590.4C916.9 590.87 897.3 620.09 892.6 627.47C892.64 627.61 892.68 627.75 892.72 627.9C892.77 628.04 892.81 628.18 892.86 628.32C892.9 628.46 892.95 628.6 893 628.74C893.05 628.87 893.11 629.01 893.16 629.15C893.21 629.29 916.16 590.94 934.84 590.4C953.52 589.86 941.26 567.11 920.68 544.13Z" /><path class="shp11" d="M940.05 561.54C940.05 566.34 939.51 570.22 938.85 570.22C938.19 570.22 937.65 566.33 937.65 561.54C937.65 556.75 938.32 559 938.99 559C939.66 559 940.05 556.7 940.05 561.54Z" /><path class="shp11" d="M946.7 567.22C942.49 569.52 938.82 570.9 938.5 570.32C938.18 569.74 941.34 567.4 945.5 565.11C949.66 562.82 948.05 564.49 948.37 565.11C948.69 565.73 950.91 564.93 946.7 567.22Z" /><path class="shp9" d="M865.64 544.13C865.64 544.13 855.22 557.76 870.45 578.33C885.68 598.9 898.24 616.27 893.16 629.1C893.16 629.1 870.16 590.89 851.48 590.35C832.8 589.81 845.06 567.11 865.64 544.13Z" /><path class="shp14" d="M865.64 544.13C865.41 544.46 865.2 544.79 865 545.14C864.79 545.48 864.6 545.83 864.42 546.19C864.25 546.55 864.08 546.91 863.93 547.28C863.78 547.65 863.64 548.02 863.51 548.4C845.26 569.84 835.51 589.85 853.08 590.4C869.42 590.87 889.02 620.09 893.72 627.47C893.68 627.61 893.64 627.75 893.6 627.9C893.55 628.04 893.51 628.18 893.46 628.32C893.42 628.46 893.37 628.6 893.32 628.74C893.27 628.87 893.21 629.01 893.16 629.15C893.11 629.29 870.16 590.94 851.48 590.4C832.8 589.86 845.06 567.11 865.64 544.13Z" /><path class="shp11" d="M846.26 561.54C846.26 566.34 846.8 570.22 847.46 570.22C848.12 570.22 848.66 566.33 848.66 561.54C848.66 556.75 847.99 559 847.32 559C846.65 559 846.26 556.7 846.26 561.54Z" /><path class="shp11" d="M839.62 567.22C843.83 569.52 847.5 570.9 847.82 570.32C848.14 569.74 844.98 567.4 840.82 565.11C836.66 562.82 838.27 564.49 837.95 565.11C837.63 565.73 835.38 564.93 839.62 567.22Z" /><path class="shp12" d="M849.58 627.32C849.58 627.32 878.72 626.42 887.5 620.17C896.28 613.92 932.32 606.45 934.5 616.48C936.68 626.51 978.29 666.35 945.39 666.62C912.49 666.89 868.96 661.5 860.19 656.16C851.42 650.82 849.58 627.32 849.58 627.32Z" /><path class="shp13" d="M945.98 663.12C913.09 663.39 869.55 658 860.78 652.66C854.11 648.59 851.45 634.01 850.56 627.28L849.56 627.28C849.56 627.28 851.41 650.78 860.17 656.12C868.93 661.46 912.47 666.85 945.37 666.58C954.87 666.5 958.15 663.13 957.97 658.12C956.66 661.18 953.04 663.07 945.98 663.12Z" /><path class="shp15" d="M411.6 95.72C408.77 91.1 404.54 86.87 405.2 81.63C412.96 82.52 420.32 80.63 427.43 77.35C434.54 74.07 441.14 69.78 447.79 65.59C450.41 63.94 453.02 62.32 455.62 60.82C459.74 58.45 463.83 55.82 468.02 53.51C474.02 50.21 480.15 47.51 486.88 46.99C488.09 46.9 489.32 46.88 490.55 46.9C498.85 47.07 507.45 49.29 514.75 45.57L515.2 45.33C519.33 43.06 522.35 39.19 525.9 36.07C526.54 35.52 527.19 34.98 527.86 34.47C528.52 33.95 529.2 33.45 529.89 32.97C530.58 32.49 531.29 32.03 532.01 31.58C532.72 31.14 533.45 30.72 534.19 30.31C539.57 27.31 545.41 24.91 550.93 22.08C551.28 21.9 551.63 21.71 551.97 21.51C552.32 21.31 552.65 21.1 552.99 20.89C553.32 20.67 553.65 20.45 553.97 20.22C554.3 19.99 554.62 19.75 554.93 19.51L555.87 18.76L556.08 18.58L556.76 18L557.19 17.62L557.63 17.22L557.97 16.9L558.52 16.38L558.58 16.32L559.46 15.45L559.81 15.1L560.42 14.48L560.78 14.11L562.62 12.22C563.34 11.49 564.08 10.77 564.84 10.07L564.84 10.07L565.56 9.43L565.77 9.25L566.35 8.76L566.63 8.53L567.2 8.09L567.48 7.87L568.34 7.25C568.41 7.2 568.47 7.16 568.54 7.12C568.61 7.07 568.68 7.03 568.75 6.99C568.82 6.95 568.89 6.91 568.96 6.88C569.03 6.84 569.11 6.8 569.18 6.77L567.38 2.21L572.76 -0.01L646.95 180.04L641.57 182.26L599.12 79.26L598.82 79.56C596.37 81.97 593.78 84.24 591.06 86.34C588.34 88.44 585.5 90.37 582.54 92.13C579.59 93.89 576.53 95.47 573.39 96.85C570.24 98.24 567.02 99.44 563.73 100.44L563.65 100.44C556.26 102.67 547.99 104.25 541.77 108.44C541.22 108.8 540.69 109.18 540.17 109.59C539.66 109.99 539.16 110.43 538.69 110.88C538.22 111.33 537.77 111.81 537.34 112.3C536.91 112.8 536.5 113.32 536.12 113.85C534.66 115.93 533.64 118.3 532.07 120.3C531.78 120.67 531.46 121.03 531.14 121.37C530.69 121.82 530.22 122.26 529.74 122.68C529.26 123.1 528.77 123.51 528.27 123.91C527.77 124.31 527.26 124.69 526.74 125.06C526.21 125.43 525.68 125.78 525.14 126.12L524.14 126.77C522.53 127.9 520.9 129.01 519.26 130.1C517.61 131.18 515.95 132.24 514.28 133.28C512.6 134.31 510.91 135.32 509.2 136.3C507.5 137.28 505.78 138.24 504.04 139.17C503.04 139.69 502.03 140.19 501 140.67C499.98 141.15 498.95 141.6 497.91 142.04C496.86 142.47 495.81 142.88 494.75 143.27C493.69 143.66 492.63 144.03 491.55 144.37C488.42 145.37 485.19 146.1 482.06 147.09C481.53 147.25 481.01 147.42 480.49 147.6C479.97 147.78 479.46 147.98 478.94 148.18C478.43 148.39 477.93 148.6 477.43 148.83C476.93 149.06 476.43 149.3 475.94 149.55C470.64 152.32 466.57 156.66 462.72 161.29C459.35 165.35 456.15 169.64 452.45 173.34C450.14 175.65 446.61 177.82 443.8 176.47C443.75 176.45 443.7 176.42 443.66 176.39C443.61 176.37 443.56 176.34 443.51 176.31C443.47 176.29 443.42 176.26 443.38 176.23C443.33 176.2 443.28 176.17 443.24 176.14C443.32 175.99 443.4 175.84 443.47 175.68C445.68 171.05 442.96 165.33 439.3 161.61C438.92 161.23 438.53 160.85 438.13 160.48C437.73 160.11 437.02 159.48 436.44 158.98C433.31 156.29 429.98 153.79 427.81 150.32C427.4 149.59 427.02 148.85 426.67 148.09C426.32 147.33 426.01 146.55 425.73 145.76C425.46 144.97 425.21 144.17 425 143.36C424.8 142.55 424.63 141.73 424.49 140.91C423.49 136.2 422.83 131.35 420.27 127.34C418.58 124.69 416.09 122.43 414.27 119.89C413.98 119.52 413.72 119.13 413.48 118.72C413.24 118.32 413.03 117.9 412.85 117.46C412.66 117.03 412.5 116.59 412.37 116.14C412.24 115.68 412.14 115.22 412.07 114.76C411.66 111.5 413.17 108.32 413.74 105.08C413.78 104.86 413.82 104.64 413.85 104.42C413.88 104.19 413.9 103.97 413.92 103.75C413.93 103.52 413.94 103.3 413.95 103.07C413.95 102.85 413.95 102.62 413.94 102.4C413.89 101.81 413.8 101.22 413.68 100.63C413.55 100.05 413.39 99.47 413.19 98.91C413 98.35 412.76 97.8 412.5 97.27C412.23 96.73 411.93 96.22 411.6 95.72Z" /><path class="shp16" d="M644.93 178.62L639.63 180.8L566.67 3.78L571.96 1.6L644.93 178.62Z" /><path class="shp17" d="M422.07 126.73C424.59 130.67 425.25 135.44 426.22 140.07C426.35 140.88 426.52 141.69 426.73 142.48C426.93 143.28 427.17 144.06 427.45 144.84C427.72 145.61 428.03 146.38 428.37 147.12C428.71 147.87 429.08 148.61 429.49 149.32C431.63 152.73 434.9 155.2 437.97 157.84C438.53 158.32 439.09 158.84 439.63 159.31C440.17 159.78 440.41 160.04 440.78 160.42C444.38 164.07 447.05 169.69 444.88 174.25C444.81 174.4 444.74 174.55 444.65 174.7C444.69 174.73 444.74 174.76 444.78 174.79C444.83 174.82 444.87 174.84 444.92 174.87C444.97 174.9 445.01 174.92 445.06 174.95C445.11 174.97 445.15 175 445.2 175.02C447.96 176.35 451.43 174.21 453.7 171.94C457.34 168.3 460.49 164.08 463.8 160.09C467.58 155.53 471.59 151.27 476.8 148.54C477.28 148.29 477.77 148.06 478.26 147.84C478.75 147.61 479.25 147.4 479.75 147.2C480.25 146.99 480.75 146.8 481.26 146.62C481.77 146.44 482.28 146.28 482.8 146.12C485.87 145.12 489.05 144.41 492.13 143.44C493.19 143.1 494.24 142.74 495.28 142.36C496.32 141.98 497.36 141.57 498.38 141.15C499.41 140.72 500.43 140.27 501.43 139.8C502.44 139.33 503.43 138.84 504.42 138.33C506.13 137.42 507.82 136.47 509.5 135.51C511.17 134.54 512.84 133.55 514.49 132.54C516.13 131.52 517.77 130.48 519.38 129.41C521 128.35 522.6 127.25 524.18 126.14L525.12 125.5C525.65 125.17 526.18 124.82 526.69 124.46C527.2 124.09 527.71 123.72 528.2 123.33C528.69 122.94 529.17 122.53 529.64 122.12C530.11 121.7 530.57 121.27 531.02 120.83C531.34 120.49 531.65 120.14 531.93 119.78C533.47 117.78 534.48 115.48 535.93 113.44C536.3 112.92 536.7 112.41 537.13 111.92C537.55 111.43 537.99 110.96 538.46 110.52C538.93 110.07 539.41 109.65 539.92 109.25C540.42 108.85 540.95 108.47 541.49 108.12C547.61 104.05 555.73 102.49 563 100.3L563.08 100.3C566.31 99.32 569.48 98.14 572.58 96.77C575.67 95.41 578.67 93.86 581.58 92.13C584.48 90.4 587.28 88.5 589.95 86.43C592.63 84.37 595.17 82.14 597.58 79.77C597.78 79.6 597.97 79.42 598.14 79.23C598.32 79.04 598.48 78.84 598.62 78.62C598.77 78.41 598.9 78.18 599.02 77.95C599.13 77.72 599.23 77.48 599.31 77.23C599.62 75.82 598.86 74.43 598.13 73.23C597.28 71.78 596.45 70.31 595.64 68.83C594.72 67.15 593.82 65.46 592.95 63.76C592.07 62.05 591.22 60.33 590.4 58.6C589.58 56.87 588.78 55.13 588.01 53.38C587.24 51.63 586.49 49.86 585.77 48.09C585.14 46.54 584.53 44.98 583.94 43.41C582.43 39.41 581.05 35.35 579.8 31.24C579.39 29.87 578.99 28.51 578.61 27.13C578.54 26.87 578.47 26.59 578.39 26.29C576.73 19.54 574.51 3.97 567.68 8.64C567.17 9 566.67 9.38 566.18 9.76C565.69 10.15 565.21 10.54 564.74 10.95C564.26 11.36 563.8 11.78 563.35 12.21C562.9 12.65 562.46 13.09 562.03 13.54C560.7 14.89 559.4 16.28 558.03 17.62C557.75 17.89 557.47 18.17 557.18 18.43C556.9 18.7 556.61 18.96 556.31 19.22C556.02 19.48 555.72 19.73 555.42 19.98C555.11 20.23 554.81 20.47 554.5 20.71C554.19 20.95 553.87 21.18 553.54 21.41C553.22 21.63 552.89 21.85 552.56 22.06C552.22 22.27 551.89 22.47 551.54 22.67C551.2 22.86 550.85 23.05 550.5 23.23C545.08 26.01 539.33 28.34 534.04 31.32C533.31 31.72 532.6 32.14 531.89 32.57C531.19 33.01 530.5 33.46 529.81 33.93C529.13 34.41 528.47 34.9 527.81 35.4C527.16 35.91 526.52 36.44 525.89 36.98C522.4 40.06 519.43 43.86 515.37 46.09L514.92 46.32C507.74 49.98 499.29 47.79 491.13 47.62C489.92 47.62 488.71 47.62 487.52 47.71C480.9 48.22 474.84 50.88 468.98 54.12C464.86 56.4 460.84 58.98 456.79 61.31C454.23 62.78 451.67 64.37 449.09 66C442.54 70.12 435.92 74.45 429.09 77.56C422.26 80.67 414.86 82.65 407.23 81.77C406.58 86.92 410.74 91.08 413.52 95.63C413.85 96.12 414.15 96.62 414.42 97.14C414.68 97.67 414.91 98.21 415.11 98.76C415.31 99.31 415.47 99.88 415.6 100.45C415.73 101.02 415.82 101.61 415.87 102.19C415.88 102.41 415.88 102.63 415.88 102.85C415.87 103.07 415.86 103.29 415.84 103.51C415.83 103.73 415.8 103.95 415.78 104.17C415.75 104.39 415.71 104.6 415.67 104.82C415.11 108.01 413.67 111.13 414.03 114.34C414.1 114.79 414.2 115.24 414.33 115.68C414.46 116.12 414.62 116.55 414.8 116.97C414.98 117.4 415.19 117.81 415.42 118.2C415.65 118.6 415.91 118.98 416.19 119.34C417.96 121.9 420.38 124.13 422.07 126.73Z" /><path class="shp18" d="M554.48 20.72L560.06 33.97L578.38 26.25C576.73 19.54 574.51 3.97 567.68 8.64C562.73 12.02 559.38 16.96 554.48 20.72Z" /><path class="shp18" d="M515.38 46.1L517.76 51.76L538.9 42.86L534.04 31.32C533.31 31.72 532.6 32.14 531.89 32.57C531.19 33.01 530.5 33.46 529.81 33.93C529.13 34.41 528.47 34.9 527.81 35.4C527.16 35.91 526.52 36.44 525.89 36.98C522.38 40.07 519.45 43.87 515.38 46.1Z" /><path class="shp18" d="M469 54.14L475.49 69.54L496.63 60.64L491.15 47.64C489.94 47.64 488.73 47.64 487.54 47.73C480.92 48.23 474.86 50.89 469 54.14Z" /><path class="shp18" d="M429.08 77.54L433.2 87.32L454.34 78.42L449.1 65.98C442.56 70.14 435.93 74.46 429.08 77.54Z" /><path class="shp18" d="M568.95 55.06L547.8 63.96L538.9 42.82L560.05 33.92L568.95 55.06Z" /><path class="shp18" d="M526.66 72.86L505.52 81.75L496.62 60.61L517.77 51.71L526.66 72.86Z" /><path class="shp18" d="M484.38 90.66L463.24 99.55L454.34 78.41L475.49 69.51L484.38 90.66Z" /><path class="shp18" d="M415.67 104.84L420.96 117.4L442.1 108.5L433.2 87.36L413.52 95.64C413.85 96.13 414.15 96.63 414.42 97.15C414.68 97.68 414.91 98.22 415.11 98.77C415.31 99.32 415.47 99.89 415.6 100.46C415.73 101.03 415.82 101.62 415.87 102.2C415.88 102.42 415.88 102.64 415.88 102.86C415.87 103.08 415.86 103.31 415.84 103.53C415.83 103.75 415.81 103.97 415.78 104.19C415.75 104.4 415.71 104.62 415.67 104.84L415.67 104.84Z" /><path class="shp18" d="M568.96 55.11L577.86 76.25L595.64 68.77C594.72 67.09 593.82 65.4 592.95 63.7C592.07 61.99 591.22 60.27 590.4 58.54C589.58 56.81 588.78 55.07 588.01 53.32C587.24 51.57 586.49 49.8 585.77 48.03L568.96 55.11Z" /><path class="shp18" d="M556.71 85.1L535.56 94L526.67 72.86L547.81 63.96L556.71 85.1Z" /><path class="shp18" d="M514.41 102.9L493.27 111.8L484.37 90.65L505.52 81.76L514.41 102.9Z" /><path class="shp18" d="M472.13 120.71L450.99 129.61L442.09 108.46L463.24 99.57L472.13 120.71Z" /><path class="shp18" d="M556.71 85.15L563.08 100.28C564.92 99.72 566.73 99.1 568.53 98.42C570.32 97.73 572.09 96.99 573.83 96.19C575.57 95.38 577.29 94.52 578.97 93.6C580.65 92.67 582.3 91.7 583.92 90.66L577.85 76.24L556.71 85.15Z" /><path class="shp18" d="M514.38 102.95L523.28 124.09L530.99 120.84C531.31 120.5 531.62 120.15 531.9 119.79C533.44 117.79 534.45 115.49 535.9 113.45C536.27 112.93 536.67 112.42 537.1 111.93C537.52 111.44 537.96 110.97 538.43 110.53C538.9 110.08 539.38 109.66 539.89 109.26C540.39 108.86 540.92 108.48 541.46 108.13L535.54 94.05L514.38 102.95Z" /><path class="shp18" d="M502.18 132.94L481.04 141.84L472.14 120.69L493.29 111.8L502.18 132.94Z" /><path class="shp18" d="M429.85 138.54L437.97 157.84C438.53 158.32 439.09 158.84 439.63 159.31L459.89 150.78L450.99 129.64L429.85 138.54Z" /><path class="shp18" d="M426.22 140.07L429.85 138.54L420.95 117.4L416.18 119.4C417.95 121.9 420.4 124.12 422.06 126.72C424.59 130.67 425.25 135.44 426.22 140.07Z" /><path class="shp18" d="M502.18 132.99L504.43 138.35C506.14 137.44 507.83 136.49 509.51 135.53C511.18 134.56 512.85 133.57 514.5 132.56C516.14 131.54 517.78 130.5 519.39 129.43C521.01 128.37 522.61 127.27 524.19 126.16L523.32 124.09L502.18 132.99Z" /><path class="shp18" d="M459.9 150.79L463.82 160.1C467.6 155.54 471.61 151.28 476.82 148.55C477.3 148.3 477.79 148.07 478.28 147.85C478.77 147.62 479.27 147.41 479.77 147.21C480.27 147 480.77 146.81 481.28 146.63C481.79 146.45 482.3 146.29 482.82 146.13L481.03 141.89L459.9 150.79Z" /><path fill-rule="evenodd" class="shp19" d="M629.38 142.23C631.89 139.81 648.12 159.17 647.14 169.34C646.16 179.51 651.09 199.85 651.09 199.85C651.09 199.85 663 225.28 664.9 229.85C667.62 236.39 667.1 239.67 668.85 240.02C670.6 240.37 672.33 240.84 674.02 241.43C675.7 242.03 677.35 242.74 678.93 243.56C680.52 244.39 682.05 245.32 683.5 246.36C684.96 247.4 686.34 248.54 687.63 249.77L688.33 250.46C688.43 250.43 688.53 250.4 688.63 250.37C688.74 250.34 688.84 250.31 688.94 250.29C689.05 250.27 689.15 250.25 689.26 250.23C689.36 250.22 689.46 250.2 689.57 250.19C689.57 250.19 712.7 264.19 722.57 265.19C724.25 265.39 725.92 265.62 727.58 265.9C729.24 266.18 730.9 266.51 732.55 266.87C734.19 267.23 735.83 267.64 737.46 268.09C739.08 268.53 740.7 269.02 742.3 269.55C742.3 269.55 743.67 268.67 745.95 267.55L746.88 266.28C747.04 265.23 747.16 264.17 747.26 263.11C747.36 262.06 747.43 261 747.46 259.93C747.5 258.87 747.51 257.81 747.49 256.74C747.47 255.68 747.42 254.62 747.34 253.56L747.19 252C747.19 252 747.19 251.99 747.19 251.99C747.19 251.98 747.19 251.98 747.19 251.97C747.19 251.96 747.19 251.96 747.19 251.95C747.19 251.95 747.19 251.94 747.19 251.94C745.37 250.83 743.7 249.49 742.22 247.95C740.73 246.42 739.46 244.7 738.41 242.84C737.36 240.98 736.56 238.99 736.02 236.93C735.47 234.87 735.19 232.74 735.19 230.61C735.19 229.36 735.28 228.11 735.47 226.87C735.66 225.63 735.94 224.41 736.31 223.21C736.69 222.02 737.15 220.85 737.7 219.73C738.25 218.6 738.89 217.52 739.6 216.49C737.82 215.49 736.12 214.33 734.53 213.05C732.94 211.77 731.46 210.35 730.1 208.82C728.74 207.3 727.51 205.66 726.42 203.93C725.33 202.2 724.39 200.38 723.6 198.49C723.65 198.47 723.7 198.45 723.75 198.44C723.81 198.42 723.86 198.41 723.91 198.39C723.96 198.38 724.02 198.36 724.07 198.35C724.12 198.34 724.18 198.33 724.23 198.32L724.09 198C726.81 197 729.67 199.46 732.57 199.27C736.08 199.04 738.08 195.27 741.08 193.48C744.98 191.15 750.12 192.5 754.08 194.75C758.04 197 761.58 200.11 765.94 201.47C769.68 202.62 773.69 202.4 777.61 202.62C782.61 202.89 792.88 203.77 796.61 207.49C798.64 209.51 797.75 211.54 795.87 213.24C796.38 216.08 795.36 218.72 795.69 222.08C796.11 225.89 796.04 227.09 794.69 230.69C794.61 230.9 794.51 231.1 794.4 231.3C794.3 231.5 794.18 231.69 794.04 231.87C793.91 232.05 793.77 232.23 793.62 232.39C793.46 232.56 793.3 232.71 793.13 232.86C791.41 234.73 788.51 235.69 786.51 237.45C786.19 237.8 789.47 240.55 789.24 240.97C787.96 243.34 788.7 246.45 787.19 248.69C787.12 248.78 787.05 248.87 786.98 248.96C786.91 249.05 786.83 249.14 786.75 249.22C786.67 249.3 786.59 249.39 786.51 249.46C786.42 249.54 786.34 249.62 786.25 249.69C786.12 249.83 785.98 249.96 785.84 250.09C785.7 250.22 785.56 250.34 785.41 250.46C785.26 250.58 785.1 250.69 784.94 250.8C784.79 250.9 784.63 251.01 784.46 251.1C784.43 252.38 784.43 253.67 784.45 254.95C784.47 256.23 784.51 257.51 784.58 258.79C784.65 260.08 784.74 261.36 784.85 262.63C784.96 263.91 785.1 265.19 785.26 266.46C790.2 268.57 794.98 272.05 796.65 277.8C796.65 277.8 817.37 284.58 828.22 285.06C836.95 285.45 857.43 293 865.43 297L866.59 297.6C867.47 298.04 868.8 298.66 870.39 299.29C875.46 301.3 883.21 303.43 887.89 300.06C895.29 294.73 887.89 256.96 887.89 256.96C887.89 256.96 871.12 234.68 877.04 220.64C882.96 206.6 904.17 254.54 904.17 254.54L912.55 311.7C912.55 311.7 917.48 326.25 896.27 327.7C885.1 328.46 874.34 328.42 866.66 328.21L865.61 328.21C865.21 328.7 864.8 329.17 864.37 329.64C863.95 330.11 863.52 330.56 863.07 331.01C862.63 331.45 862.17 331.89 861.7 332.31C861.23 332.73 860.76 333.14 860.27 333.54C860.27 333.54 838.97 326.25 829.61 339.32C820.25 352.39 809.88 414.86 819.25 421.64C819.25 421.64 817.33 421.54 814.25 421.48C814.48 421.95 814.71 422.43 814.95 422.95C820.08 434.03 827.62 456.53 822.45 485.53C821.94 488.44 821.57 491.37 821.35 494.32C821.12 497.26 821.04 500.22 821.1 503.17C821.16 506.12 821.37 509.07 821.72 512.01C822.06 514.94 822.55 517.85 823.18 520.74C826.18 534.69 828.65 553.27 824.18 564.97C822.69 568.84 823.18 632.76 823.18 632.76L832.06 702.01L830.91 702.19C833.22 712.07 831.07 727.68 831.07 727.68L813.07 727.35C813.17 728.99 813.22 730.64 813.24 732.28C813.26 733.93 813.24 735.57 813.18 737.22C813.13 738.86 813.03 740.5 812.9 742.14C812.76 743.78 812.59 745.42 812.38 747.05L744.38 745.79C742.58 745.76 740.79 745.61 739.02 745.32C737.25 745.03 735.5 744.61 733.79 744.06C732.08 743.52 730.41 742.85 728.79 742.06C727.18 741.27 725.63 740.36 724.15 739.34C714.95 732.93 705.36 724.33 724.15 726.83C737.84 728.66 745.15 726.72 749.15 724.16C740.23 718.55 719.38 704.33 742.87 707.46C743.59 707.56 744.32 707.65 745.04 707.73C745.77 707.81 746.5 707.87 747.23 707.93C747.95 707.99 748.68 708.04 749.41 708.08C750.14 708.11 750.87 708.14 751.6 708.16C752.02 686.41 752.24 646.17 748.3 641.6C742.88 635.31 735.48 598.02 735.48 598.02C735.48 598.02 724.14 544.75 714.27 531.68C707.7 522.97 709.88 503.52 712.07 491.52C711.99 491.36 711.91 491.2 711.84 491.04C711.76 490.87 711.69 490.71 711.63 490.54C711.57 490.38 711.51 490.21 711.45 490.04C711.4 489.87 711.35 489.69 711.31 489.52C707.59 474.93 711.12 443.09 719.88 428.52C720.08 428.17 720.29 427.84 720.5 427.52C714.58 423.16 709.18 414.36 708.84 398.46C708.35 375.7 716.73 326.79 704.4 320.98C692.07 315.17 672.34 276.43 672.34 276.43C672.34 276.43 672.61 275.55 673.12 274.12L671.86 273.02C666.13 268.02 656.2 259.67 651.13 257.02C643.73 253.13 637.32 241.02 637.32 241.02L631.89 182.91C624.98 173.23 626.87 144.65 629.38 142.23ZM776.42 557.16C776.64 560.85 779.2 573.13 781.64 584.34C781.49 580.75 781.32 576.8 781.13 572.64C780.11 550.73 778.5 523.02 776.38 510.92C775.77 507.5 775.13 505.32 774.44 504.92L774.16 504.79C774.93 523.99 776.09 552.48 776.42 557.16Z" /><path class="shp20" d="M772.38 695.67C772.38 695.67 771.9 708.57 743.71 704.75C715.52 700.93 753.27 723.39 753.27 723.39L829.27 724.82C829.27 724.82 833.74 691.82 822.58 691.82C822.09 691.85 772.38 695.67 772.38 695.67Z" /><path class="shp14" d="M772.38 695.67C772.38 695.67 771.9 708.57 743.71 704.75C715.52 700.93 753.27 723.39 753.27 723.39L829.27 724.82C829.27 724.82 833.74 691.82 822.58 691.82C822.09 691.85 772.38 695.67 772.38 695.67Z" /><path class="shp18" d="M713.13 489.7C713.23 490.09 713.35 490.47 713.5 490.84C713.64 491.21 713.81 491.57 714 491.92C714.2 492.27 714.41 492.6 714.64 492.93C714.88 493.25 715.13 493.56 715.4 493.85C726.47 506.1 769.95 502.39 774.3 504.99C774.96 505.39 775.59 507.54 776.18 510.99L776.18 510.99C778.23 522.93 779.8 550.28 780.78 571.9C781.54 588.69 781.95 602.03 781.95 602.03L784.38 706.67L812.52 702.27L830.22 699.54L821.62 631.2C821.62 631.2 821.14 568.12 822.62 564.29C826.96 552.72 824.54 534.29 821.62 520.56C821.01 517.72 820.54 514.86 820.2 511.98C819.87 509.1 819.67 506.2 819.61 503.3C819.55 500.4 819.63 497.5 819.85 494.6C820.06 491.71 820.42 488.83 820.91 485.97C825.91 457.28 818.63 435.08 813.66 424.13C813.37 423.48 813.07 422.84 812.76 422.2C812.45 421.57 812.13 420.93 811.79 420.31C811.46 419.68 811.12 419.06 810.76 418.45C810.4 417.84 810.04 417.23 809.66 416.63C809.28 416.03 739.41 415.63 726.98 423.32C726.4 423.72 725.85 424.15 725.32 424.62C724.8 425.09 724.3 425.58 723.83 426.11C723.37 426.63 722.93 427.19 722.53 427.76C722.13 428.34 721.76 428.94 721.43 429.56C712.96 443.89 709.53 475.31 713.13 489.7Z" /><path class="shp20" d="M754.23 714.79C754.23 714.79 753.75 727.69 725.56 723.87C707.35 721.4 716.65 729.87 725.56 736.22C726.99 737.24 728.49 738.15 730.06 738.94C731.62 739.73 733.24 740.4 734.91 740.95C736.58 741.5 738.28 741.92 740.01 742.21C741.74 742.51 743.49 742.67 745.24 742.7L811.14 743.94C811.14 743.94 815.61 710.94 804.45 710.94C803.93 710.97 754.23 714.79 754.23 714.79Z" /><path class="shp21" d="M852.68 330.08C852.68 330.08 856.97 330.4 863.68 330.59C871.12 330.8 881.55 330.84 892.37 330.08C912.92 328.65 908.14 314.31 908.14 314.31L900.02 257.92C900.02 257.92 879.47 210.61 873.74 224.47C868.01 238.33 884.25 260.31 884.25 260.31C884.25 260.31 891.42 297.59 884.25 302.84C879.71 306.17 872.25 304.07 867.25 302.08C866.84 301.92 866.43 301.74 866.02 301.57C865.61 301.39 865.21 301.21 864.81 301.02C864.4 300.83 864.01 300.63 863.61 300.43C863.21 300.23 862.82 300.02 862.43 299.81L852.68 330.08Z" /><path class="shp21" d="M636.19 187.19L641.45 244.54C641.45 244.54 647.66 256.49 654.83 260.31C659.74 262.93 669.34 271.14 674.92 276.06C677.49 278.33 679.21 279.9 679.21 279.9L693.55 256.96C693.3 256.62 693.05 256.29 692.79 255.96C692.53 255.64 692.26 255.32 691.98 255C691.7 254.69 691.42 254.38 691.13 254.08C690.84 253.78 690.54 253.49 690.24 253.2C688.99 251.99 687.66 250.86 686.25 249.84C684.85 248.82 683.37 247.9 681.83 247.08C680.29 246.27 678.7 245.57 677.06 244.98C675.42 244.4 673.74 243.93 672.04 243.58C670.34 243.23 670.85 240 668.22 233.58C666.38 229.07 654.84 203.95 654.84 203.95C654.84 203.95 650.06 183.88 651.02 173.84C651.98 163.8 636.21 144.69 633.82 147.08C631.43 149.47 629.5 177.63 636.19 187.19Z" /><path class="shp21" d="M743.24 285.64C743.24 285.64 794.85 292.81 788.16 281.34C786.32 278.19 785.24 273.62 784.64 268.66C783.06 255.58 784.82 239.76 784.82 239.76L746.11 246.45C746.66 248.3 747.11 250.18 747.46 252.08C747.81 253.98 748.05 255.9 748.18 257.82C748.31 259.75 748.34 261.68 748.26 263.61C748.18 265.54 747.99 267.46 747.7 269.37C747.51 270.77 747.28 272.16 747 273.54C746.71 274.92 746.39 276.29 746.01 277.65C745.64 279.01 745.22 280.36 744.76 281.69C744.3 283.03 743.79 284.34 743.24 285.64L743.24 285.64Z" /><path class="shp21" d="M761.16 259.12C747.42 259.12 736.31 248.01 736.31 234.27C736.31 220.53 747.42 209.42 761.16 209.42C774.9 209.42 786.01 220.53 786.01 234.27C786.01 248.01 774.9 259.12 761.16 259.12Z" /><path class="shp14" d="M721.44 429.54C722.01 430.01 722.61 430.45 723.23 430.85C723.86 431.25 724.51 431.61 725.17 431.93C725.84 432.25 726.53 432.53 727.23 432.77C727.94 433 728.65 433.19 729.38 433.34C737.03 434.77 761.88 437.64 771.44 429.99C779.02 423.93 803.73 423.87 813.63 424.11C813.34 423.46 813.04 422.82 812.73 422.18C812.42 421.55 812.1 420.91 811.76 420.29C811.43 419.66 811.09 419.04 810.73 418.43C810.37 417.82 810.01 417.21 809.63 416.61C809.25 416.01 739.38 415.61 726.95 423.3C726.38 423.7 725.83 424.14 725.3 424.6C724.78 425.07 724.29 425.57 723.82 426.09C723.36 426.62 722.93 427.17 722.53 427.75C722.13 428.32 721.77 428.92 721.44 429.54Z" /><path class="shp14" d="M674.92 276.06C677.49 278.33 679.21 279.9 679.21 279.9L693.55 256.96C693.3 256.62 693.05 256.29 692.79 255.96C692.53 255.64 692.26 255.32 691.98 255C691.7 254.69 691.42 254.38 691.13 254.08C690.84 253.78 690.54 253.49 690.24 253.2C683.26 254.54 677.2 269.62 674.92 276.06Z" /><path class="shp14" d="M852.68 330.08C852.68 330.08 856.97 330.4 863.68 330.59C874.24 317.92 868.63 305.4 867.29 302.08C866.88 301.92 866.47 301.74 866.06 301.57C865.65 301.39 865.25 301.21 864.85 301.02C864.44 300.83 864.05 300.63 863.65 300.43C863.25 300.23 862.86 300.02 862.47 299.81L852.68 330.08Z" /><path class="shp14" d="M743.24 285.64C743.24 285.64 794.85 292.81 788.16 281.34C786.32 278.19 785.24 273.62 784.64 268.66C783.59 268.23 782.52 267.84 781.44 267.5C780.36 267.15 779.27 266.85 778.16 266.59C777.06 266.33 775.94 266.12 774.82 265.95C773.7 265.78 772.57 265.65 771.44 265.57C762.58 263.36 753.1 266.79 747.7 269.37C747.51 270.77 747.28 272.16 747 273.54C746.71 274.92 746.39 276.29 746.01 277.65C745.64 279.01 745.22 280.36 744.76 281.69C744.3 283.03 743.79 284.34 743.24 285.64L743.24 285.64Z" /><path class="shp22" d="M771.44 266.54C771.44 266.54 791.99 267.54 795.81 280.88C795.81 280.88 815.88 287.57 826.4 288.05C836.92 288.53 865.11 300 865.59 301.91C866.07 303.82 875.59 320.55 857.47 335.84C857.47 335.84 836.92 328.67 827.84 341.57C818.76 354.47 808.72 416.12 817.84 422.81C817.84 422.81 781.04 420.9 771.48 428.54C761.92 436.18 737.07 433.32 729.42 431.89C721.77 430.46 711.26 422.33 710.78 399.89C710.3 377.45 718.43 329.16 706.48 323.43C694.53 317.7 675.42 279.43 675.42 279.43C675.42 279.43 683.07 254.58 692.15 253.62C692.15 253.62 714.61 267.48 724.15 268.43C725.77 268.62 727.39 268.86 729.01 269.13C730.62 269.41 732.22 269.73 733.82 270.09C735.42 270.45 737 270.85 738.58 271.29C740.15 271.73 741.72 272.21 743.27 272.73C744.82 273.25 758.06 263.17 771.44 266.54Z" /><path class="shp14" d="M787.69 603.92C787.69 603.92 783.62 585.92 780.78 571.92C781.54 588.71 781.95 602.05 781.95 602.05L784.38 706.67L812.52 702.27L787.69 603.92Z" /><path class="shp18" d="M716 481.54C716 481.54 706.44 518.34 716 531.24C725.56 544.14 736.55 596.71 736.55 596.71C736.55 596.71 743.72 633.51 748.98 639.71C754.24 645.91 751.85 719.04 751.85 719.04L813.98 715.69L785.78 603.86C785.78 603.86 776.7 563.72 776.22 556.55C775.74 549.38 773.35 487.25 773.35 487.25L716 481.54Z" /><path class="shp14" d="M746.11 222.94C743.76 222.06 741.5 220.94 739.37 219.6C737.25 218.25 735.27 216.69 733.47 214.94C731.67 213.19 730.05 211.26 728.65 209.18C727.24 207.09 726.06 204.87 725.11 202.54C727.75 201.54 730.52 203.98 733.33 203.79C736.73 203.56 738.66 199.79 741.57 198.07C745.36 195.77 750.34 197.07 754.17 199.33C758 201.59 761.43 204.62 765.66 205.96C769.28 207.11 773.17 206.88 776.97 207.1C781.79 207.37 791.73 208.23 795.34 211.91C797.34 213.91 796.44 215.91 794.62 217.59C795.11 220.4 794.12 222.99 794.44 226.31C794.56 227.02 794.62 227.74 794.63 228.47C794.64 229.19 794.6 229.91 794.51 230.63C794.41 231.34 794.26 232.05 794.07 232.75C793.87 233.44 793.62 234.12 793.32 234.78C791.95 238.51 790.02 241.44 788.15 244.95C786.91 247.29 787.62 250.36 786.15 252.57C785.95 252.83 785.74 253.07 785.52 253.3C785.29 253.53 785.05 253.75 784.8 253.95C784.55 254.15 784.28 254.34 784.01 254.51C783.73 254.67 783.44 254.83 783.15 254.96C781.41 255.89 779.58 256.66 777.69 257.25C775.81 257.85 773.87 258.27 771.91 258.5C769.95 258.74 767.97 258.79 765.99 258.66C764.02 258.53 762.06 258.22 760.15 257.73C757.55 257.05 754.87 255.89 753.48 253.59C751.17 249.76 753.48 244.88 753.24 240.41C752.97 234.09 747.64 228.92 746.11 222.94Z" /><path class="shp20" d="M746.58 222.46C744.23 221.58 741.97 220.46 739.84 219.12C737.72 217.77 735.74 216.21 733.94 214.46C732.14 212.71 730.52 210.78 729.12 208.7C727.71 206.61 726.53 204.39 725.58 202.06C728.22 201.06 730.99 203.5 733.8 203.31C737.2 203.08 739.13 199.31 742.04 197.59C745.83 195.29 750.81 196.59 754.64 198.85C758.47 201.11 761.9 204.14 766.13 205.48C769.75 206.63 773.64 206.4 777.44 206.62C782.26 206.89 792.2 207.75 795.81 211.43C797.81 213.43 796.91 215.43 795.09 217.11C795.58 219.92 794.59 222.51 794.91 225.83C795.03 226.54 795.09 227.26 795.1 227.99C795.11 228.71 795.07 229.43 794.98 230.15C794.88 230.86 794.73 231.57 794.54 232.27C794.34 232.96 794.09 233.64 793.79 234.3C792.42 238.03 790.49 240.96 788.62 244.47C787.38 246.81 788.09 249.88 786.62 252.09C786.42 252.35 786.21 252.59 785.99 252.82C785.76 253.05 785.52 253.27 785.27 253.47C785.02 253.67 784.75 253.86 784.48 254.03C784.2 254.19 783.91 254.35 783.62 254.48C781.88 255.41 780.05 256.18 778.16 256.77C776.28 257.37 774.34 257.79 772.38 258.02C770.42 258.26 768.44 258.31 766.46 258.18C764.49 258.05 762.53 257.74 760.62 257.25C758.02 256.57 755.34 255.41 753.95 253.11C751.64 249.28 753.95 244.4 753.71 239.93C753.45 233.62 748.12 228.44 746.58 222.46Z" /><path class="shp14" d="M751.6 255.77L748.12 257L747.96 255.33C747.96 255.33 747.78 256.25 751.6 255.77Z" /></svg>